{
.appVersion = "3091";
.formatVersion = 3;
DisplayStrings = (
"–"
);
customParameters = (
{
name = vendorID;
value = ABCD;
},
{
name = panose;
value = (
2,
0,
0,
4,
0,
2,
0,
6,
0,
3
);
},
{
name = unicodeRanges;
value = (
0,
1,
2
);
},
{
name = codePageRanges;
value = (
"1252",
"1250",
"1254",
"1257",
"bit 29"
);
},
{
name = fsType;
value = (
);
},
{
name = glyphOrder;
value = (
.notdef,
space,
A,
Aacute,
Abreve,
Acircumflex,
Adieresis,
uni0226,
Agrave,
Amacron,
Aogonek,
Aring,
Atilde,
AE,
AEacute,
uni01E2,
B,
C,
Cacute,
Ccaron,
Ccedilla,
Ccircumflex,
Cdotaccent,
D,
Eth,
Dcaron,
Dcroat,
E,
Eacute,
Ebreve,
Ecaron,
Ecircumflex,
Edieresis,
Edotaccent,
Egrave,
Emacron,
Eogonek,
F,
G,
Gbreve,
Gcircumflex,
uni0122,
uni0122.ss06,
Gdotaccent,
H,
Hbar,
Hcircumflex,
I,
IJ,
Iacute,
Ibreve,
Icircumflex,
Idieresis,
Idotaccent,
uni1ECA,
Igrave,
Imacron,
Iogonek,
Itilde,
J,
Jcircumflex,
K,
uni0136,
uni0136.ss06,
L,
Lacute,
Lcaron,
Lcaron.ss06,
uni013B,
uni013B.ss06,
Ldot,
Lslash,
M,
N,
Nacute,
Ncaron,
uni0145,
uni0145.ss06,
Eng,
Ntilde,
O,
Oacute,
Obreve,
Ocircumflex,
Odieresis,
uni1ECC,
Ograve,
Ohungarumlaut,
Omacron,
Oslash,
Oslashacute,
Otilde,
OE,
P,
Thorn,
Q,
Q.ss04,
R,
Racute,
Rcaron,
uni0156,
uni0156.ss06,
S,
Sacute,
Scaron,
Scedilla,
Scircumflex,
uni0218,
uni0218.ss06,
uni1E9E,
T,
Tbar,
Tcaron,
uni0162,
uni021A,
uni021A.ss06,
U,
Uacute,
Ubreve,
Ucircumflex,
Udieresis,
uni1EE4,
Ugrave,
Uhungarumlaut,
Umacron,
Uogonek,
Uring,
Utilde,
V,
W,
Wacute,
Wcircumflex,
Wdieresis,
Wgrave,
X,
Y,
Yacute,
Ycircumflex,
Ydieresis,
Ygrave,
uni0232,
Z,
Zacute,
Zcaron,
Zdotaccent,
a,
a.salt,
a.ss02,
aacute,
aacute.salt,
aacute.ss02,
abreve,
abreve.salt,
abreve.ss02,
_154,
acircumflex,
acircumflex.salt,
acircumflex.ss02,
adieresis,
adieresis.salt,
adieresis.ss02,
uni0227,
uni0227.salt,
uni0227.ss02,
agrave,
agrave.salt,
agrave.ss02,
amacron,
amacron.salt,
amacron.ss02,
aogonek,
aogonek.salt,
aogonek.ss02,
aring,
aring.salt,
aring.ss02,
atilde,
atilde.salt,
atilde.ss02,
ae,
aeacute,
uni01E3,

glyphs = (
{
glyphname = .notdef;
layers = (
{
layerId = m01;
shapes = (
{
closed = 1;
nodes = (
(569,0,l),
(569,710,l),
(85,710,l),
(85,0,l)
);
},
{
closed = 1;
nodes = (
(161,642,l),
(493,642,l),
(493,69,l),
(161,69,l)
);
}
);
width = 653;
}
);
note = .notdef;
},
{
glyphname = A;
kernLeft = A;
layers = (
{
layerId = m01;
shapes = (
{
closed = 1;
nodes = (
(599,159,l),
(383,695,l),
(297,695,l),
(85,154,ls),
(68,109,o),
(55,77,o),
(45,57,cs),
(36,37,o),
(23,19,o),
(7,4,c),
(7,0,l),
(150,0,l),
(150,4,l),
(142,17,o),
(138,33,o),
(138,50,cs),
(138,74,o),
(146,108,o),
(163,153,cs),
(184,208,l),
(474,208,l),
(495,155,ls),
(512,112,o),
(521,76,o),
(521,48,cs),
(521,30,o),
(518,15,o),
(511,4,c),
(511,0,l),
(677,0,l),
(677,4,l),
(664,17,o),
(654,33,o),
(645,50,cs),
(636,68,o),
(625,95,o),
(610,132,cs)
);
},
{
closed = 1;
nodes = (
(325,573,l),
(329,573,l),
(447,277,l),
(211,277,l)
);
}
);
width = 683;
}
);
note = A;
unicode = 65;
},
{
glyphname = Aacute;
kernLeft = A;
layers = (
{
layerId = m01;
shapes = (
{
closed = 1;
nodes = (
(466,895,l),
(355,895,l),
(291,757,l),
(349,757,l),
(466,893,l)
);
},
{
closed = 1;
nodes = (
(599,159,l),
(383,695,l),
(297,695,l),
(85,154,ls),
(68,109,o),
(55,77,o),
(45,57,cs),
(36,37,o),
(23,19,o),
(7,4,c),
(7,0,l),
(150,0,l),
(150,4,l),
(142,17,o),
(138,33,o),
(138,50,cs),
(138,74,o),
(146,108,o),
(163,153,cs),
(184,208,l),
(474,208,l),
(495,155,ls),
(512,112,o),
(521,76,o),
(521,48,cs),
(521,30,o),
(518,15,o),
(511,4,c),
(511,0,l),
(677,0,l),
(677,4,l),
(664,17,o),
(654,33,o),
(645,50,cs),
(636,68,o),
(625,95,o),
(610,132,cs)
);
},
{
closed = 1;
nodes = (
(325,573,l),
(329,573,l),
(447,277,l),
(211,277,l)
);
}
);
width = 683;
}
);
note = Aacute;
unicode = 193;
},
{
glyphname = Abreve;
kernLeft = A;
layers = (
{
layerId = m01;
shapes = (
{
closed = 1;
nodes = (
(212,895,l),
(215,811,o),
(265,757,o),
(341,757,cs),
(417,757,o),
(468,810,o),
(471,895,c),
(414,895,l),
(410,848,o),
(385,822,o),
(341,822,cs),
(298,822,o),
(273,848,o),
(268,895,c)
);
},
{
closed = 1;
nodes = (
(599,159,l),
(383,695,l),
(297,695,l),
(85,154,ls),
(68,109,o),
(55,77,o),
(45,57,cs),
(36,37,o),
(23,19,o),
(7,4,c),
(7,0,l),
(150,0,l),
(150,4,l),
(142,17,o),
(138,33,o),
(138,50,cs),
(138,74,o),
(146,108,o),
(163,153,cs),
(184,208,l),
(474,208,l),
(495,155,ls),
(512,112,o),
(521,76,o),
(521,48,cs),
(521,30,o),
(518,15,o),
(511,4,c),
(511,0,l),
(677,0,l),
(677,4,l),
(664,17,o),
(654,33,o),
(645,50,cs),
(636,68,o),
(625,95,o),
(610,132,cs)
);
},
{
closed = 1;
nodes = (
(325,573,l),
(329,573,l),
(447,277,l),
(211,277,l)
);
}
);
width = 683;
}
);
note = Abreve;
unicode = 258;
},
{
glyphname = Acircumflex;
kernLeft = A;
layers = (
{
layerId = m01;
shapes = (
{
closed = 1;
nodes = (
(420,757,l),
(494,757,l),
(382,895,l),
(301,895,l),
(187,757,l),
(259,757,l),
(341,831,l)
);
},
{
closed = 1;
nodes = (
(599,159,l),
(383,695,l),
(297,695,l),
(85,154,ls),
(68,109,o),
(55,77,o),
(45,57,cs),
(36,37,o),
(23,19,o),
(7,4,c),
(7,0,l),
(150,0,l),
(150,4,l),
(142,17,o),
(138,33,o),
(138,50,cs),
(138,74,o),
(146,108,o),
(163,153,cs),
(184,208,l),
(474,208,l),
(495,155,ls),
(512,112,o),
(521,76,o),
(521,48,cs),
(521,30,o),
(518,15,o),
(511,4,c),
(511,0,l),
(677,0,l),
(677,4,l),
(664,17,o),
(654,33,o),
(645,50,cs),
(636,68,o),
(625,95,o),
(610,132,cs)
);
},
{
closed = 1;
nodes = (
(325,573,l),
(329,573,l),
(447,277,l),
(211,277,l)
);
}
);
width = 683;
}
);
note = Acircumflex;
unicode = 194;
},
{
glyphname = Adieresis;
kernLeft = A;
layers = (
{
layerId = m01;
shapes = (
{
closed = 1;
nodes = (
(183,792,o),
(210,764,o),
(246,764,cs),
(281,764,o),
(308,792,o),
(308,828,cs),
(308,863,o),
(279,891,o),
(246,891,cs),
(210,891,o),
(183,863,o),
(183,828,cs)
);
},
{
closed = 1;
nodes = (
(373,792,o),
(401,764,o),
(437,764,cs),
(472,764,o),
(498,792,o),
(498,828,cs),
(498,863,o),
(470,891,o),
(437,891,cs),
(401,891,o),
(373,863,o),
(373,828,cs)
);
},
{
closed = 1;
nodes = (
(599,159,l),
(383,695,l),
(297,695,l),
(85,154,ls),
(68,109,o),
(55,77,o),
(45,57,cs),
(36,37,o),
(23,19,o),
(7,4,c),
(7,0,l),
(150,0,l),
(150,4,l),
(142,17,o),
(138,33,o),
(138,50,cs),
(138,74,o),
(146,108,o),
(163,153,cs),
(184,208,l),
(474,208,l),
(495,155,ls),
(512,112,o),
(521,76,o),
(521,48,cs),
(521,30,o),
(518,15,o),
(511,4,c),
(511,0,l),
(677,0,l),
(677,4,l),
(664,17,o),
(654,33,o),
(645,50,cs),
(636,68,o),
(625,95,o),
(610,132,cs)
);
},
{
closed = 1;
nodes = (
(325,573,l),
(329,573,l),
(447,277,l),
(211,277,l)
);
}
);
width = 683;
}
);
note = Adieresis;
unicode = 196;
},
{
glyphname = uni0226;
kernLeft = A;
layers = (
{
layerId = m01;
shapes = (
{
closed = 1;
nodes = (
(277,791,o),
(306,761,o),
(343,761,cs),
(378,761,o),
(407,791,o),
(407,828,cs),
(407,863,o),
(378,892,o),
(343,892,cs),
(306,892,o),
(277,863,o),
(277,828,cs)
);
},
{
closed = 1;
nodes = (
(599,159,l),
(383,695,l),
(297,695,l),
(85,154,ls),
(68,109,o),
(55,77,o),
(45,57,cs),
(36,37,o),
(23,19,o),
(7,4,c),
(7,0,l),
(150,0,l),
(150,4,l),
(142,17,o),
(138,33,o),
(138,50,cs),
(138,74,o),
(146,108,o),
(163,153,cs),
(184,208,l),
(474,208,l),
(495,155,ls),
(512,112,o),
(521,76,o),
(521,48,cs),
(521,30,o),
(518,15,o),
(511,4,c),
(511,0,l),
(677,0,l),
(677,4,l),
(664,17,o),
(654,33,o),
(645,50,cs),
(636,68,o),
(625,95,o),
(610,132,cs)
);
},
{
closed = 1;
nodes = (
(325,573,l),
(329,573,l),
(447,277,l),
(211,277,l)
);
}
);
width = 683;
}
);
note = uni0226;
unicode = 550;
},
{
glyphname = Agrave;
kernLeft = A;
layers = (
{
layerId = m01;
shapes = (
{
closed = 1;
nodes = (
(326,895,l),
(217,895,l),
(217,893,l),
(330,757,l),
(391,757,l)
);
},
{
closed = 1;
nodes = (
(599,159,l),
(383,695,l),
(297,695,l),
(85,154,ls),
(68,109,o),
(55,77,o),
(45,57,cs),
(36,37,o),
(23,19,o),
(7,4,c),
(7,0,l),
(150,0,l),
(150,4,l),
(142,17,o),
(138,33,o),
(138,50,cs),
(138,74,o),
(146,108,o),
(163,153,cs),
(184,208,l),
(474,208,l),
(495,155,ls),
(512,112,o),
(521,76,o),
(521,48,cs),
(521,30,o),
(518,15,o),
(511,4,c),
(511,0,l),
(677,0,l),
(677,4,l),
(664,17,o),
(654,33,o),
(645,50,cs),
(636,68,o),
(625,95,o),
(610,132,cs)
);
},
{
closed = 1;
nodes = (
(325,573,l),
(329,573,l),
(447,277,l),
(211,277,l)
);
}
);
width = 683;
}
);
note = Agrave;
unicode = 192;
},
{
glyphname = Amacron;
kernLeft = A;
layers = (
{
layerId = m01;
shapes = (
{
closed = 1;
nodes = (
(186,843,l),
(186,783,l),
(494,783,l),
(494,843,l)
);
},
{
closed = 1;
nodes = (
(599,159,l),
(383,695,l),
(297,695,l),
(85,154,ls),
(68,109,o),
(55,77,o),
(45,57,cs),
(36,37,o),
(23,19,o),
(7,4,c),
(7,0,l),
(150,0,l),
(150,4,l),
(142,17,o),
(138,33,o),
(138,50,cs),
(138,74,o),
(146,108,o),
(163,153,cs),
(184,208,l),
(474,208,l),
(495,155,ls),
(512,112,o),
(521,76,o),
(521,48,cs),
(521,30,o),
(518,15,o),
(511,4,c),
(511,0,l),
(677,0,l),
(677,4,l),
(664,17,o),
(654,33,o),
(645,50,cs),
(636,68,o),
(625,95,o),
(610,132,cs)
);
},
{
closed = 1;
nodes = (
(325,573,l),
(329,573,l),
(447,277,l),
(211,277,l)
);
}
);
width = 683;
}
);
note = Amacron;
unicode = 256;
},
{
glyphname = Aogonek;
kernLeft = A;
layers = (
{
layerId = m01;
shapes = (
{
closed = 1;
nodes = (
(677,0,l),
(677,4,l),
(664,17,o),
(654,33,o),
(645,50,cs),
(636,68,o),
(625,95,o),
(610,132,cs),
(599,159,l),
(383,695,l),
(297,695,l),
(85,154,ls),
(68,109,o),
(55,77,o),
(45,57,cs),
(36,37,o),
(23,19,o),
(7,4,c),
(7,0,l),
(150,0,l),
(150,4,l),
(142,17,o),
(138,33,o),
(138,50,cs),
(138,74,o),
(146,108,o),
(163,153,cs),
(184,208,l),
(474,208,l),
(495,155,ls),
(512,112,o),
(521,76,o),
(521,48,cs),
(521,30,o),
(518,15,o),
(511,4,c),
(511,0,l),
(577,0,l),
(526,-25,o),
(489,-64,o),
(489,-113,cs),
(489,-166,o),
(530,-203,o),
(589,-203,cs),
(618,-203,o),
(643,-193,o),
(663,-173,c),
(654,-135,l),
(637,-146,o),
(620,-151,o),
(605,-151,cs),
(574,-151,o),
(554,-129,o),
(554,-98,cs),
(554,-61,o),
(587,-28,o),
(653,0,c)
);
},
{
closed = 1;
nodes = (
(325,573,l),
(329,573,l),
(447,277,l),
(211,277,l)
);
}
);
width = 683;
}
);
note = Aogonek;
unicode = 260;
},
{
glyphname = Aring;
kernLeft = A;
layers = (
{
layerId = m01;
shapes = (
{
closed = 1;
nodes = (
(235,778,o),
(281,733,o),
(340,733,cs),
(397,733,o),
(443,778,o),
(443,834,cs),
(443,889,o),
(397,934,o),
(340,934,cs),
(311,934,o),
(287,924,o),
(266,904,cs),
(245,885,o),
(235,861,o),
(235,834,cs)
);
},
{
closed = 1;
nodes = (
(292,862,o),
(313,882,o),
(340,882,cs),
(367,882,o),
(387,862,o),
(387,834,cs),
(387,805,o),
(367,785,o),
(340,785,cs),
(312,785,o),
(292,805,o),
(292,834,cs)
);
},
{
closed = 1;
nodes = (
(599,159,l),
(383,695,l),
(297,695,l),
(85,154,ls),
(68,109,o),
(55,77,o),
(45,57,cs),
(36,37,o),
(23,19,o),
(7,4,c),
(7,0,l),
(150,0,l),
(150,4,l),
(142,17,o),
(138,33,o),
(138,50,cs),
(138,74,o),
(146,108,o),
(163,153,cs),
(184,208,l),
(474,208,l),
(495,155,ls),
(512,112,o),
(521,76,o),
(521,48,cs),
(521,30,o),
(518,15,o),
(511,4,c),
(511,0,l),
(677,0,l),
(677,4,l),
(664,17,o),
(654,33,o),
(645,50,cs),
(636,68,o),
(625,95,o),
(610,132,cs)
);
},
{
closed = 1;
nodes = (
(325,573,l),
(329,573,l),
(447,277,l),
(211,277,l)
);
}
);
width = 683;
}
);
note = Aring;
unicode = 197;
},
{
glyphname = Atilde;
kernLeft = A;
layers = (
{
layerId = m01;
shapes = (
{
closed = 1;
nodes = (
(231,761,l),
(235,798,o),
(248,817,o),
(271,817,cs),
(287,817,o),
(298,812,o),
(315,800,cs),
(333,786,ls),
(358,766,o),
(381,755,o),
(410,755,cs),
(462,755,o),
(503,799,o),
(506,878,c),
(452,878,l),
(445,839,o),
(434,823,o),
(410,823,cs),
(394,823,o),
(385,827,o),
(366,840,cs),
(348,854,ls),
(321,874,o),
(300,884,o),
(272,884,cs),
(220,884,o),
(179,841,o),
(176,761,c)
);
},
{
closed = 1;
nodes = (
(599,159,l),
(383,695,l),
(297,695,l),
(85,154,ls),
(68,109,o),
(55,77,o),
(45,57,cs),
(36,37,o),
(23,19,o),
(7,4,c),
(7,0,l),
(150,0,l),
(150,4,l),
(142,17,o),
(138,33,o),
(138,50,cs),
(138,74,o),
(146,108,o),
(163,153,cs),
(184,208,l),
(474,208,l),
(495,155,ls),
(512,112,o),
(521,76,o),
(521,48,cs),
(521,30,o),
(518,15,o),
(511,4,c),
(511,0,l),
(677,0,l),
(677,4,l),
(664,17,o),
(654,33,o),
(645,50,cs),
(636,68,o),
(625,95,o),
(610,132,cs)
);
},
{
closed = 1;
nodes = (
(325,573,l),
(329,573,l),
(447,277,l),
(211,277,l)
);
}
);
width = 683;
}
);
note = Atilde;
unicode = 195;
},
{
glyphname = AE;
kernLeft = AE;
kernRight = AE;
layers = (
{
layerId = m01;
shapes = (
{
closed = 1;
nodes = (
(842,130,l),
(837,130,l),
(816,83,o),
(768,69,o),
(684,69,cs),
(512,69,l),
(512,318,l),
(626,318,ls),
(703,318,o),
(744,306,o),
(764,281,c),
(769,281,l),
(769,423,l),
(764,423,l),
(744,398,o),
(703,386,o),
(626,386,cs),
(512,386,l),
(512,626,l),
(668,626,ls),
(757,626,o),
(802,614,o),
(823,578,c),
(828,578,l),
(828,695,l),
(378,695,l),
(89,160,ls),
(48,84,o),
(20,40,o),
(-17,4,c),
(-17,0,l),
(127,0,l),
(127,4,l),
(124,12,o),
(123,21,o),
(123,31,cs),
(123,62,o),
(138,99,o),
(167,152,cs),
(197,208,l),
(415,208,l),
(415,152,ls),
(415,79,o),
(406,40,o),
(383,4,c),
(383,0,l),
(842,0,l)
);
},
{
closed = 1;
nodes = (
(410,608,l),
(415,608,l),
(415,277,l),
(234,277,l)
);
}
);
width = 886;
}
);
note = AE;
unicode = 198;
},
{
glyphname = AEacute;
kernLeft = AE;
kernRight = AE;
layers = (
{
layerId = m01;
shapes = (
{
closed = 1;
nodes = (
(727,895,l),
(616,895,l),
(552,757,l),
(610,757,l),
(727,893,l)
);
},
{
closed = 1;
nodes = (
(842,130,l),
(837,130,l),
(816,83,o),
(768,69,o),
(684,69,cs),
(512,69,l),
(512,318,l),
(626,318,ls),
(703,318,o),
(744,306,o),
(764,281,c),
(769,281,l),
(769,423,l),
(764,423,l),
(744,398,o),
(703,386,o),
(626,386,cs),
(512,386,l),
(512,626,l),
(668,626,ls),
(757,626,o),
(802,614,o),
(823,578,c),
(828,578,l),
(828,695,l),
(378,695,l),
(89,160,ls),
(48,84,o),
(20,40,o),
(-17,4,c),
(-17,0,l),
(127,0,l),
(127,4,l),
(124,12,o),
(123,21,o),
(123,31,cs),
(123,62,o),
(138,99,o),
(167,152,cs),
(197,208,l),
(415,208,l),
(415,152,ls),
(415,79,o),
(406,40,o),
(383,4,c),
(383,0,l),
(842,0,l)
);
},
{
closed = 1;
nodes = (
(410,608,l),
(415,608,l),
(415,277,l),
(234,277,l)
);
}
);
width = 886;
}
);
note = AEacute;
unicode = 508;
},
{
glyphname = uni01E2;
kernLeft = AE;
kernRight = AE;
layers = (
{
layerId = m01;
shapes = (
{
closed = 1;
nodes = (
(447,843,l),
(447,783,l),
(755,783,l),
(755,843,l)
);
},
{
closed = 1;
nodes = (
(842,130,l),
(837,130,l),
(816,83,o),
(768,69,o),
(684,69,cs),
(512,69,l),
(512,318,l),
(626,318,ls),
(703,318,o),
(744,306,o),
(764,281,c),
(769,281,l),
(769,423,l),
(764,423,l),
(744,398,o),
(703,386,o),
(626,386,cs),
(512,386,l),
(512,626,l),
(668,626,ls),
(757,626,o),
(802,614,o),
(823,578,c),
(828,578,l),
(828,695,l),
(378,695,l),
(89,160,ls),
(48,84,o),
(20,40,o),
(-17,4,c),
(-17,0,l),
(127,0,l),
(127,4,l),
(124,12,o),
(123,21,o),
(123,31,cs),
(123,62,o),
(138,99,o),
(167,152,cs),
(197,208,l),
(415,208,l),
(415,152,ls),
(415,79,o),
(406,40,o),
(383,4,c),
(383,0,l),
(842,0,l)
);
},
{
closed = 1;
nodes = (
(410,608,l),
(415,608,l),
(415,277,l),
(234,277,l)
);
}
);
width = 886;
}
);
note = uni01E2;
unicode = 482;
},
{
glyphname = B;
kernLeft = B;
kernRight = B;
layers = (
{
layerId = m01;
shapes = (
{
closed = 1;
nodes = (
(72,0,l),
(353,0,ls),
(513,0,o),
(606,86,o),
(606,192,cs),
(606,279,o),
(535,346,o),
(415,362,c),
(415,366,l),
(510,386,o),
(570,447,o),
(570,527,cs),
(570,630,o),
(485,695,o),
(329,695,cs),
(72,695,l),
(72,691,l),
(96,656,o),
(104,616,o),
(104,540,cs),
(104,155,ls),
(104,79,o),
(96,39,o),
(72,4,c)
);
},
{
closed = 1;
nodes = (
(202,395,l),
(202,628,l),
(313,628,ls),
(410,628,o),
(466,588,o),
(466,516,cs),
(466,436,o),
(412,395,o),
(312,395,cs)
);
},
{
closed = 1;
nodes = (
(202,328,l),
(315,328,ls),
(435,328,o),
(501,285,o),
(501,200,cs),
(501,112,o),
(433,67,o),
(321,67,cs),
(202,67,l)
);
}
);
width = 647;
}
);
note = B;
unicode = 66;
},
{
glyphname = C;
kernLeft = C;
kernRight = C;
layers = (
{
layerId = m01;
shapes = (
{
closed = 1;
nodes = (
(43,123,o),
(215,-15,o),
(406,-12,cs),
(503,-12,o),
(580,22,o),
(647,89,c),
(635,144,l),
(567,96,o),
(501,72,o),
(428,72,cs),
(272,72,o),
(154,173,o),
(154,355,cs),
(154,524,o),
(270,637,o),
(417,637,cs),
(493,637,o),
(564,602,o),
(609,538,c),
(614,538,l),
(614,656,l),
(553,690,o),
(486,707,o),
(411,707,cs),
(223,710,o),
(42,568,o),
(46,346,cs)
);
}
);
width = 673;
}
);
note = C;
unicode = 67;
},
{
glyphname = Cacute;
kernLeft = C;
kernRight = C;
layers = (
{
layerId = m01;
shapes = (
{
closed = 1;
nodes = (
(404,757,l),
(521,893,l),
(521,895,l),
(410,895,l),
(346,757,l)
);
},
{
closed = 1;
nodes = (
(43,123,o),
(215,-15,o),
(406,-12,cs),
(503,-12,o),
(580,22,o),
(647,89,c),
(635,144,l),
(567,96,o),
(501,72,o),
(428,72,cs),
(272,72,o),
(154,173,o),
(154,355,cs),
(154,524,o),
(270,637,o),
(417,637,cs),
(493,637,o),
(564,602,o),
(609,538,c),
(614,538,l),
(614,656,l),
(553,690,o),
(486,707,o),
(411,707,cs),
(223,710,o),
(42,568,o),
(46,346,cs)
);
}
);
width = 673;
}
);
note = Cacute;
unicode = 262;
},
{
glyphname = Ccaron;
kernLeft = C;
kernRight = C;
layers = (
{
layerId = m01;
shapes = (
{
closed = 1;
nodes = (
(475,894,l),
(393,820,l),
(313,894,l),
(239,894,l),
(352,756,l),
(433,756,l),
(546,894,l)
);
},
{
closed = 1;
nodes = (
(43,123,o),
(215,-15,o),
(406,-12,cs),
(503,-12,o),
(580,22,o),
(647,89,c),
(635,144,l),
(567,96,o),
(501,72,o),
(428,72,cs),
(272,72,o),
(154,173,o),
(154,355,cs),
(154,524,o),
(270,637,o),
(417,637,cs),
(493,637,o),
(564,602,o),
(609,538,c),
(614,538,l),
(614,656,l),
(553,690,o),
(486,707,o),
(411,707,cs),
(223,710,o),
(42,568,o),
(46,346,cs)
);
}
);
width = 673;
}
);
note = Ccaron;
unicode = 268;
},
{
glyphname = Ccedilla;
kernLeft = C;
kernRight = C;
layers = (
{
layerId = m01;
shapes = (
{
closed = 1;
nodes = (
(478,-73,o),
(445,-48,o),
(405,-48,cs),
(397,-48,o),
(390,-49,o),
(385,-50,c),
(383,-49,l),
(397,-12,l),
(406,-12,ls),
(503,-12,o),
(580,22,o),
(647,89,c),
(635,144,l),
(567,96,o),
(501,72,o),
(428,72,cs),
(272,72,o),
(154,173,o),
(154,355,cs),
(154,524,o),
(270,637,o),
(417,637,cs),
(493,637,o),
(564,602,o),
(609,538,c),
(614,538,l),
(614,656,l),
(553,690,o),
(486,707,o),
(411,707,cs),
(223,710,o),
(42,568,o),
(46,346,cs),
(46,140,o),
(184,11,o),
(358,-9,c),
(327,-92,l),
(329,-93,l),
(340,-86,o),
(353,-83,o),
(368,-83,cs),
(395,-83,o),
(412,-96,o),
(412,-117,cs),
(412,-140,o),
(392,-155,o),
(357,-155,cs),
(332,-155,o),
(308,-146,o),
(283,-127,c),
(274,-163,l),
(303,-190,o),
(336,-204,o),
(372,-204,cs),
(433,-204,o),
(478,-166,o),
(478,-117,cs)
);
}
);
width = 673;
}
);
note = Ccedilla;
unicode = 199;
},
{
glyphname = Ccircumflex;
kernLeft = C;
kernRight = C;
layers = (
{
layerId = m01;
shapes = (
{
closed = 1;
nodes = (
(314,757,l),
(396,831,l),
(475,757,l),
(549,757,l),
(437,895,l),
(356,895,l),
(242,757,l)
);
},
{
closed = 1;
nodes = (
(43,123,o),
(215,-15,o),
(406,-12,cs),
(503,-12,o),
(580,22,o),
(647,89,c),
(635,144,l),
(567,96,o),
(501,72,o),
(428,72,cs),
(272,72,o),
(154,173,o),
(154,355,cs),
(154,524,o),
(270,637,o),
(417,637,cs),
(493,637,o),
(564,602,o),
(609,538,c),
(614,538,l),
(614,656,l),
(553,690,o),
(486,707,o),
(411,707,cs),
(223,710,o),
(42,568,o),
(46,346,cs)
);
}
);
width = 673;
}
);
note = Ccircumflex;
unicode = 264;
},
{
glyphname = Cdotaccent;
kernLeft = C;
kernRight = C;
layers = (
{
layerId = m01;
shapes = (
{
closed = 1;
nodes = (
(331,791,o),
(360,761,o),
(397,761,cs),
(432,761,o),
(461,791,o),
(461,828,cs),
(461,863,o),
(432,892,o),
(397,892,cs),
(360,892,o),
(331,863,o),
(331,828,cs)
);
},
{
closed = 1;
nodes = (
(43,123,o),
(215,-15,o),
(406,-12,cs),
(503,-12,o),
(580,22,o),
(647,89,c),
(635,144,l),
(567,96,o),
(501,72,o),
(428,72,cs),
(272,72,o),
(154,173,o),
(154,355,cs),
(154,524,o),
(270,637,o),
(417,637,cs),
(493,637,o),
(564,602,o),
(609,538,c),
(614,538,l),
(614,656,l),
(553,690,o),
(486,707,o),
(411,707,cs),
(223,710,o),
(42,568,o),
(46,346,cs)
);
}
);
width = 673;
}
);
note = Cdotaccent;
unicode = 266;
},
{
glyphname = D;
kernLeft = B;
kernRight = D;
layers = (
{
layerId = m01;
shapes = (
{
closed = 1;
nodes = (
(105,159,ls),
(105,75,o),
(100,36,o),
(73,4,c),
(73,0,l),
(327,0,ls),
(552,0,o),
(701,141,o),
(701,348,cs),
(701,555,o),
(552,695,o),
(327,695,cs),
(73,695,l),
(73,691,l),
(96,655,o),
(105,616,o),
(105,540,cs)
);
},
{
closed = 1;
nodes = (
(203,67,l),
(203,628,l),
(305,628,ls),
(484,628,o),
(593,531,o),
(593,348,cs),
(593,164,o),
(482,67,o),
(305,67,cs)
);
}
);
width = 747;
}
);
note = D;
unicode = 68;
},
{
glyphname = Eth;
kernLeft = B;
kernRight = D;
layers = (
{
layerId = m01;
shapes = (
{
closed = 1;
nodes = (
(82,695,l),
(82,691,l),
(106,656,o),
(114,617,o),
(114,540,cs),
(114,389,l),
(24,389,l),
(24,325,l),
(114,325,l),
(114,159,ls),
(114,75,o),
(109,36,o),
(82,4,c),
(82,0,l),
(337,0,ls),
(558,-3,o),
(714,143,o),
(711,348,cs),
(711,555,o),
(561,695,o),
(337,695,cs)
);
},
{
closed = 1;
nodes = (
(212,67,l),
(212,325,l),
(354,325,l),
(354,389,l),
(212,389,l),
(212,628,l),
(314,628,ls),
(493,628,o),
(602,531,o),
(602,348,cs),
(602,164,o),
(491,67,o),
(314,67,cs)
);
}
);
width = 756;
}
);
note = Eth;
unicode = 208;
},
{
glyphname = Dcaron;
kernLeft = B;
kernRight = D;
layers = (
{
layerId = m01;
shapes = (
{
closed = 1;
nodes = (
(446,894,l),
(364,820,l),
(284,894,l),
(210,894,l),
(323,756,l),
(404,756,l),
(517,894,l)
);
},
{
closed = 1;
nodes = (
(105,159,ls),
(105,75,o),
(100,36,o),
(73,4,c),
(73,0,l),
(327,0,ls),
(552,0,o),
(701,141,o),
(701,348,cs),
(701,555,o),
(552,695,o),
(327,695,cs),
(73,695,l),
(73,691,l),
(96,655,o),
(105,616,o),
(105,540,cs)
);
},
{
closed = 1;
nodes = (
(203,67,l),
(203,628,l),
(305,628,ls),
(484,628,o),
(593,531,o),
(593,348,cs),
(593,164,o),
(482,67,o),
(305,67,cs)
);
}
);
width = 747;
}
);
note = Dcaron;
unicode = 270;
},
{
glyphname = Dcroat;
kernLeft = B;
kernRight = D;
layers = (
{
layerId = m01;
shapes = (
{
closed = 1;
nodes = (
(82,695,l),
(82,691,l),
(106,656,o),
(114,617,o),
(114,540,cs),
(114,389,l),
(24,389,l),
(24,325,l),
(114,325,l),
(114,159,ls),
(114,75,o),
(109,36,o),
(82,4,c),
(82,0,l),
(337,0,ls),
(558,-3,o),
(714,143,o),
(711,348,cs),
(711,555,o),
(561,695,o),
(337,695,cs)
);
},
{
closed = 1;
nodes = (
(212,67,l),
(212,325,l),
(354,325,l),
(354,389,l),
(212,389,l),
(212,628,l),
(314,628,ls),
(493,628,o),
(602,531,o),
(602,348,cs),
(602,164,o),
(491,67,o),
(314,67,cs)
);
}
);
width = 756;
}
);
note = Dcroat;
unicode = 272;
},
{
glyphname = E;
kernLeft = B;
kernRight = AE;
layers = (
{
layerId = m01;
shapes = (
{
closed = 1;
nodes = (
(571,130,l),
(566,130,l),
(541,83,o),
(497,69,o),
(414,69,cs),
(202,69,l),
(202,318,l),
(354,318,ls),
(431,318,o),
(469,308,o),
(493,281,c),
(498,281,l),
(498,423,l),
(493,423,l),
(468,398,o),
(431,386,o),
(354,386,cs),
(202,386,l),
(202,626,l),
(400,626,ls),
(488,626,o),
(528,614,o),
(553,578,c),
(558,578,l),
(558,695,l),
(72,695,l),
(72,691,l),
(97,659,o),
(104,618,o),
(104,541,cs),
(104,155,ls),
(104,78,o),
(96,39,o),
(72,4,c),
(72,0,l),
(571,0,l)
);
}
);
width = 615;
}
);
note = E;
unicode = 69;
},
{
glyphname = Eacute;
kernLeft = B;
kernRight = AE;
layers = (
{
layerId = m01;
shapes = (
{
closed = 1;
nodes = (
(343,757,l),
(460,893,l),
(460,895,l),
(349,895,l),
(285,757,l)
);
},
{
closed = 1;
nodes = (
(571,130,l),
(566,130,l),
(541,83,o),
(497,69,o),
(414,69,cs),
(202,69,l),
(202,318,l),
(354,318,ls),
(431,318,o),
(469,308,o),
(493,281,c),
(498,281,l),
(498,423,l),
(493,423,l),
(468,398,o),
(431,386,o),
(354,386,cs),
(202,386,l),
(202,626,l),
(400,626,ls),
(488,626,o),
(528,614,o),
(553,578,c),
(558,578,l),
(558,695,l),
(72,695,l),
(72,691,l),
(97,659,o),
(104,618,o),
(104,541,cs),
(104,155,ls),
(104,78,o),
(96,39,o),
(72,4,c),
(72,0,l),
(571,0,l)
);
}
);
width = 615;
}
);
note = Eacute;
unicode = 201;
},
{
glyphname = Ebreve;
kernLeft = B;
kernRight = AE;
layers = (
{
layerId = m01;
shapes = (
{
closed = 1;
nodes = (
(206,895,l),
(209,811,o),
(259,757,o),
(335,757,cs),
(411,757,o),
(462,810,o),
(465,895,c),
(408,895,l),
(404,848,o),
(379,822,o),
(335,822,cs),
(292,822,o),
(267,848,o),
(262,895,c)
);
},
{
closed = 1;
nodes = (
(571,130,l),
(566,130,l),
(541,83,o),
(497,69,o),
(414,69,cs),
(202,69,l),
(202,318,l),
(354,318,ls),
(431,318,o),
(469,308,o),
(493,281,c),
(498,281,l),
(498,423,l),
(493,423,l),
(468,398,o),
(431,386,o),
(354,386,cs),
(202,386,l),
(202,626,l),
(400,626,ls),
(488,626,o),
(528,614,o),
(553,578,c),
(558,578,l),
(558,695,l),
(72,695,l),
(72,691,l),
(97,659,o),
(104,618,o),
(104,541,cs),
(104,155,ls),
(104,78,o),
(96,39,o),
(72,4,c),
(72,0,l),
(571,0,l)
);
}
);
width = 615;
}
);
note = Ebreve;
unicode = 276;
},
{
glyphname = Ecaron;
kernLeft = B;
kernRight = AE;
layers = (
{
layerId = m01;
shapes = (
{
closed = 1;
nodes = (
(415,894,l),
(333,820,l),
(253,894,l),
(179,894,l),
(292,756,l),
(373,756,l),
(486,894,l)
);
},
{
closed = 1;
nodes = (
(571,130,l),
(566,130,l),
(541,83,o),
(497,69,o),
(414,69,cs),
(202,69,l),
(202,318,l),
(354,318,ls),
(431,318,o),
(469,308,o),
(493,281,c),
(498,281,l),
(498,423,l),
(493,423,l),
(468,398,o),
(431,386,o),
(354,386,cs),
(202,386,l),
(202,626,l),
(400,626,ls),
(488,626,o),
(528,614,o),
(553,578,c),
(558,578,l),
(558,695,l),
(72,695,l),
(72,691,l),
(97,659,o),
(104,618,o),
(104,541,cs),
(104,155,ls),
(104,78,o),
(96,39,o),
(72,4,c),
(72,0,l),
(571,0,l)
);
}
);
width = 615;
}
);
note = Ecaron;
unicode = 282;
},
{
glyphname = Ecircumflex;
kernLeft = B;
kernRight = AE;
layers = (
{
layerId = m01;
shapes = (
{
closed = 1;
nodes = (
(253,757,l),
(335,831,l),
(414,757,l),
(488,757,l),
(376,895,l),
(295,895,l),
(181,757,l)
);
},
{
closed = 1;
nodes = (
(571,130,l),
(566,130,l),
(541,83,o),
(497,69,o),
(414,69,cs),
(202,69,l),
(202,318,l),
(354,318,ls),
(431,318,o),
(469,308,o),
(493,281,c),
(498,281,l),
(498,423,l),
(493,423,l),
(468,398,o),
(431,386,o),
(354,386,cs),
(202,386,l),
(202,626,l),
(400,626,ls),
(488,626,o),
(528,614,o),
(553,578,c),
(558,578,l),
(558,695,l),
(72,695,l),
(72,691,l),
(97,659,o),
(104,618,o),
(104,541,cs),
(104,155,ls),
(104,78,o),
(96,39,o),
(72,4,c),
(72,0,l),
(571,0,l)
);
}
);
width = 615;
}
);
note = Ecircumflex;
unicode = 202;
},
{
glyphname = Edieresis;
kernLeft = B;
kernRight = AE;
layers = (
{
layerId = m01;
shapes = (
{
closed = 1;
nodes = (
(177,792,o),
(204,764,o),
(240,764,cs),
(275,764,o),
(302,792,o),
(302,828,cs),
(302,863,o),
(273,891,o),
(240,891,cs),
(204,891,o),
(177,863,o),
(177,828,cs)
);
},
{
closed = 1;
nodes = (
(367,792,o),
(395,764,o),
(431,764,cs),
(466,764,o),
(492,792,o),
(492,828,cs),
(492,863,o),
(464,891,o),
(431,891,cs),
(395,891,o),
(367,863,o),
(367,828,cs)
);
},
{
closed = 1;
nodes = (
(571,130,l),
(566,130,l),
(541,83,o),
(497,69,o),
(414,69,cs),
(202,69,l),
(202,318,l),
(354,318,ls),
(431,318,o),
(469,308,o),
(493,281,c),
(498,281,l),
(498,423,l),
(493,423,l),
(468,398,o),
(431,386,o),
(354,386,cs),
(202,386,l),
(202,626,l),
(400,626,ls),
(488,626,o),
(528,614,o),
(553,578,c),
(558,578,l),
(558,695,l),
(72,695,l),
(72,691,l),
(97,659,o),
(104,618,o),
(104,541,cs),
(104,155,ls),
(104,78,o),
(96,39,o),
(72,4,c),
(72,0,l),
(571,0,l)
);
}
);
width = 615;
}
);
note = Edieresis;
unicode = 203;
},
{
glyphname = Edotaccent;
kernLeft = B;
kernRight = AE;
layers = (
{
layerId = m01;
shapes = (
{
closed = 1;
nodes = (
(271,791,o),
(300,761,o),
(337,761,cs),
(372,761,o),
(401,791,o),
(401,828,cs),
(401,863,o),
(372,892,o),
(337,892,cs),
(300,892,o),
(271,863,o),
(271,828,cs)
);
},
{
closed = 1;
nodes = (
(571,130,l),
(566,130,l),
(541,83,o),
(497,69,o),
(414,69,cs),
(202,69,l),
(202,318,l),
(354,318,ls),
(431,318,o),
(469,308,o),
(493,281,c),
(498,281,l),
(498,423,l),
(493,423,l),
(468,398,o),
(431,386,o),
(354,386,cs),
(202,386,l),
(202,626,l),
(400,626,ls),
(488,626,o),
(528,614,o),
(553,578,c),
(558,578,l),
(558,695,l),
(72,695,l),
(72,691,l),
(97,659,o),
(104,618,o),
(104,541,cs),
(104,155,ls),
(104,78,o),
(96,39,o),
(72,4,c),
(72,0,l),
(571,0,l)
);
}
);
width = 615;
}
);
note = Edotaccent;
unicode = 278;
},
{
glyphname = Egrave;
kernLeft = B;
kernRight = AE;
layers = (
{
layerId = m01;
shapes = (
{
closed = 1;
nodes = (
(320,895,l),
(211,895,l),
(211,893,l),
(324,757,l),
(385,757,l)
);
},
{
closed = 1;
nodes = (
(571,130,l),
(566,130,l),
(541,83,o),
(497,69,o),
(414,69,cs),
(202,69,l),
(202,318,l),
(354,318,ls),
(431,318,o),
(469,308,o),
(493,281,c),
(498,281,l),
(498,423,l),
(493,423,l),
(468,398,o),
(431,386,o),
(354,386,cs),
(202,386,l),
(202,626,l),
(400,626,ls),
(488,626,o),
(528,614,o),
(553,578,c),
(558,578,l),
(558,695,l),
(72,695,l),
(72,691,l),
(97,659,o),
(104,618,o),
(104,541,cs),
(104,155,ls),
(104,78,o),
(96,39,o),
(72,4,c),
(72,0,l),
(571,0,l)
);
}
);
width = 615;
}
);
note = Egrave;
unicode = 200;
},
{
glyphname = Emacron;
kernLeft = B;
kernRight = AE;
layers = (
{
layerId = m01;
shapes = (
{
closed = 1;
nodes = (
(488,783,l),
(488,843,l),
(180,843,l),
(180,783,l)
);
},
{
closed = 1;
nodes = (
(571,130,l),
(566,130,l),
(541,83,o),
(497,69,o),
(414,69,cs),
(202,69,l),
(202,318,l),
(354,318,ls),
(431,318,o),
(469,308,o),
(493,281,c),
(498,281,l),
(498,423,l),
(493,423,l),
(468,398,o),
(431,386,o),
(354,386,cs),
(202,386,l),
(202,626,l),
(400,626,ls),
(488,626,o),
(528,614,o),
(553,578,c),
(558,578,l),
(558,695,l),
(72,695,l),
(72,691,l),
(97,659,o),
(104,618,o),
(104,541,cs),
(104,155,ls),
(104,78,o),
(96,39,o),
(72,4,c),
(72,0,l),
(571,0,l)
);
}
);
width = 615;
}
);
note = Emacron;
unicode = 274;
},
{
glyphname = Eogonek;
kernLeft = B;
kernRight = AE;
layers = (
{
layerId = m01;
shapes = (
{
closed = 1;
nodes = (
(572,-135,l),
(555,-146,o),
(538,-151,o),
(523,-151,cs),
(492,-151,o),
(472,-129,o),
(472,-98,cs),
(472,-61,o),
(505,-28,o),
(571,0,c),
(571,130,l),
(566,130,l),
(541,83,o),
(497,69,o),
(414,69,cs),
(202,69,l),
(202,318,l),
(354,318,ls),
(431,318,o),
(469,308,o),
(493,281,c),
(498,281,l),
(498,423,l),
(493,423,l),
(468,398,o),
(431,386,o),
(354,386,cs),
(202,386,l),
(202,626,l),
(400,626,ls),
(488,626,o),
(528,614,o),
(553,578,c),
(558,578,l),
(558,695,l),
(72,695,l),
(72,691,l),
(97,659,o),
(104,618,o),
(104,541,cs),
(104,155,ls),
(104,78,o),
(96,39,o),
(72,4,c),
(72,0,l),
(495,0,l),
(444,-25,o),
(407,-64,o),
(407,-113,cs),
(407,-166,o),
(448,-203,o),
(507,-203,cs),
(536,-203,o),
(561,-193,o),
(581,-173,c)
);
}
);
width = 615;
}
);
note = Eogonek;
unicode = 280;
},
{
glyphname = F;
kernLeft = B;
kernRight = F;
layers = (
{
layerId = m01;
shapes = (
{
closed = 1;
nodes = (
(72,0,l),
(238,0,l),
(238,4,l),
(209,36,o),
(202,72,o),
(202,149,cs),
(202,308,l),
(336,308,ls),
(415,308,o),
(455,297,o),
(474,272,c),
(479,272,l),
(479,413,l),
(474,413,l),
(455,386,o),
(415,376,o),
(336,376,cs),
(202,376,l),
(202,626,l),
(364,626,ls),
(452,626,o),
(496,613,o),
(517,578,c),
(522,578,l),
(522,695,l),
(72,695,l),
(72,691,l),
(97,658,o),
(104,622,o),
(104,547,cs),
(104,149,ls),
(104,73,o),
(97,37,o),
(72,4,c)
);
}
);
width = 557;
}
);
note = F;
unicode = 70;
},
{
glyphname = G;
kernLeft = C;
kernRight = G;
layers = (
{
layerId = m01;
shapes = (
{
closed = 1;
nodes = (
(499,364,l),
(499,360,l),
(531,321,o),
(541,286,o),
(541,213,cs),
(541,77,l),
(504,63,o),
(466,56,o),
(425,56,cs),
(259,56,o),
(154,175,o),
(154,343,cs),
(154,513,o),
(266,637,o),
(441,637,cs),
(532,637,o),
(606,602,o),
(651,538,c),
(656,538,l),
(656,656,l),
(595,690,o),
(521,707,o),
(434,707,cs),
(211,710,o),
(43,548,o),
(46,342,cs),
(46,135,o),
(195,-12,o),
(410,-12,cs),
(491,-12,o),
(568,10,o),
(639,54,c),
(639,213,ls),
(639,288,o),
(646,323,o),
(669,360,c),
(669,364,l)
);
}
);
width = 719;
}
);
note = G;
unicode = 71;
},
{
glyphname = Gbreve;
kernLeft = C;
kernRight = G;
layers = (
{
layerId = m01;
shapes = (
{
closed = 1;
nodes = (
(280,895,l),
(283,811,o),
(333,757,o),
(409,757,cs),
(485,757,o),
(536,810,o),
(539,895,c),
(482,895,l),
(478,848,o),
(453,822,o),
(409,822,cs),
(366,822,o),
(341,848,o),
(336,895,c)
);
},
{
closed = 1;
nodes = (
(499,364,l),
(499,360,l),
(531,321,o),
(541,286,o),
(541,213,cs),
(541,77,l),
(504,63,o),
(466,56,o),
(425,56,cs),
(259,56,o),
(154,175,o),
(154,343,cs),
(154,513,o),
(266,637,o),
(441,637,cs),
(532,637,o),
(606,602,o),
(651,538,c),
(656,538,l),
(656,656,l),
(595,690,o),
(521,707,o),
(434,707,cs),
(211,710,o),
(43,548,o),
(46,342,cs),
(46,135,o),
(195,-12,o),
(410,-12,cs),
(491,-12,o),
(568,10,o),
(639,54,c),
(639,213,ls),
(639,288,o),
(646,323,o),
(669,360,c),
(669,364,l)
);
}
);
width = 719;
}
);
note = Gbreve;
unicode = 286;
},
{
glyphname = Gcircumflex;
kernLeft = C;
kernRight = G;
layers = (
{
layerId = m01;
shapes = (
{
closed = 1;
nodes = (
(488,757,l),
(562,757,l),
(450,895,l),
(369,895,l),
(255,757,l),
(327,757,l),
(409,831,l)
);
},
{
closed = 1;
nodes = (
(499,364,l),
(499,360,l),
(531,321,o),
(541,286,o),
(541,213,cs),
(541,77,l),
(504,63,o),
(466,56,o),
(425,56,cs),
(259,56,o),
(154,175,o),
(154,343,cs),
(154,513,o),
(266,637,o),
(441,637,cs),
(532,637,o),
(606,602,o),
(651,538,c),
(656,538,l),
(656,656,l),
(595,690,o),
(521,707,o),
(434,707,cs),
(211,710,o),
(43,548,o),
(46,342,cs),
(46,135,o),
(195,-12,o),
(410,-12,cs),
(491,-12,o),
(568,10,o),
(639,54,c),
(639,213,ls),
(639,288,o),
(646,323,o),
(669,360,c),
(669,364,l)
);
}
);
width = 719;
}
);
note = Gcircumflex;
unicode = 284;
},
{
glyphname = uni0122;
kernLeft = C;
kernRight = G;
layers = (
{
layerId = m01;
shapes = (
{
closed = 1;
nodes = (
(499,364,l),
(499,360,l),
(531,321,o),
(541,286,o),
(541,213,cs),
(541,77,l),
(504,63,o),
(466,56,o),
(425,56,cs),
(259,56,o),
(154,175,o),
(154,343,cs),
(154,513,o),
(266,637,o),
(441,637,cs),
(532,637,o),
(606,602,o),
(651,538,c),
(656,538,l),
(656,656,l),
(595,690,o),
(521,707,o),
(434,707,cs),
(211,710,o),
(43,548,o),
(46,342,cs),
(46,135,o),
(195,-12,o),
(410,-12,cs),
(491,-12,o),
(568,10,o),
(639,54,c),
(639,213,ls),
(639,288,o),
(646,323,o),
(669,360,c),
(669,364,l)
);
},
{
closed = 1;
nodes = (
(472,-71,o),
(448,-44,o),
(412,-44,cs),
(380,-44,o),
(357,-68,o),
(357,-100,cs),
(357,-131,o),
(383,-153,o),
(415,-153,cs),
(417,-153,l),
(356,-257,l),
(403,-257,l),
(451,-169,ls),
(464,-144,o),
(472,-128,o),
(472,-108,cs)
);
}
);
width = 719;
}
);
note = uni0122;
unicode = 290;
},
{
glyphname = uni0122.ss06;
kernLeft = C;
kernRight = G;
layers = (
{
layerId = m01;
shapes = (
{
closed = 1;
nodes = (
(499,364,l),
(499,360,l),
(531,321,o),
(541,286,o),
(541,213,cs),
(541,77,l),
(504,63,o),
(466,56,o),
(425,56,cs),
(259,56,o),
(154,175,o),
(154,343,cs),
(154,513,o),
(266,637,o),
(441,637,cs),
(532,637,o),
(606,602,o),
(651,538,c),
(656,538,l),
(656,656,l),
(595,690,o),
(521,707,o),
(434,707,cs),
(211,710,o),
(43,548,o),
(46,342,cs),
(46,135,o),
(195,-12,o),
(410,-12,cs),
(491,-12,o),
(568,10,o),
(639,54,c),
(639,213,ls),
(639,288,o),
(646,323,o),
(669,360,c),
(669,364,l)
);
},
{
closed = 1;
nodes = (
(370,-257,l),
(465,-59,l),
(465,-57,l),
(370,-57,l),
(331,-257,l)
);
}
);
width = 719;
}
);
note = uni0122.ss06;
},
{
glyphname = Gdotaccent;
kernLeft = C;
kernRight = G;
layers = (
{
layerId = m01;
shapes = (
{
closed = 1;
nodes = (
(345,791,o),
(374,761,o),
(411,761,cs),
(446,761,o),
(475,791,o),
(475,828,cs),
(475,863,o),
(446,892,o),
(411,892,cs),
(374,892,o),
(345,863,o),
(345,828,cs)
);
},
{
closed = 1;
nodes = (
(499,364,l),
(499,360,l),
(531,321,o),
(541,286,o),
(541,213,cs),
(541,77,l),
(504,63,o),
(466,56,o),
(425,56,cs),
(259,56,o),
(154,175,o),
(154,343,cs),
(154,513,o),
(266,637,o),
(441,637,cs),
(532,637,o),
(606,602,o),
(651,538,c),
(656,538,l),
(656,656,l),
(595,690,o),
(521,707,o),
(434,707,cs),
(211,710,o),
(43,548,o),
(46,342,cs),
(46,135,o),
(195,-12,o),
(410,-12,cs),
(491,-12,o),
(568,10,o),
(639,54,c),
(639,213,ls),
(639,288,o),
(646,323,o),
(669,360,c),
(669,364,l)
);
}
);
width = 719;
}
);
note = Gdotaccent;
unicode = 288;
},
{
glyphname = H;
kernLeft = B;
kernRight = H;
layers = (
{
layerId = m01;
shapes = (
{
closed = 1;
nodes = (
(711,695,l),
(549,695,l),
(549,691,l),
(573,658,o),
(581,617,o),
(581,541,cs),
(581,387,l),
(202,387,l),
(202,541,ls),
(202,617,o),
(210,658,o),
(234,691,c),
(234,695,l),
(72,695,l),
(72,691,l),
(97,659,o),
(104,618,o),
(104,541,cs),
(104,154,ls),
(104,77,o),
(97,37,o),
(72,4,c),
(72,0,l),
(234,0,l),
(234,4,l),
(210,39,o),
(202,78,o),
(202,154,cs),
(202,318,l),
(581,318,l),
(581,154,ls),
(581,78,o),
(573,39,o),
(549,4,c),
(549,0,l),
(711,0,l),
(711,4,l),
(686,37,o),
(679,77,o),
(679,154,cs),
(679,541,ls),
(679,618,o),
(686,659,o),
(711,691,c)
);
}
);
width = 783;
}
);
note = H;
unicode = 72;
},
{
glyphname = Hbar;
kernLeft = B;
kernRight = H;
layers = (
{
layerId = m01;
shapes = (
{
closed = 1;
nodes = (
(779,506,l),
(779,568,l),
(692,568,l),
(695,628,o),
(701,662,o),
(724,691,c),
(724,695,l),
(562,695,l),
(562,691,l),
(583,662,o),
(591,627,o),
(594,568,c),
(215,568,l),
(218,627,o),
(226,662,o),
(247,691,c),
(247,695,l),
(85,695,l),
(85,691,l),
(108,662,o),
(114,628,o),
(117,568,c),
(30,568,l),
(30,506,l),
(117,506,l),
(117,154,ls),
(117,77,o),
(110,37,o),
(85,4,c),
(85,0,l),
(247,0,l),
(247,4,l),
(223,39,o),
(215,78,o),
(215,154,cs),
(215,318,l),
(594,318,l),
(594,154,ls),
(594,78,o),
(586,39,o),
(562,4,c),
(562,0,l),
(724,0,l),
(724,4,l),
(699,37,o),
(692,77,o),
(692,154,cs),
(692,506,l)
);
},
{
closed = 1;
nodes = (
(215,387,l),
(215,506,l),
(594,506,l),
(594,387,l)
);
}
);
width = 808;
}
);
note = Hbar;
unicode = 294;
},
{
glyphname = Hcircumflex;
kernLeft = B;
kernRight = H;
layers = (
{
layerId = m01;
shapes = (
{
closed = 1;
nodes = (
(473,757,l),
(547,757,l),
(435,895,l),
(354,895,l),
(240,757,l),
(312,757,l),
(394,831,l)
);
},
{
closed = 1;
nodes = (
(711,695,l),
(549,695,l),
(549,691,l),
(573,658,o),
(581,617,o),
(581,541,cs),
(581,387,l),
(202,387,l),
(202,541,ls),
(202,617,o),
(210,658,o),
(234,691,c),
(234,695,l),
(72,695,l),
(72,691,l),
(97,659,o),
(104,618,o),
(104,541,cs),
(104,154,ls),
(104,77,o),
(97,37,o),
(72,4,c),
(72,0,l),
(234,0,l),
(234,4,l),
(210,39,o),
(202,78,o),
(202,154,cs),
(202,318,l),
(581,318,l),
(581,154,ls),
(581,78,o),
(573,39,o),
(549,4,c),
(549,0,l),
(711,0,l),
(711,4,l),
(686,37,o),
(679,77,o),
(679,154,cs),
(679,541,ls),
(679,618,o),
(686,659,o),
(711,691,c)
);
}
);
width = 783;
}
);
note = Hcircumflex;
unicode = 292;
},
{
glyphname = I;
kernLeft = B;
kernRight = H;
layers = (
{
layerId = m01;
shapes = (
{
closed = 1;
nodes = (
(73,0,l),
(235,0,l),
(235,4,l),
(211,39,o),
(203,78,o),
(203,154,cs),
(203,541,ls),
(203,617,o),
(211,658,o),
(235,691,c),
(235,695,l),
(73,695,l),
(73,691,l),
(97,658,o),
(105,617,o),
(105,541,cs),
(105,154,ls),
(105,78,o),
(97,39,o),
(73,4,c)
);
}
);
width = 306;
}
);
note = I;
unicode = 73;
},
{
glyphname = IJ;
kernLeft = B;
kernRight = IJ;
layers = (
{
layerId = m01;
shapes = (
{
closed = 1;
nodes = (
(73,0,l),
(235,0,l),
(235,4,l),
(211,39,o),
(203,78,o),
(203,154,cs),
(203,541,ls),
(203,617,o),
(211,658,o),
(235,691,c),
(235,695,l),
(73,695,l),
(73,691,l),
(97,658,o),
(105,617,o),
(105,541,cs),
(105,154,ls),
(105,78,o),
(97,39,o),
(73,4,c)
);
},
{
closed = 1;
nodes = (
(318,34,l),
(354,6,o),
(407,-12,o),
(462,-12,cs),
(583,-12,o),
(675,67,o),
(675,221,cs),
(675,542,ls),
(675,618,o),
(683,658,o),
(707,691,c),
(707,695,l),
(546,695,l),
(546,691,l),
(570,658,o),
(577,617,o),
(577,542,cs),
(577,206,ls),
(577,105,o),
(522,62,o),
(442,62,cs),
(404,62,o),
(366,72,o),
(328,93,c)
);
}
);
width = 770;
}
);
note = IJ;
unicode = 306;
},
{
glyphname = Iacute;
kernLeft = B;
kernRight = H;
layers = (
{
layerId = m01;
shapes = (
{
closed = 1;
nodes = (
(163,757,l),
(280,893,l),
(280,895,l),
(169,895,l),
(105,757,l)
);
},
{
closed = 1;
nodes = (
(73,0,l),
(235,0,l),
(235,4,l),
(211,39,o),
(203,78,o),
(203,154,cs),
(203,541,ls),
(203,617,o),
(211,658,o),
(235,691,c),
(235,695,l),
(73,695,l),
(73,691,l),
(97,658,o),
(105,617,o),
(105,541,cs),
(105,154,ls),
(105,78,o),
(97,39,o),
(73,4,c)
);
}
);
width = 306;
}
);
note = Iacute;
unicode = 205;
},
{
glyphname = Ibreve;
kernLeft = B;
kernRight = H;
layers = (
{
layerId = m01;
shapes = (
{
closed = 1;
nodes = (
(25,895,l),
(28,811,o),
(78,757,o),
(154,757,cs),
(230,757,o),
(281,810,o),
(284,895,c),
(227,895,l),
(223,848,o),
(198,822,o),
(154,822,cs),
(111,822,o),
(86,848,o),
(81,895,c)
);
},
{
closed = 1;
nodes = (
(73,0,l),
(235,0,l),
(235,4,l),
(211,39,o),
(203,78,o),
(203,154,cs),
(203,541,ls),
(203,617,o),
(211,658,o),
(235,691,c),
(235,695,l),
(73,695,l),
(73,691,l),
(97,658,o),
(105,617,o),
(105,541,cs),
(105,154,ls),
(105,78,o),
(97,39,o),
(73,4,c)
);
}
);
width = 306;
}
);
note = Ibreve;
unicode = 300;
},
{
glyphname = Icircumflex;
kernLeft = B;
kernRight = H;
layers = (
{
layerId = m01;
shapes = (
{
closed = 1;
nodes = (
(73,757,l),
(155,831,l),
(234,757,l),
(308,757,l),
(196,895,l),
(115,895,l),
(1,757,l)
);
},
{
closed = 1;
nodes = (
(73,0,l),
(235,0,l),
(235,4,l),
(211,39,o),
(203,78,o),
(203,154,cs),
(203,541,ls),
(203,617,o),
(211,658,o),
(235,691,c),
(235,695,l),
(73,695,l),
(73,691,l),
(97,658,o),
(105,617,o),
(105,541,cs),
(105,154,ls),
(105,78,o),
(97,39,o),
(73,4,c)
);
}
);
width = 306;
}
);
note = Icircumflex;
unicode = 206;
},
{
glyphname = Idieresis;
kernLeft = B;
kernRight = H;
layers = (
{
layerId = m01;
shapes = (
{
closed = 1;
nodes = (
(-4,792,o),
(23,764,o),
(59,764,cs),
(94,764,o),
(121,792,o),
(121,828,cs),
(121,863,o),
(92,891,o),
(59,891,cs),
(23,891,o),
(-4,863,o),
(-4,828,cs)
);
},
{
closed = 1;
nodes = (
(186,792,o),
(214,764,o),
(250,764,cs),
(285,764,o),
(311,792,o),
(311,828,cs),
(311,863,o),
(283,891,o),
(250,891,cs),
(214,891,o),
(186,863,o),
(186,828,cs)
);
},
{
closed = 1;
nodes = (
(73,0,l),
(235,0,l),
(235,4,l),
(211,39,o),
(203,78,o),
(203,154,cs),
(203,541,ls),
(203,617,o),
(211,658,o),
(235,691,c),
(235,695,l),
(73,695,l),
(73,691,l),
(97,658,o),
(105,617,o),
(105,541,cs),
(105,154,ls),
(105,78,o),
(97,39,o),
(73,4,c)
);
}
);
width = 306;
}
);
note = Idieresis;
unicode = 207;
},
{
glyphname = Idotaccent;
kernLeft = B;
kernRight = H;
layers = (
{
layerId = m01;
shapes = (
{
closed = 1;
nodes = (
(90,791,o),
(119,761,o),
(156,761,cs),
(191,761,o),
(220,791,o),
(220,828,cs),
(220,863,o),
(191,892,o),
(156,892,cs),
(119,892,o),
(90,863,o),
(90,828,cs)
);
},
{
closed = 1;
nodes = (
(73,0,l),
(235,0,l),
(235,4,l),
(211,39,o),
(203,78,o),
(203,154,cs),
(203,541,ls),
(203,617,o),
(211,658,o),
(235,691,c),
(235,695,l),
(73,695,l),
(73,691,l),
(97,658,o),
(105,617,o),
(105,541,cs),
(105,154,ls),
(105,78,o),
(97,39,o),
(73,4,c)
);
}
);
width = 306;
}
);
note = Idotaccent;
unicode = 304;
},
{
glyphname = uni1ECA;
kernLeft = B;
kernRight = H;
layers = (
{
layerId = m01;
shapes = (
{
closed = 1;
nodes = (
(73,0,l),
(235,0,l),
(235,4,l),
(211,39,o),
(203,78,o),
(203,154,cs),
(203,541,ls),
(203,617,o),
(211,658,o),
(235,691,c),
(235,695,l),
(73,695,l),
(73,691,l),
(97,658,o),
(105,617,o),
(105,541,cs),
(105,154,ls),
(105,78,o),
(97,39,o),
(73,4,c)
);
},
{
closed = 1;
nodes = (
(87,-174,o),
(116,-204,o),
(153,-204,cs),
(188,-204,o),
(217,-174,o),
(217,-137,cs),
(217,-102,o),
(188,-73,o),
(153,-73,cs),
(116,-73,o),
(87,-102,o),
(87,-137,cs)
);
}
);
width = 306;
}
);
note = uni1ECA;
unicode = 7882;
},
{
glyphname = Igrave;
kernLeft = B;
kernRight = H;
layers = (
{
layerId = m01;
shapes = (
{
closed = 1;
nodes = (
(139,895,l),
(30,895,l),
(30,893,l),
(143,757,l),
(204,757,l)
);
},
{
closed = 1;
nodes = (
(73,0,l),
(235,0,l),
(235,4,l),
(211,39,o),
(203,78,o),
(203,154,cs),
(203,541,ls),
(203,617,o),
(211,658,o),
(235,691,c),
(235,695,l),
(73,695,l),
(73,691,l),
(97,658,o),
(105,617,o),
(105,541,cs),
(105,154,ls),
(105,78,o),
(97,39,o),
(73,4,c)
);
}
);
width = 306;
}
);
note = Igrave;
unicode = 204;
},
{
glyphname = Imacron;
kernLeft = B;
kernRight = H;
layers = (
{
layerId = m01;
shapes = (
{
closed = 1;
nodes = (
(308,783,l),
(308,843,l),
(0,843,l),
(0,783,l)
);
},
{
closed = 1;
nodes = (
(73,0,l),
(235,0,l),
(235,4,l),
(211,39,o),
(203,78,o),
(203,154,cs),
(203,541,ls),
(203,617,o),
(211,658,o),
(235,691,c),
(235,695,l),
(73,695,l),
(73,691,l),
(97,658,o),
(105,617,o),
(105,541,cs),
(105,154,ls),
(105,78,o),
(97,39,o),
(73,4,c)
);
}
);
width = 306;
}
);
note = Imacron;
unicode = 298;
},
{
glyphname = Iogonek;
kernLeft = B;
kernRight = H;
layers = (
{
layerId = m01;
shapes = (
{
closed = 1;
nodes = (
(235,695,l),
(73,695,l),
(73,691,l),
(97,658,o),
(105,617,o),
(105,541,cs),
(105,154,ls),
(105,78,o),
(97,39,o),
(73,4,c),
(73,0,l),
(130,0,l),
(79,-25,o),
(42,-64,o),
(42,-113,cs),
(42,-166,o),
(83,-203,o),
(142,-203,cs),
(171,-203,o),
(196,-193,o),
(216,-173,c),
(207,-135,l),
(190,-146,o),
(173,-151,o),
(158,-151,cs),
(127,-151,o),
(107,-129,o),
(107,-98,cs),
(107,-61,o),
(140,-28,o),
(206,0,c),
(235,0,l),
(235,4,l),
(211,39,o),
(203,78,o),
(203,154,cs),
(203,541,ls),
(203,617,o),
(211,658,o),
(235,691,c)
);
}
);
width = 306;
}
);
note = Iogonek;
unicode = 302;
},
{
glyphname = Itilde;
kernLeft = B;
kernRight = H;
layers = (
{
layerId = m01;
shapes = (
{
closed = 1;
nodes = (
(146,786,ls),
(171,766,o),
(194,755,o),
(223,755,cs),
(275,755,o),
(316,799,o),
(319,878,c),
(265,878,l),
(258,839,o),
(247,823,o),
(223,823,cs),
(207,823,o),
(198,827,o),
(179,840,cs),
(161,854,ls),
(134,874,o),
(113,884,o),
(85,884,cs),
(33,884,o),
(-8,841,o),
(-11,761,c),
(44,761,l),
(48,798,o),
(61,817,o),
(84,817,cs),
(100,817,o),
(111,812,o),
(128,800,cs)
);
},
{
closed = 1;
nodes = (
(73,0,l),
(235,0,l),
(235,4,l),
(211,39,o),
(203,78,o),
(203,154,cs),
(203,541,ls),
(203,617,o),
(211,658,o),
(235,691,c),
(235,695,l),
(73,695,l),
(73,691,l),
(97,658,o),
(105,617,o),
(105,541,cs),
(105,154,ls),
(105,78,o),
(97,39,o),
(73,4,c)
);
}
);
width = 306;
}
);
note = Itilde;
unicode = 296;
},
{
glyphname = J;
kernLeft = J;
kernRight = IJ;
layers = (
{
layerId = m01;
shapes = (
{
closed = 1;
nodes = (
(12,34,l),
(48,6,o),
(101,-12,o),
(156,-12,cs),
(277,-12,o),
(369,67,o),
(369,221,cs),
(369,542,ls),
(369,618,o),
(377,658,o),
(401,691,c),
(401,695,l),
(240,695,l),
(240,691,l),
(264,658,o),
(271,617,o),
(271,542,cs),
(271,206,ls),
(271,105,o),
(216,62,o),
(136,62,cs),
(98,62,o),
(60,72,o),
(22,93,c)
);
}
);
width = 464;
}
);
note = J;
unicode = 74;
},
{
glyphname = Jcircumflex;
kernLeft = J;
kernRight = IJ;
layers = (
{
layerId = m01;
shapes = (
{
closed = 1;
nodes = (
(239,757,l),
(321,831,l),
(400,757,l),
(474,757,l),
(362,895,l),
(281,895,l),
(167,757,l)
);
},
{
closed = 1;
nodes = (
(12,34,l),
(48,6,o),
(101,-12,o),
(156,-12,cs),
(277,-12,o),
(369,67,o),
(369,221,cs),
(369,542,ls),
(369,618,o),
(377,658,o),
(401,691,c),
(401,695,l),
(240,695,l),
(240,691,l),
(264,658,o),
(271,617,o),
(271,542,cs),
(271,206,ls),
(271,105,o),
(216,62,o),
(136,62,cs),
(98,62,o),
(60,72,o),
(22,93,c)
);
}
);
width = 464;
}
);
note = Jcircumflex;
unicode = 308;
},
{
glyphname = K;
kernLeft = B;
kernRight = K;
layers = (
{
layerId = m01;
shapes = (
{
closed = 1;
nodes = (
(355,403,l),
(497,552,ls),
(532,588,o),
(561,616,o),
(583,636,cs),
(605,656,o),
(630,674,o),
(657,691,c),
(657,695,l),
(488,695,l),
(488,691,ls),
(488,656,o),
(470,623,o),
(422,574,cs),
(205,343,l),
(201,343,l),
(201,541,ls),
(201,617,o),
(209,658,o),
(233,691,c),
(233,695,l),
(72,695,l),
(72,691,l),
(97,659,o),
(104,618,o),
(104,541,cs),
(104,154,ls),
(104,77,o),
(97,37,o),
(72,4,c),
(72,0,l),
(234,0,l),
(234,4,l),
(209,37,o),
(201,78,o),
(201,154,cs),
(201,242,l),
(288,333,l),
(557,0,l),
(687,0,l),
(687,3,l)
);
}
);
width = 678;
}
);
note = K;
unicode = 75;
},
{
glyphname = uni0136;
kernLeft = B;
kernRight = K;
layers = (
{
layerId = m01;
shapes = (
{
closed = 1;
nodes = (
(355,403,l),
(497,552,ls),
(532,588,o),
(561,616,o),
(583,636,cs),
(605,656,o),
(630,674,o),
(657,691,c),
(657,695,l),
(488,695,l),
(488,691,ls),
(488,656,o),
(470,623,o),
(422,574,cs),
(205,343,l),
(201,343,l),
(201,541,ls),
(201,617,o),
(209,658,o),
(233,691,c),
(233,695,l),
(72,695,l),
(72,691,l),
(97,659,o),
(104,618,o),
(104,541,cs),
(104,154,ls),
(104,77,o),
(97,37,o),
(72,4,c),
(72,0,l),
(234,0,l),
(234,4,l),
(209,37,o),
(201,78,o),
(201,154,cs),
(201,242,l),
(288,333,l),
(557,0,l),
(687,0,l),
(687,3,l)
);
},
{
closed = 1;
nodes = (
(427,-71,o),
(403,-44,o),
(367,-44,cs),
(335,-44,o),
(312,-68,o),
(312,-100,cs),
(312,-131,o),
(338,-153,o),
(370,-153,cs),
(372,-153,l),
(311,-257,l),
(358,-257,l),
(406,-169,ls),
(419,-144,o),
(427,-128,o),
(427,-108,cs)
);
}
);
width = 678;
}
);
note = uni0136;
unicode = 310;
},
{
glyphname = uni0136.ss06;
kernLeft = B;
kernRight = K;
layers = (
{
layerId = m01;
shapes = (
{
closed = 1;
nodes = (
(355,403,l),
(497,552,ls),
(532,588,o),
(561,616,o),
(583,636,cs),
(605,656,o),
(630,674,o),
(657,691,c),
(657,695,l),
(488,695,l),
(488,691,ls),
(488,656,o),
(470,623,o),
(422,574,cs),
(205,343,l),
(201,343,l),
(201,541,ls),
(201,617,o),
(209,658,o),
(233,691,c),
(233,695,l),
(72,695,l),
(72,691,l),
(97,659,o),
(104,618,o),
(104,541,cs),
(104,154,ls),
(104,77,o),
(97,37,o),
(72,4,c),
(72,0,l),
(234,0,l),
(234,4,l),
(209,37,o),
(201,78,o),
(201,154,cs),
(201,242,l),
(288,333,l),
(557,0,l),
(687,0,l),
(687,3,l)
);
},
{
closed = 1;
nodes = (
(326,-257,l),
(421,-59,l),
(421,-57,l),
(326,-57,l),
(287,-257,l)
);
}
);
width = 678;
}
);
note = uni0136.ss06;
},
{
glyphname = L;
kernLeft = B;
kernRight = L;
layers = (
{
layerId = m01;
shapes = (
{
closed = 1;
nodes = (
(72,0,l),
(539,0,l),
(539,141,l),
(534,141,l),
(510,85,o),
(466,69,o),
(379,69,cs),
(202,69,l),
(202,541,ls),
(202,617,o),
(209,658,o),
(234,691,c),
(234,695,l),
(72,695,l),
(72,691,l),
(97,658,o),
(104,617,o),
(104,541,cs),
(104,149,ls),
(104,78,o),
(95,36,o),
(72,4,c)
);
}
);
width = 560;
}
);
note = L;
unicode = 76;
},
{
glyphname = Lacute;
kernLeft = B;
kernRight = L;
layers = (
{
layerId = m01;
shapes = (
{
closed = 1;
nodes = (
(164,757,l),
(281,893,l),
(281,895,l),
(170,895,l),
(106,757,l)
);
},
{
closed = 1;
nodes = (
(72,0,l),
(539,0,l),
(539,141,l),
(534,141,l),
(510,85,o),
(466,69,o),
(379,69,cs),
(202,69,l),
(202,541,ls),
(202,617,o),
(209,658,o),
(234,691,c),
(234,695,l),
(72,695,l),
(72,691,l),
(97,658,o),
(104,617,o),
(104,541,cs),
(104,149,ls),
(104,78,o),
(95,36,o),
(72,4,c)
);
}
);
width = 560;
}
);
note = Lacute;
unicode = 313;
},
{
glyphname = Lcaron;
kernLeft = B;
kernRight = L;
layers = (
{
layerId = m01;
shapes = (
{
closed = 1;
nodes = (
(371,502,l),
(417,585,ls),
(430,607,o),
(436,626,o),
(436,643,cs),
(436,679,o),
(413,704,o),
(380,704,cs),
(349,704,o),
(328,680,o),
(328,651,cs),
(328,620,o),
(352,600,o),
(383,600,cs),
(385,600,l),
(327,502,l)
);
},
{
closed = 1;
nodes = (
(539,141,l),
(534,141,l),
(510,85,o),
(466,69,o),
(379,69,cs),
(202,69,l),
(202,541,ls),
(202,617,o),
(209,658,o),
(234,691,c),
(234,695,l),
(72,695,l),
(72,691,l),
(97,658,o),
(104,617,o),
(104,541,cs),
(104,149,ls),
(104,78,o),
(95,36,o),
(72,4,c),
(72,0,l),
(539,0,l)
);
}
);
width = 560;
}
);
note = Lcaron;
unicode = 317;
},
{
glyphname = Lcaron.ss06;
kernLeft = B;
kernRight = L;
layers = (
{
layerId = m01;
shapes = (
{
closed = 1;
nodes = (
(72,0,l),
(539,0,l),
(539,141,l),
(534,141,l),
(510,85,o),
(466,69,o),
(379,69,cs),
(202,69,l),
(202,541,ls),
(202,617,o),
(209,658,o),
(234,691,c),
(234,695,l),
(72,695,l),
(72,691,l),
(97,658,o),
(104,617,o),
(104,541,cs),
(104,149,ls),
(104,78,o),
(95,36,o),
(72,4,c)
);
},
{
closed = 1;
nodes = (
(360,505,l),
(450,693,l),
(450,695,l),
(359,695,l),
(323,505,l)
);
}
);
width = 561;
}
);
note = Lcaron.ss06;
},
{
glyphname = uni013B;
kernLeft = B;
kernRight = L;
layers = (
{
layerId = m01;
shapes = (
{
closed = 1;
nodes = (
(539,141,l),
(534,141,l),
(510,85,o),
(466,69,o),
(379,69,cs),
(202,69,l),
(202,541,ls),
(202,617,o),
(209,658,o),
(234,691,c),
(234,695,l),
(72,695,l),
(72,691,l),
(97,658,o),
(104,617,o),
(104,541,cs),
(104,149,ls),
(104,78,o),
(95,36,o),
(72,4,c),
(72,0,l),
(539,0,l)
);
},
{
closed = 1;
nodes = (
(376,-71,o),
(352,-44,o),
(316,-44,cs),
(284,-44,o),
(261,-68,o),
(261,-100,cs),
(261,-131,o),
(287,-153,o),
(319,-153,cs),
(321,-153,l),
(260,-257,l),
(307,-257,l),
(355,-169,ls),
(368,-144,o),
(376,-128,o),
(376,-108,cs)
);
}
);
width = 560;
}
);
note = uni013B;
unicode = 315;
},
{
glyphname = uni013B.ss06;
kernLeft = B;
kernRight = L;
layers = (
{
layerId = m01;
shapes = (
{
closed = 1;
nodes = (
(72,0,l),
(539,0,l),
(539,141,l),
(534,141,l),
(510,85,o),
(466,69,o),
(379,69,cs),
(202,69,l),
(202,541,ls),
(202,617,o),
(209,658,o),
(234,691,c),
(234,695,l),
(72,695,l),
(72,691,l),
(97,658,o),
(104,617,o),
(104,541,cs),
(104,149,ls),
(104,78,o),
(95,36,o),
(72,4,c)
);
},
{
closed = 1;
nodes = (
(275,-257,l),
(370,-59,l),
(370,-57,l),
(275,-57,l),
(236,-257,l)
);
}
);
width = 560;
}
);
note = uni013B.ss06;
},
{
glyphname = Lslash;
kernLeft = Lslash;
kernRight = L;
layers = (
{
layerId = m01;
shapes = (
{
closed = 1;
nodes = (
(570,141,l),
(565,141,l),
(541,84,o),
(497,69,o),
(410,69,cs),
(233,69,l),
(233,283,l),
(422,390,l),
(422,465,l),
(233,358,l),
(233,541,ls),
(233,618,o),
(240,658,o),
(264,691,c),
(264,695,l),
(103,695,l),
(103,691,l),
(127,658,o),
(135,616,o),
(135,541,cs),
(135,302,l),
(41,249,l),
(41,174,l),
(135,227,l),
(135,149,ls),
(135,78,o),
(126,36,o),
(103,4,c),
(103,0,l),
(570,0,l)
);
}
);
width = 590;
}
);
note = Lslash;
unicode = 321;
},
{
glyphname = M;
kernLeft = B;
kernRight = H;
layers = (
{
layerId = m01;
shapes = (
{
closed = 1;
nodes = (
(422,0,l),
(505,0,l),
(736,586,l),
(741,586,l),
(741,155,ls),
(741,78,o),
(734,37,o),
(709,4,c),
(709,0,l),
(870,0,l),
(870,4,l),
(846,37,o),
(839,78,o),
(839,155,cs),
(839,542,ls),
(839,617,o),
(846,659,o),
(870,691,c),
(870,695,l),
(706,695,l),
(478,121,l),
(474,121,l),
(242,695,l),
(72,695,l),
(72,691,l),
(97,659,o),
(104,618,o),
(104,542,cs),
(104,155,ls),
(104,78,o),
(97,37,o),
(72,4,c),
(72,0,l),
(212,0,l),
(212,4,l),
(188,37,o),
(180,79,o),
(180,155,cs),
(180,587,l),
(185,587,l)
);
}
);
width = 942;
}
);
note = M;
unicode = 77;
},
{
glyphname = N;
kernLeft = N;
kernRight = N;
layers = (
{
layerId = m01;
shapes = (
{
closed = 1;
nodes = (
(72,0,l),
(212,0,l),
(212,4,l),
(188,37,o),
(180,79,o),
(180,155,cs),
(180,579,l),
(185,579,l),
(553,0,l),
(657,0,l),
(657,541,ls),
(657,617,o),
(665,658,o),
(689,691,c),
(689,695,l),
(549,695,l),
(549,691,l),
(574,659,o),
(581,618,o),
(581,541,cs),
(581,140,l),
(576,140,l),
(225,695,l),
(80,695,l),
(80,693,l),
(103,656,l),
(103,155,ls),
(103,78,o),
(96,37,o),
(72,4,c)
);
}
);
width = 758;
}
);
note = N;
unicode = 78;
},
{
glyphname = Nacute;
kernLeft = N;
kernRight = N;
layers = (
{
layerId = m01;
shapes = (
{
closed = 1;
nodes = (
(397,757,l),
(514,893,l),
(514,895,l),
(403,895,l),
(339,757,l)
);
},
{
closed = 1;
nodes = (
(72,0,l),
(212,0,l),
(212,4,l),
(188,37,o),
(180,79,o),
(180,155,cs),
(180,579,l),
(185,579,l),
(553,0,l),
(657,0,l),
(657,541,ls),
(657,617,o),
(665,658,o),
(689,691,c),
(689,695,l),
(549,695,l),
(549,691,l),
(574,659,o),
(581,618,o),
(581,541,cs),
(581,140,l),
(576,140,l),
(225,695,l),
(80,695,l),
(80,693,l),
(103,656,l),
(103,155,ls),
(103,78,o),
(96,37,o),
(72,4,c)
);
}
);
width = 758;
}
);
note = Nacute;
unicode = 323;
},
{
glyphname = Ncaron;
kernLeft = N;
kernRight = N;
layers = (
{
layerId = m01;
shapes = (
{
closed = 1;
nodes = (
(468,894,l),
(386,820,l),
(306,894,l),
(232,894,l),
(345,756,l),
(426,756,l),
(539,894,l)
);
},
{
closed = 1;
nodes = (
(72,0,l),
(212,0,l),
(212,4,l),
(188,37,o),
(180,79,o),
(180,155,cs),
(180,579,l),
(185,579,l),
(553,0,l),
(657,0,l),
(657,541,ls),
(657,617,o),
(665,658,o),
(689,691,c),
(689,695,l),
(549,695,l),
(549,691,l),
(574,659,o),
(581,618,o),
(581,541,cs),
(581,140,l),
(576,140,l),
(225,695,l),
(80,695,l),
(80,693,l),
(103,656,l),
(103,155,ls),
(103,78,o),
(96,37,o),
(72,4,c)
);
}
);
width = 758;
}
);
note = Ncaron;
unicode = 327;
},
{
glyphname = uni0145;
kernLeft = N;
kernRight = N;
layers = (
{
layerId = m01;
shapes = (
{
closed = 1;
nodes = (
(549,695,l),
(549,691,l),
(574,659,o),
(581,618,o),
(581,541,cs),
(581,140,l),
(576,140,l),
(225,695,l),
(80,695,l),
(80,693,l),
(103,656,l),
(103,155,ls),
(103,78,o),
(96,37,o),
(72,4,c),
(72,0,l),
(212,0,l),
(212,4,l),
(188,37,o),
(180,79,o),
(180,155,cs),
(180,579,l),
(185,579,l),
(553,0,l),
(657,0,l),
(657,541,ls),
(657,617,o),
(665,658,o),
(689,691,c),
(689,695,l)
);
},
{
closed = 1;
nodes = (
(453,-71,o),
(429,-44,o),
(393,-44,cs),
(361,-44,o),
(338,-68,o),
(338,-100,cs),
(338,-131,o),
(364,-153,o),
(396,-153,cs),
(398,-153,l),
(337,-257,l),
(384,-257,l),
(432,-169,ls),
(445,-144,o),
(453,-128,o),
(453,-108,cs)
);
}
);
width = 758;
}
);
note = uni0145;
unicode = 325;
},
{
glyphname = uni0145.ss06;
kernLeft = B;
kernRight = H;
layers = (
{
layerId = m01;
shapes = (
{
closed = 1;
nodes = (
(72,0,l),
(212,0,l),
(212,4,l),
(188,37,o),
(180,79,o),
(180,155,cs),
(180,579,l),
(185,579,l),
(553,0,l),
(657,0,l),
(657,541,ls),
(657,617,o),
(665,658,o),
(689,691,c),
(689,695,l),
(549,695,l),
(549,691,l),
(574,659,o),
(581,618,o),
(581,541,cs),
(581,140,l),
(576,140,l),
(225,695,l),
(80,695,l),
(80,693,l),
(103,656,l),
(103,155,ls),
(103,78,o),
(96,37,o),
(72,4,c)
);
},
{
closed = 1;
nodes = (
(352,-257,l),
(447,-59,l),
(447,-57,l),
(352,-57,l),
(313,-257,l)
);
}
);
width = 758;
}
);
note = uni0145.ss06;
},
{
glyphname = Eng;
kernLeft = N;
kernRight = N;
layers = (
{
layerId = m01;
shapes = (
{
closed = 1;
nodes = (
(413,-194,l),
(437,-207,o),
(465,-214,o),
(496,-214,cs),
(574,-214,o),
(657,-165,o),
(657,-48,cs),
(657,541,ls),
(657,618,o),
(664,659,o),
(689,691,c),
(689,695,l),
(549,695,l),
(549,691,l),
(574,659,o),
(581,618,o),
(581,541,cs),
(581,167,l),
(576,167,l),
(224,695,l),
(80,695,l),
(80,693,l),
(103,655,l),
(103,154,ls),
(103,78,o),
(96,37,o),
(72,4,c),
(72,0,l),
(212,0,l),
(212,4,l),
(188,37,o),
(180,79,o),
(180,154,cs),
(180,577,l),
(185,577,l),
(560,13,l),
(560,-55,ls),
(560,-120,o),
(528,-151,o),
(472,-151,cs),
(451,-151,o),
(433,-148,o),
(418,-141,c)
);
}
);
width = 758;
}
);
note = Eng;
unicode = 330;
},
{
glyphname = Ntilde;
kernLeft = N;
kernRight = N;
layers = (
{
layerId = m01;
shapes = (
{
closed = 1;
nodes = (
(380,786,ls),
(405,766,o),
(428,755,o),
(457,755,cs),
(509,755,o),
(550,799,o),
(553,878,c),
(499,878,l),
(492,839,o),
(481,823,o),
(457,823,cs),
(441,823,o),
(432,827,o),
(413,840,cs),
(395,854,ls),
(368,874,o),
(347,884,o),
(319,884,cs),
(267,884,o),
(226,841,o),
(223,761,c),
(278,761,l),
(282,798,o),
(295,817,o),
(318,817,cs),
(334,817,o),
(345,812,o),
(362,800,cs)
);
},
{
closed = 1;
nodes = (
(72,0,l),
(212,0,l),
(212,4,l),
(188,37,o),
(180,79,o),
(180,155,cs),
(180,579,l),
(185,579,l),
(553,0,l),
(657,0,l),
(657,541,ls),
(657,617,o),
(665,658,o),
(689,691,c),
(689,695,l),
(549,695,l),
(549,691,l),
(574,659,o),
(581,618,o),
(581,541,cs),
(581,140,l),
(576,140,l),
(225,695,l),
(80,695,l),
(80,693,l),
(103,656,l),
(103,155,ls),
(103,78,o),
(96,37,o),
(72,4,c)
);
}
);
width = 758;
}
);
note = Ntilde;
unicode = 209;
},
{
glyphname = O;
kernLeft = C;
kernRight = O;
layers = (
{
layerId = m01;
shapes = (
{
closed = 1;
nodes = (
(43,144,o),
(193,-15,o),
(392,-12,cs),
(591,-15,o),
(741,143,o),
(738,347,cs),
(740,552,o),
(593,710,o),
(392,707,cs),
(193,711,o),
(43,550,o),
(46,347,cs)
);
},
{
closed = 1;
nodes = (
(629,176,o),
(533,60,o),
(392,60,cs),
(251,60,o),
(154,176,o),
(154,347,cs),
(154,518,o),
(251,636,o),
(392,636,cs),
(533,636,o),
(629,518,o),
(629,347,cs)
);
}
);
width = 784;
}
);
note = O;
unicode = 79;
},
{
glyphname = Oacute;
kernLeft = C;
kernRight = O;
layers = (
{
layerId = m01;
shapes = (
{
closed = 1;
nodes = (
(401,757,l),
(518,893,l),
(518,895,l),
(407,895,l),
(343,757,l)
);
},
{
closed = 1;
nodes = (
(43,144,o),
(193,-15,o),
(392,-12,cs),
(591,-15,o),
(741,143,o),
(738,347,cs),
(740,552,o),
(593,710,o),
(392,707,cs),
(193,711,o),
(43,550,o),
(46,347,cs)
);
},
{
closed = 1;
nodes = (
(629,176,o),
(533,60,o),
(392,60,cs),
(251,60,o),
(154,176,o),
(154,347,cs),
(154,518,o),
(251,636,o),
(392,636,cs),
(533,636,o),
(629,518,o),
(629,347,cs)
);
}
);
width = 784;
}
);
note = Oacute;
unicode = 211;
},
{
glyphname = Obreve;
kernLeft = C;
kernRight = O;
layers = (
{
layerId = m01;
shapes = (
{
closed = 1;
nodes = (
(263,895,l),
(266,811,o),
(316,757,o),
(392,757,cs),
(468,757,o),
(519,810,o),
(522,895,c),
(465,895,l),
(461,848,o),
(436,822,o),
(392,822,cs),
(349,822,o),
(324,848,o),
(319,895,c)
);
},
{
closed = 1;
nodes = (
(43,144,o),
(193,-15,o),
(392,-12,cs),
(591,-15,o),
(741,143,o),
(738,347,cs),
(740,552,o),
(593,710,o),
(392,707,cs),
(193,711,o),
(43,550,o),
(46,347,cs)
);
},
{
closed = 1;
nodes = (
(629,176,o),
(533,60,o),
(392,60,cs),
(251,60,o),
(154,176,o),
(154,347,cs),
(154,518,o),
(251,636,o),
(392,636,cs),
(533,636,o),
(629,518,o),
(629,347,cs)
);
}
);
width = 784;
}
);
note = Obreve;
unicode = 334;
},
{
glyphname = Ocircumflex;
kernLeft = C;
kernRight = O;
layers = (
{
layerId = m01;
shapes = (
{
closed = 1;
nodes = (
(311,757,l),
(393,831,l),
(472,757,l),
(546,757,l),
(434,895,l),
(353,895,l),
(239,757,l)
);
},
{
closed = 1;
nodes = (
(43,144,o),
(193,-15,o),
(392,-12,cs),
(591,-15,o),
(741,143,o),
(738,347,cs),
(740,552,o),
(593,710,o),
(392,707,cs),
(193,711,o),
(43,550,o),
(46,347,cs)
);
},
{
closed = 1;
nodes = (
(629,176,o),
(533,60,o),
(392,60,cs),
(251,60,o),
(154,176,o),
(154,347,cs),
(154,518,o),
(251,636,o),
(392,636,cs),
(533,636,o),
(629,518,o),
(629,347,cs)
);
}
);
width = 784;
}
);
note = Ocircumflex;
unicode = 212;
},
{
glyphname = Odieresis;
kernLeft = C;
kernRight = O;
layers = (
{
layerId = m01;
shapes = (
{
closed = 1;
nodes = (
(234,792,o),
(261,764,o),
(297,764,cs),
(332,764,o),
(359,792,o),
(359,828,cs),
(359,863,o),
(330,891,o),
(297,891,cs),
(261,891,o),
(234,863,o),
(234,828,cs)
);
},
{
closed = 1;
nodes = (
(424,792,o),
(452,764,o),
(488,764,cs),
(523,764,o),
(549,792,o),
(549,828,cs),
(549,863,o),
(521,891,o),
(488,891,cs),
(452,891,o),
(424,863,o),
(424,828,cs)
);
},
{
closed = 1;
nodes = (
(43,144,o),
(193,-15,o),
(392,-12,cs),
(591,-15,o),
(741,143,o),
(738,347,cs),
(740,552,o),
(593,710,o),
(392,707,cs),
(193,711,o),
(43,550,o),
(46,347,cs)
);
},
{
closed = 1;
nodes = (
(629,176,o),
(533,60,o),
(392,60,cs),
(251,60,o),
(154,176,o),
(154,347,cs),
(154,518,o),
(251,636,o),
(392,636,cs),
(533,636,o),
(629,518,o),
(629,347,cs)
);
}
);
width = 784;
}
);
note = Odieresis;
unicode = 214;
},
{
glyphname = uni1ECC;
kernLeft = C;
kernRight = O;
layers = (
{
layerId = m01;
shapes = (
{
closed = 1;
nodes = (
(43,144,o),
(193,-15,o),
(392,-12,cs),
(591,-15,o),
(741,143,o),
(738,347,cs),
(740,552,o),
(593,710,o),
(392,707,cs),
(193,711,o),
(43,550,o),
(46,347,cs)
);
},
{
closed = 1;
nodes = (
(629,176,o),
(533,60,o),
(392,60,cs),
(251,60,o),
(154,176,o),
(154,347,cs),
(154,518,o),
(251,636,o),
(392,636,cs),
(533,636,o),
(629,518,o),
(629,347,cs)
);
},
{
closed = 1;
nodes = (
(325,-174,o),
(354,-204,o),
(391,-204,cs),
(426,-204,o),
(455,-174,o),
(455,-137,cs),
(455,-102,o),
(426,-73,o),
(391,-73,cs),
(354,-73,o),
(325,-102,o),
(325,-137,cs)
);
}
);
width = 784;
}
);
note = uni1ECC;
unicode = 7884;
},
{
glyphname = Ograve;
kernLeft = C;
kernRight = O;
layers = (
{
layerId = m01;
shapes = (
{
closed = 1;
nodes = (
(378,895,l),
(269,895,l),
(269,893,l),
(382,757,l),
(443,757,l)
);
},
{
closed = 1;
nodes = (
(43,144,o),
(193,-15,o),
(392,-12,cs),
(591,-15,o),
(741,143,o),
(738,347,cs),
(740,552,o),
(593,710,o),
(392,707,cs),
(193,711,o),
(43,550,o),
(46,347,cs)
);
},
{
closed = 1;
nodes = (
(629,176,o),
(533,60,o),
(392,60,cs),
(251,60,o),
(154,176,o),
(154,347,cs),
(154,518,o),
(251,636,o),
(392,636,cs),
(533,636,o),
(629,518,o),
(629,347,cs)
);
}
);
width = 784;
}
);
note = Ograve;
unicode = 210;
},
{
glyphname = Ohungarumlaut;
kernLeft = C;
kernRight = O;
layers = (
{
layerId = m01;
shapes = (
{
closed = 1;
nodes = (
(327,757,l),
(421,893,l),
(421,895,l),
(322,895,l),
(273,757,l)
);
},
{
closed = 1;
nodes = (
(476,757,l),
(569,893,l),
(569,895,l),
(472,895,l),
(422,757,l)
);
},
{
closed = 1;
nodes = (
(43,144,o),
(193,-15,o),
(392,-12,cs),
(591,-15,o),
(741,143,o),
(738,347,cs),
(740,552,o),
(593,710,o),
(392,707,cs),
(193,711,o),
(43,550,o),
(46,347,cs)
);
},
{
closed = 1;
nodes = (
(629,176,o),
(533,60,o),
(392,60,cs),
(251,60,o),
(154,176,o),
(154,347,cs),
(154,518,o),
(251,636,o),
(392,636,cs),
(533,636,o),
(629,518,o),
(629,347,cs)
);
}
);
width = 784;
}
);
note = Ohungarumlaut;
unicode = 336;
},
{
glyphname = Omacron;
kernLeft = C;
kernRight = O;
layers = (
{
layerId = m01;
shapes = (
{
closed = 1;
nodes = (
(546,783,l),
(546,843,l),
(238,843,l),
(238,783,l)
);
},
{
closed = 1;
nodes = (
(43,144,o),
(193,-15,o),
(392,-12,cs),
(591,-15,o),
(741,143,o),
(738,347,cs),
(740,552,o),
(593,710,o),
(392,707,cs),
(193,711,o),
(43,550,o),
(46,347,cs)
);
},
{
closed = 1;
nodes = (
(629,176,o),
(533,60,o),
(392,60,cs),
(251,60,o),
(154,176,o),
(154,347,cs),
(154,518,o),
(251,636,o),
(392,636,cs),
(533,636,o),
(629,518,o),
(629,347,cs)
);
}
);
width = 784;
}
);
note = Omacron;
unicode = 332;
},
{
glyphname = Oslash;
kernLeft = C;
kernRight = O;
layers = (
{
layerId = m01;
shapes = (
{
closed = 1;
nodes = (
(716,700,l),
(668,738,l),
(595,647,l),
(537,687,o),
(470,707,o),
(395,707,cs),
(196,711,o),
(46,550,o),
(49,347,cs),
(49,243,o),
(85,153,o),
(148,88,c),
(73,-6,l),
(121,-45,l),
(195,48,l),
(253,8,o),
(320,-12,o),
(395,-12,cs),
(594,-15,o),
(744,143,o),
(741,347,cs),
(741,451,o),
(706,543,o),
(642,607,c)
);
},
{
closed = 1;
nodes = (
(207,161,l),
(174,212,o),
(157,274,o),
(157,347,cs),
(157,518,o),
(254,636,o),
(395,636,cs),
(452,636,o),
(501,618,o),
(543,581,c)
);
},
{
closed = 1;
nodes = (
(632,176,o),
(536,60,o),
(395,60,cs),
(337,60,o),
(288,78,o),
(248,114,c),
(583,533,l),
(616,482,o),
(632,420,o),
(632,347,cs)
);
}
);
width = 788;
}
);
note = Oslash;
unicode = 216;
},
{
glyphname = Oslashacute;
kernLeft = C;
kernRight = O;
layers = (
{
layerId = m01;
shapes = (
{
closed = 1;
nodes = (
(517,895,l),
(406,895,l),
(342,757,l),
(400,757,l),
(517,893,l)
);
},
{
closed = 1;
nodes = (
(716,700,l),
(668,738,l),
(595,647,l),
(537,687,o),
(470,707,o),
(395,707,cs),
(196,711,o),
(46,550,o),
(49,347,cs),
(49,243,o),
(85,153,o),
(148,88,c),
(73,-6,l),
(121,-45,l),
(195,48,l),
(253,8,o),
(320,-12,o),
(395,-12,cs),
(594,-15,o),
(744,143,o),
(741,347,cs),
(741,451,o),
(706,543,o),
(642,607,c)
);
},
{
closed = 1;
nodes = (
(207,161,l),
(174,212,o),
(157,274,o),
(157,347,cs),
(157,518,o),
(254,636,o),
(395,636,cs),
(452,636,o),
(501,618,o),
(543,581,c)
);
},
{
closed = 1;
nodes = (
(632,176,o),
(536,60,o),
(395,60,cs),
(337,60,o),
(288,78,o),
(248,114,c),
(583,533,l),
(616,482,o),
(632,420,o),
(632,347,cs)
);
}
);
width = 788;
}
);
note = Oslashacute;
unicode = 510;
},
{
glyphname = Otilde;
kernLeft = C;
kernRight = O;
layers = (
{
layerId = m01;
shapes = (
{
closed = 1;
nodes = (
(384,786,ls),
(409,766,o),
(432,755,o),
(461,755,cs),
(513,755,o),
(554,799,o),
(557,878,c),
(503,878,l),
(496,839,o),
(485,823,o),
(461,823,cs),
(445,823,o),
(436,827,o),
(417,840,cs),
(399,854,ls),
(372,874,o),
(351,884,o),
(323,884,cs),
(271,884,o),
(230,841,o),
(227,761,c),
(282,761,l),
(286,798,o),
(299,817,o),
(322,817,cs),
(338,817,o),
(349,812,o),
(366,800,cs)
);
},
{
closed = 1;
nodes = (
(43,144,o),
(193,-15,o),
(392,-12,cs),
(591,-15,o),
(741,143,o),
(738,347,cs),
(740,552,o),
(593,710,o),
(392,707,cs),
(193,711,o),
(43,550,o),
(46,347,cs)
);
},
{
closed = 1;
nodes = (
(629,176,o),
(533,60,o),
(392,60,cs),
(251,60,o),
(154,176,o),
(154,347,cs),
(154,518,o),
(251,636,o),
(392,636,cs),
(533,636,o),
(629,518,o),
(629,347,cs)
);
}
);
width = 784;
}
);
note = Otilde;
unicode = 213;
},
{
glyphname = OE;
kernLeft = OE;
kernRight = AE;
layers = (
{
layerId = m01;
shapes = (
{
closed = 1;
nodes = (
(862,0,l),
(862,130,l),
(857,130,l),
(836,85,o),
(789,69,o),
(705,69,cs),
(532,69,l),
(532,318,l),
(646,318,ls),
(723,318,o),
(765,306,o),
(784,281,c),
(789,281,l),
(789,423,l),
(784,423,l),
(765,398,o),
(723,386,o),
(646,386,cs),
(532,386,l),
(532,626,l),
(691,626,ls),
(779,626,o),
(823,613,o),
(844,578,c),
(849,578,l),
(849,695,l),
(425,695,ls),
(198,695,o),
(46,552,o),
(46,347,cs),
(46,143,o),
(198,0,o),
(425,0,cs)
);
},
{
closed = 1;
nodes = (
(434,69,l),
(414,69,ls),
(266,69,o),
(154,177,o),
(154,347,cs),
(154,518,o),
(266,627,o),
(414,627,cs),
(434,627,l)
);
}
);
width = 906;
}
);
note = OE;
unicode = 338;
},
{
glyphname = P;
kernLeft = B;
kernRight = P;
layers = (
{
layerId = m01;
shapes = (
{
closed = 1;
nodes = (
(202,282,l),
(300,282,ls),
(453,282,o),
(556,363,o),
(556,490,cs),
(556,554,o),
(533,604,o),
(486,640,cs),
(439,677,o),
(377,695,o),
(300,695,cs),
(72,695,l),
(72,691,l),
(97,659,o),
(104,618,o),
(104,541,cs),
(104,154,ls),
(104,77,o),
(97,37,o),
(72,4,c),
(72,0,l),
(239,0,l),
(239,4,l),
(211,37,o),
(202,78,o),
(202,154,cs)
);
},
{
closed = 1;
nodes = (
(202,628,l),
(280,628,ls),
(395,628,o),
(452,582,o),
(452,490,cs),
(452,395,o),
(391,350,o),
(280,350,cs),
(202,350,l)
);
}
);
width = 582;
}
);
note = P;
unicode = 80;
},
{
glyphname = Thorn;
kernLeft = B;
kernRight = Thorn;
layers = (
{
layerId = m01;
shapes = (
{
closed = 1;
nodes = (
(203,554,l),
(204,621,o),
(212,660,o),
(235,691,c),
(235,695,l),
(73,695,l),
(73,691,l),
(97,658,o),
(105,617,o),
(105,541,cs),
(105,154,ls),
(105,78,o),
(97,39,o),
(73,4,c),
(73,0,l),
(235,0,l),
(235,4,l),
(212,36,o),
(204,76,o),
(203,141,c),
(300,141,ls),
(453,141,o),
(557,222,o),
(557,349,cs),
(557,412,o),
(534,462,o),
(487,499,cs),
(440,536,o),
(378,554,o),
(300,554,cs)
);
},
{
closed = 1;
nodes = (
(203,209,l),
(203,487,l),
(280,487,ls),
(395,487,o),
(452,441,o),
(452,349,cs),
(452,254,o),
(391,209,o),
(280,209,cs)
);
}
);
width = 595;
}
);
note = Thorn;
unicode = 222;
},
{
glyphname = Q;
kernLeft = C;
kernRight = O;
layers = (
{
layerId = m01;
shapes = (
{
closed = 1;
nodes = (
(583,68,l),
(583,72,l),
(675,121,o),
(736,226,o),
(736,349,cs),
(739,552,o),
(592,710,o),
(391,707,cs),
(192,710,o),
(44,549,o),
(47,347,cs),
(44,144,o),
(192,-15,o),
(391,-12,cs),
(426,-12,o),
(463,-6,o),
(500,5,c),
(783,-22,l),
(786,-22,l),
(786,68,l)
);
},
{
closed = 1;
nodes = (
(252,60,o),
(154,176,o),
(154,347,cs),
(154,520,o),
(252,636,o),
(391,636,cs),
(531,636,o),
(627,520,o),
(627,347,cs),
(627,176,o),
(534,60,o),
(391,60,cs)
);
}
);
width = 786;
}
);
note = Q;
unicode = 81;
},
{
glyphname = Q.ss04;
kernLeft = C;
kernRight = O;
layers = (
{
layerId = m01;
shapes = (
{
closed = 1;
nodes = (
(759,-4,l),
(634,82,l),
(701,147,o),
(738,240,o),
(738,347,cs),
(740,552,o),
(593,710,o),
(392,707,cs),
(193,711,o),
(43,550,o),
(46,347,cs),
(43,144,o),
(193,-15,o),
(392,-12,cs),
(461,-12,o),
(524,5,o),
(580,40,c),
(759,-84,l)
);
},
{
closed = 1;
nodes = (
(507,90,l),
(472,70,o),
(434,60,o),
(392,60,cs),
(251,60,o),
(154,176,o),
(154,347,cs),
(154,518,o),
(251,636,o),
(392,636,cs),
(533,636,o),
(629,518,o),
(629,347,cs),
(629,259,o),
(604,186,o),
(559,134,c),
(391,250,l),
(391,170,l)
);
}
);
width = 785;
}
);
note = Q.ss04;
},
{
glyphname = R;
kernLeft = B;
kernRight = R;
layers = (
{
layerId = m01;
shapes = (
{
closed = 1;
nodes = (
(662,2,l),
(383,338,l),
(492,358,o),
(557,425,o),
(557,514,cs),
(557,623,o),
(465,695,o),
(314,695,cs),
(71,695,l),
(71,691,l),
(96,659,o),
(103,618,o),
(103,542,cs),
(103,156,ls),
(103,77,o),
(95,39,o),
(71,4,c),
(71,0,l),
(232,0,l),
(232,4,l),
(208,39,o),
(200,77,o),
(200,156,cs),
(200,328,l),
(272,328,l),
(535,0,l),
(662,0,l)
);
},
{
closed = 1;
nodes = (
(200,396,l),
(200,628,l),
(297,628,ls),
(400,628,o),
(453,589,o),
(453,513,cs),
(453,440,o),
(399,396,o),
(296,396,cs)
);
}
);
width = 651;
}
);
note = R;
unicode = 82;
},
{
glyphname = Racute;
kernLeft = B;
kernRight = R;
layers = (
{
layerId = m01;
shapes = (
{
closed = 1;
nodes = (
(439,895,l),
(328,895,l),
(264,757,l),
(322,757,l),
(439,893,l)
);
},
{
closed = 1;
nodes = (
(662,2,l),
(383,338,l),
(492,358,o),
(557,425,o),
(557,514,cs),
(557,623,o),
(465,695,o),
(314,695,cs),
(71,695,l),
(71,691,l),
(96,659,o),
(103,618,o),
(103,542,cs),
(103,156,ls),
(103,77,o),
(95,39,o),
(71,4,c),
(71,0,l),
(232,0,l),
(232,4,l),
(208,39,o),
(200,77,o),
(200,156,cs),
(200,328,l),
(272,328,l),
(535,0,l),
(662,0,l)
);
},
{
closed = 1;
nodes = (
(200,396,l),
(200,628,l),
(297,628,ls),
(400,628,o),
(453,589,o),
(453,513,cs),
(453,440,o),
(399,396,o),
(296,396,cs)
);
}
);
width = 651;
}
);
note = Racute;
unicode = 340;
},
{
glyphname = Rcaron;
kernLeft = B;
kernRight = R;
layers = (
{
layerId = m01;
shapes = (
{
closed = 1;
nodes = (
(465,894,l),
(394,894,l),
(312,820,l),
(232,894,l),
(158,894,l),
(271,756,l),
(352,756,l)
);
},
{
closed = 1;
nodes = (
(662,2,l),
(383,338,l),
(492,358,o),
(557,425,o),
(557,514,cs),
(557,623,o),
(465,695,o),
(314,695,cs),
(71,695,l),
(71,691,l),
(96,659,o),
(103,618,o),
(103,542,cs),
(103,156,ls),
(103,77,o),
(95,39,o),
(71,4,c),
(71,0,l),
(232,0,l),
(232,4,l),
(208,39,o),
(200,77,o),
(200,156,cs),
(200,328,l),
(272,328,l),
(535,0,l),
(662,0,l)
);
},
{
closed = 1;
nodes = (
(200,396,l),
(200,628,l),
(297,628,ls),
(400,628,o),
(453,589,o),
(453,513,cs),
(453,440,o),
(399,396,o),
(296,396,cs)
);
}
);
width = 651;
}
);
note = Rcaron;
unicode = 344;
},
{
glyphname = uni0156;
kernLeft = B;
kernRight = R;
layers = (
{
layerId = m01;
shapes = (
{
closed = 1;
nodes = (
(662,2,l),
(383,338,l),
(492,358,o),
(557,425,o),
(557,514,cs),
(557,623,o),
(465,695,o),
(314,695,cs),
(71,695,l),
(71,691,l),
(96,659,o),
(103,618,o),
(103,542,cs),
(103,156,ls),
(103,77,o),
(95,39,o),
(71,4,c),
(71,0,l),
(232,0,l),
(232,4,l),
(208,39,o),
(200,77,o),
(200,156,cs),
(200,328,l),
(272,328,l),
(535,0,l),
(662,0,l)
);
},
{
closed = 1;
nodes = (
(200,396,l),
(200,628,l),
(297,628,ls),
(400,628,o),
(453,589,o),
(453,513,cs),
(453,440,o),
(399,396,o),
(296,396,cs)
);
},
{
closed = 1;
nodes = (
(407,-71,o),
(383,-44,o),
(347,-44,cs),
(315,-44,o),
(292,-68,o),
(292,-100,cs),
(292,-131,o),
(318,-153,o),
(350,-153,cs),
(352,-153,l),
(291,-257,l),
(338,-257,l),
(386,-169,ls),
(399,-144,o),
(407,-128,o),
(407,-108,cs)
);
}
);
width = 651;
}
);
note = uni0156;
unicode = 342;
},
{
glyphname = uni0156.ss06;
kernLeft = B;
kernRight = R;
layers = (
{
layerId = m01;
shapes = (
{
closed = 1;
nodes = (
(662,2,l),
(383,338,l),
(492,358,o),
(557,425,o),
(557,514,cs),
(557,623,o),
(465,695,o),
(314,695,cs),
(71,695,l),
(71,691,l),
(96,659,o),
(103,618,o),
(103,542,cs),
(103,156,ls),
(103,77,o),
(95,39,o),
(71,4,c),
(71,0,l),
(232,0,l),
(232,4,l),
(208,39,o),
(200,77,o),
(200,156,cs),
(200,328,l),
(272,328,l),
(535,0,l),
(662,0,l)
);
},
{
closed = 1;
nodes = (
(200,396,l),
(200,628,l),
(297,628,ls),
(400,628,o),
(453,589,o),
(453,513,cs),
(453,440,o),
(399,396,o),
(296,396,cs)
);
},
{
closed = 1;
nodes = (
(305,-257,l),
(400,-59,l),
(400,-57,l),
(305,-57,l),
(266,-257,l)
);
}
);
width = 651;
}
);
note = uni0156.ss06;
},
{
glyphname = S;
kernLeft = S;
kernRight = S;
layers = (
{
layerId = m01;
shapes = (
{
closed = 1;
nodes = (
(47,55,l),
(103,12,o),
(177,-12,o),
(252,-12,cs),
(385,-12,o),
(490,73,o),
(490,191,cs),
(490,274,o),
(443,328,o),
(347,372,cs),
(248,417,ls),
(185,445,o),
(160,480,o),
(160,525,cs),
(160,596,o),
(218,637,o),
(299,637,cs),
(367,637,o),
(427,606,o),
(466,545,c),
(471,545,l),
(471,660,l),
(428,688,o),
(365,707,o),
(298,707,cs),
(163,707,o),
(64,618,o),
(64,507,cs),
(64,426,o),
(110,364,o),
(202,323,cs),
(299,280,ls),
(364,251,o),
(392,221,o),
(392,173,cs),
(392,102,o),
(330,59,o),
(251,59,cs),
(175,59,o),
(105,98,o),
(52,174,c),
(47,174,l)
);
}
);
width = 536;
}
);
note = S;
unicode = 83;
},
{
glyphname = Sacute;
kernLeft = S;
kernRight = S;
layers = (
{
layerId = m01;
shapes = (
{
closed = 1;
nodes = (
(290,757,l),
(407,893,l),
(407,895,l),
(296,895,l),
(232,757,l)
);
},
{
closed = 1;
nodes = (
(47,55,l),
(103,12,o),
(177,-12,o),
(252,-12,cs),
(385,-12,o),
(490,73,o),
(490,191,cs),
(490,274,o),
(443,328,o),
(347,372,cs),
(248,417,ls),
(185,445,o),
(160,480,o),
(160,525,cs),
(160,596,o),
(218,637,o),
(299,637,cs),
(367,637,o),
(427,606,o),
(466,545,c),
(471,545,l),
(471,660,l),
(428,688,o),
(365,707,o),
(298,707,cs),
(163,707,o),
(64,618,o),
(64,507,cs),
(64,426,o),
(110,364,o),
(202,323,cs),
(299,280,ls),
(364,251,o),
(392,221,o),
(392,173,cs),
(392,102,o),
(330,59,o),
(251,59,cs),
(175,59,o),
(105,98,o),
(52,174,c),
(47,174,l)
);
}
);
width = 536;
}
);
note = Sacute;
unicode = 346;
},
{
glyphname = Scaron;
kernLeft = S;
kernRight = S;
layers = (
{
layerId = m01;
shapes = (
{
closed = 1;
nodes = (
(361,894,l),
(279,820,l),
(199,894,l),
(125,894,l),
(238,756,l),
(319,756,l),
(432,894,l)
);
},
{
closed = 1;
nodes = (
(47,55,l),
(103,12,o),
(177,-12,o),
(252,-12,cs),
(385,-12,o),
(490,73,o),
(490,191,cs),
(490,274,o),
(443,328,o),
(347,372,cs),
(248,417,ls),
(185,445,o),
(160,480,o),
(160,525,cs),
(160,596,o),
(218,637,o),
(299,637,cs),
(367,637,o),
(427,606,o),
(466,545,c),
(471,545,l),
(471,660,l),
(428,688,o),
(365,707,o),
(298,707,cs),
(163,707,o),
(64,618,o),
(64,507,cs),
(64,426,o),
(110,364,o),
(202,323,cs),
(299,280,ls),
(364,251,o),
(392,221,o),
(392,173,cs),
(392,102,o),
(330,59,o),
(251,59,cs),
(175,59,o),
(105,98,o),
(52,174,c),
(47,174,l)
);
}
);
width = 536;
}
);
note = Scaron;
unicode = 352;
},
{
glyphname = Scedilla;
kernLeft = S;
kernRight = S;
layers = (
{
layerId = m01;
shapes = (
{
closed = 1;
nodes = (
(290,-10,l),
(349,-3,o),
(397,19,o),
(434,56,cs),
(471,93,o),
(490,138,o),
(490,191,cs),
(490,274,o),
(443,328,o),
(347,372,cs),
(248,417,ls),
(185,445,o),
(160,480,o),
(160,525,cs),
(160,596,o),
(218,637,o),
(299,637,cs),
(367,637,o),
(427,606,o),
(466,545,c),
(471,545,l),
(471,660,l),
(428,688,o),
(365,707,o),
(298,707,cs),
(163,707,o),
(64,618,o),
(64,507,cs),
(64,426,o),
(110,364,o),
(202,323,cs),
(299,280,ls),
(364,251,o),
(392,221,o),
(392,173,cs),
(392,102,o),
(330,59,o),
(251,59,cs),
(175,59,o),
(105,98,o),
(52,174,c),
(47,174,l),
(47,55,l),
(102,12,o),
(177,-12,o),
(250,-12,c),
(220,-92,l),
(222,-93,l),
(233,-86,o),
(246,-83,o),
(261,-83,cs),
(288,-83,o),
(305,-96,o),
(305,-117,cs),
(305,-140,o),
(285,-155,o),
(250,-155,cs),
(225,-155,o),
(201,-146,o),
(176,-127,c),
(167,-163,l),
(196,-190,o),
(229,-204,o),
(265,-204,cs),
(326,-204,o),
(371,-166,o),
(371,-117,cs),
(371,-73,o),
(338,-48,o),
(298,-48,cs),
(290,-48,o),
(283,-49,o),
(278,-50,c),
(276,-49,l)
);
}
);
width = 536;
}
);
note = Scedilla;
unicode = 350;
},
{
glyphname = Scircumflex;
kernLeft = S;
kernRight = S;
layers = (
{
layerId = m01;
shapes = (
{
closed = 1;
nodes = (
(200,757,l),
(282,831,l),
(361,757,l),
(435,757,l),
(323,895,l),
(242,895,l),
(128,757,l)
);
},
{
closed = 1;
nodes = (
(47,55,l),
(103,12,o),
(177,-12,o),
(252,-12,cs),
(385,-12,o),
(490,73,o),
(490,191,cs),
(490,274,o),
(443,328,o),
(347,372,cs),
(248,417,ls),
(185,445,o),
(160,480,o),
(160,525,cs),
(160,596,o),
(218,637,o),
(299,637,cs),
(367,637,o),
(427,606,o),
(466,545,c),
(471,545,l),
(471,660,l),
(428,688,o),
(365,707,o),
(298,707,cs),
(163,707,o),
(64,618,o),
(64,507,cs),
(64,426,o),
(110,364,o),
(202,323,cs),
(299,280,ls),
(364,251,o),
(392,221,o),
(392,173,cs),
(392,102,o),
(330,59,o),
(251,59,cs),
(175,59,o),
(105,98,o),
(52,174,c),
(47,174,l)
);
}
);
width = 536;
}
);
note = Scircumflex;
unicode = 348;
},
{
glyphname = uni0218;
kernLeft = S;
kernRight = S;
layers = (
{
layerId = m01;
shapes = (
{
closed = 1;
nodes = (
(248,417,ls),
(185,445,o),
(160,480,o),
(160,525,cs),
(160,596,o),
(218,637,o),
(299,637,cs),
(367,637,o),
(427,606,o),
(466,545,c),
(471,545,l),
(471,660,l),
(428,688,o),
(365,707,o),
(298,707,cs),
(163,707,o),
(64,618,o),
(64,507,cs),
(64,426,o),
(110,364,o),
(202,323,cs),
(299,280,ls),
(364,251,o),
(392,221,o),
(392,173,cs),
(392,102,o),
(330,59,o),
(251,59,cs),
(175,59,o),
(105,98,o),
(52,174,c),
(47,174,l),
(47,55,l),
(103,12,o),
(177,-12,o),
(252,-12,cs),
(385,-12,o),
(490,73,o),
(490,191,cs),
(490,274,o),
(443,328,o),
(347,372,cs)
);
},
{
closed = 1;
nodes = (
(331,-71,o),
(307,-44,o),
(271,-44,cs),
(239,-44,o),
(216,-68,o),
(216,-100,cs),
(216,-131,o),
(242,-153,o),
(274,-153,cs),
(276,-153,l),
(215,-257,l),
(262,-257,l),
(310,-169,ls),
(323,-144,o),
(331,-128,o),
(331,-108,cs)
);
}
);
width = 536;
}
);
note = uni0218;
unicode = 536;
},
{
glyphname = uni0218.ss06;
kernLeft = S;
kernRight = S;
layers = (
{
layerId = m01;
shapes = (
{
closed = 1;
nodes = (
(47,55,l),
(103,12,o),
(177,-12,o),
(252,-12,cs),
(385,-12,o),
(490,73,o),
(490,191,cs),
(490,274,o),
(443,328,o),
(347,372,cs),
(248,417,ls),
(185,445,o),
(160,480,o),
(160,525,cs),
(160,596,o),
(218,637,o),
(299,637,cs),
(367,637,o),
(427,606,o),
(466,545,c),
(471,545,l),
(471,660,l),
(428,688,o),
(365,707,o),
(298,707,cs),
(163,707,o),
(64,618,o),
(64,507,cs),
(64,426,o),
(110,364,o),
(202,323,cs),
(299,280,ls),
(364,251,o),
(392,221,o),
(392,173,cs),
(392,102,o),
(330,59,o),
(251,59,cs),
(175,59,o),
(105,98,o),
(52,174,c),
(47,174,l)
);
},
{
closed = 1;
nodes = (
(230,-257,l),
(325,-59,l),
(325,-57,l),
(230,-57,l),
(191,-257,l)
);
}
);
width = 536;
}
);
note = uni0218.ss06;
},
{
glyphname = uni1E9E;
kernLeft = B;
kernRight = uni1E9E;
layers = (
{
layerId = m01;
shapes = (
{
closed = 1;
nodes = (
(622,631,l),
(622,695,l),
(102,695,l),
(102,156,ls),
(102,76,o),
(95,37,o),
(70,4,c),
(70,0,l),
(200,0,l),
(200,628,l),
(509,628,l),
(509,623,l),
(336,388,l),
(336,330,l),
(375,330,ls),
(482,330,o),
(548,282,o),
(548,195,cs),
(548,114,o),
(492,59,o),
(404,59,cs),
(366,59,o),
(329,70,o),
(294,91,c),
(284,30,l),
(325,2,o),
(373,-12,o),
(427,-12,cs),
(547,-12,o),
(652,63,o),
(652,192,cs),
(652,307,o),
(564,374,o),
(439,385,c)
);
}
);
width = 697;
}
);
note = uni1E9E;
unicode = 7838;
},
{
glyphname = T;
kernLeft = T;
kernRight = T;
layers = (
{
layerId = m01;
shapes = (
{
closed = 1;
nodes = (
(221,0,l),
(391,0,l),
(391,4,l),
(364,39,o),
(355,79,o),
(355,155,cs),
(355,627,l),
(433,627,ls),
(520,627,o),
(565,610,o),
(589,575,c),
(594,575,l),
(594,695,l),
(18,695,l),
(18,575,l),
(24,575,l),
(48,610,o),
(95,627,o),
(180,627,cs),
(257,627,l),
(257,155,ls),
(257,78,o),
(249,37,o),
(221,4,c)
);
}
);
width = 612;
}
);
note = T;
unicode = 84;
},
{
glyphname = Tbar;
kernLeft = T;
kernRight = T;
layers = (
{
layerId = m01;
shapes = (
{
closed = 1;
nodes = (
(18,695,l),
(18,575,l),
(24,575,l),
(48,610,o),
(95,627,o),
(180,627,cs),
(257,627,l),
(257,402,l),
(126,402,l),
(126,345,l),
(257,345,l),
(257,155,ls),
(257,78,o),
(249,37,o),
(221,4,c),
(221,0,l),
(391,0,l),
(391,4,l),
(364,39,o),
(355,79,o),
(355,155,cs),
(355,345,l),
(486,345,l),
(486,402,l),
(355,402,l),
(355,627,l),
(433,627,ls),
(520,627,o),
(565,610,o),
(589,575,c),
(594,575,l),
(594,695,l)
);
}
);
width = 612;
}
);
note = Tbar;
unicode = 358;
},
{
glyphname = Tcaron;
kernLeft = T;
kernRight = T;
layers = (
{
layerId = m01;
shapes = (
{
closed = 1;
nodes = (
(387,894,l),
(305,820,l),
(225,894,l),
(151,894,l),
(264,756,l),
(345,756,l),
(458,894,l)
);
},
{
closed = 1;
nodes = (
(221,0,l),
(391,0,l),
(391,4,l),
(364,39,o),
(355,79,o),
(355,155,cs),
(355,627,l),
(433,627,ls),
(520,627,o),
(565,610,o),
(589,575,c),
(594,575,l),
(594,695,l),
(18,695,l),
(18,575,l),
(24,575,l),
(48,610,o),
(95,627,o),
(180,627,cs),
(257,627,l),
(257,155,ls),
(257,78,o),
(249,37,o),
(221,4,c)
);
}
);
width = 612;
}
);
note = Tcaron;
unicode = 356;
},
{
glyphname = uni0162;
kernLeft = T;
kernRight = T;
layers = (
{
layerId = m01;
shapes = (
{
closed = 1;
nodes = (
(18,695,l),
(18,575,l),
(24,575,l),
(48,610,o),
(95,627,o),
(180,627,cs),
(257,627,l),
(257,155,ls),
(257,78,o),
(249,37,o),
(221,4,c),
(221,0,l),
(287,0,l),
(253,-92,l),
(255,-93,l),
(266,-86,o),
(279,-83,o),
(294,-83,cs),
(321,-83,o),
(338,-96,o),
(338,-117,cs),
(338,-140,o),
(318,-155,o),
(283,-155,cs),
(258,-155,o),
(234,-146,o),
(209,-127,c),
(200,-163,l),
(229,-190,o),
(262,-204,o),
(298,-204,cs),
(359,-204,o),
(404,-166,o),
(404,-117,cs),
(404,-73,o),
(371,-48,o),
(331,-48,cs),
(323,-48,o),
(316,-49,o),
(311,-50,c),
(309,-49,l),
(327,0,l),
(391,0,l),
(391,4,l),
(364,39,o),
(355,79,o),
(355,155,cs),
(355,627,l),
(433,627,ls),
(520,627,o),
(565,610,o),
(589,575,c),
(594,575,l),
(594,695,l)
);
}
);
width = 612;
}
);
note = uni0162;
unicode = 354;
},
{
glyphname = uni021A;
kernLeft = T;
kernRight = T;
layers = (
{
layerId = m01;
shapes = (
{
closed = 1;
nodes = (
(18,695,l),
(18,575,l),
(24,575,l),
(48,610,o),
(95,627,o),
(180,627,cs),
(257,627,l),
(257,155,ls),
(257,78,o),
(249,37,o),
(221,4,c),
(221,0,l),
(391,0,l),
(391,4,l),
(364,39,o),
(355,79,o),
(355,155,cs),
(355,627,l),
(433,627,ls),
(520,627,o),
(565,610,o),
(589,575,c),
(594,575,l),
(594,695,l)
);
},
{
closed = 1;
nodes = (
(365,-71,o),
(341,-44,o),
(305,-44,cs),
(273,-44,o),
(250,-68,o),
(250,-100,cs),
(250,-131,o),
(276,-153,o),
(308,-153,cs),
(310,-153,l),
(249,-257,l),
(296,-257,l),
(344,-169,ls),
(357,-144,o),
(365,-128,o),
(365,-108,cs)
);
}
);
width = 612;
}
);
note = uni021A;
unicode = 538;
},
{
glyphname = uni021A.ss06;
kernLeft = T;
kernRight = T;
layers = (
{
layerId = m01;
shapes = (
{
closed = 1;
nodes = (
(221,0,l),
(391,0,l),
(391,4,l),
(364,39,o),
(355,79,o),
(355,155,cs),
(355,627,l),
(433,627,ls),
(520,627,o),
(565,610,o),
(589,575,c),
(594,575,l),
(594,695,l),
(18,695,l),
(18,575,l),
(24,575,l),
(48,610,o),
(95,627,o),
(180,627,cs),
(257,627,l),
(257,155,ls),
(257,78,o),
(249,37,o),
(221,4,c)
);
},
{
closed = 1;
nodes = (
(263,-257,l),
(358,-59,l),
(358,-57,l),
(263,-57,l),
(224,-257,l)
);
}
);
width = 612;
}
);
note = uni021A.ss06;
},
{
glyphname = U;
kernLeft = U;
kernRight = U;
layers = (
{
layerId = m01;
shapes = (
{
closed = 1;
nodes = (
(94,281,ls),
(94,98,o),
(197,-12,o),
(373,-12,cs),
(548,-12,o),
(650,99,o),
(650,282,cs),
(650,540,ls),
(650,619,o),
(657,658,o),
(681,691,c),
(681,695,l),
(541,695,l),
(541,691,l),
(566,658,o),
(573,620,o),
(573,541,cs),
(573,280,ls),
(573,147,o),
(501,70,o),
(382,70,cs),
(262,70,o),
(192,149,o),
(192,281,cs),
(192,541,ls),
(192,618,o),
(200,656,o),
(224,691,c),
(224,695,l),
(62,695,l),
(62,691,l),
(86,656,o),
(94,618,o),
(94,541,cs)
);
}
);
width = 744;
}
);
note = U;
unicode = 85;
},
{
glyphname = Uacute;
kernLeft = U;
kernRight = U;
layers = (
{
layerId = m01;
shapes = (
{
closed = 1;
nodes = (
(389,757,l),
(506,893,l),
(506,895,l),
(395,895,l),
(331,757,l)
);
},
{
closed = 1;
nodes = (
(94,281,ls),
(94,98,o),
(197,-12,o),
(373,-12,cs),
(548,-12,o),
(650,99,o),
(650,282,cs),
(650,540,ls),
(650,619,o),
(657,658,o),
(681,691,c),
(681,695,l),
(541,695,l),
(541,691,l),
(566,658,o),
(573,620,o),
(573,541,cs),
(573,280,ls),
(573,147,o),
(501,70,o),
(382,70,cs),
(262,70,o),
(192,149,o),
(192,281,cs),
(192,541,ls),
(192,618,o),
(200,656,o),
(224,691,c),
(224,695,l),
(62,695,l),
(62,691,l),
(86,656,o),
(94,618,o),
(94,541,cs)
);
}
);
width = 744;
}
);
note = Uacute;
unicode = 218;
},
{
glyphname = Ubreve;
kernLeft = U;
kernRight = U;
layers = (
{
layerId = m01;
shapes = (
{
closed = 1;
nodes = (
(252,895,l),
(255,811,o),
(305,757,o),
(381,757,cs),
(457,757,o),
(508,810,o),
(511,895,c),
(454,895,l),
(450,848,o),
(425,822,o),
(381,822,cs),
(338,822,o),
(313,848,o),
(308,895,c)
);
},
{
closed = 1;
nodes = (
(94,281,ls),
(94,98,o),
(197,-12,o),
(373,-12,cs),
(548,-12,o),
(650,99,o),
(650,282,cs),
(650,540,ls),
(650,619,o),
(657,658,o),
(681,691,c),
(681,695,l),
(541,695,l),
(541,691,l),
(566,658,o),
(573,620,o),
(573,541,cs),
(573,280,ls),
(573,147,o),
(501,70,o),
(382,70,cs),
(262,70,o),
(192,149,o),
(192,281,cs),
(192,541,ls),
(192,618,o),
(200,656,o),
(224,691,c),
(224,695,l),
(62,695,l),
(62,691,l),
(86,656,o),
(94,618,o),
(94,541,cs)
);
}
);
width = 744;
}
);
note = Ubreve;
unicode = 364;
},
{
glyphname = Ucircumflex;
kernLeft = U;
kernRight = U;
layers = (
{
layerId = m01;
shapes = (
{
closed = 1;
nodes = (
(299,757,l),
(381,831,l),
(460,757,l),
(534,757,l),
(422,895,l),
(341,895,l),
(227,757,l)
);
},
{
closed = 1;
nodes = (
(94,281,ls),
(94,98,o),
(197,-12,o),
(373,-12,cs),
(548,-12,o),
(650,99,o),
(650,282,cs),
(650,540,ls),
(650,619,o),
(657,658,o),
(681,691,c),
(681,695,l),
(541,695,l),
(541,691,l),
(566,658,o),
(573,620,o),
(573,541,cs),
(573,280,ls),
(573,147,o),
(501,70,o),
(382,70,cs),
(262,70,o),
(192,149,o),
(192,281,cs),
(192,541,ls),
(192,618,o),
(200,656,o),
(224,691,c),
(224,695,l),
(62,695,l),
(62,691,l),
(86,656,o),
(94,618,o),
(94,541,cs)
);
}
);
width = 744;
}
);
note = Ucircumflex;
unicode = 219;
},
{
glyphname = Udieresis;
kernLeft = U;
kernRight = U;
layers = (
{
layerId = m01;
shapes = (
{
closed = 1;
nodes = (
(222,792,o),
(249,764,o),
(285,764,cs),
(320,764,o),
(347,792,o),
(347,828,cs),
(347,863,o),
(318,891,o),
(285,891,cs),
(249,891,o),
(222,863,o),
(222,828,cs)
);
},
{
closed = 1;
nodes = (
(412,792,o),
(440,764,o),
(476,764,cs),
(511,764,o),
(537,792,o),
(537,828,cs),
(537,863,o),
(509,891,o),
(476,891,cs),
(440,891,o),
(412,863,o),
(412,828,cs)
);
},
{
closed = 1;
nodes = (
(94,281,ls),
(94,98,o),
(197,-12,o),
(373,-12,cs),
(548,-12,o),
(650,99,o),
(650,282,cs),
(650,540,ls),
(650,619,o),
(657,658,o),
(681,691,c),
(681,695,l),
(541,695,l),
(541,691,l),
(566,658,o),
(573,620,o),
(573,541,cs),
(573,280,ls),
(573,147,o),
(501,70,o),
(382,70,cs),
(262,70,o),
(192,149,o),
(192,281,cs),
(192,541,ls),
(192,618,o),
(200,656,o),
(224,691,c),
(224,695,l),
(62,695,l),
(62,691,l),
(86,656,o),
(94,618,o),
(94,541,cs)
);
}
);
width = 744;
}
);
note = Udieresis;
unicode = 220;
},
{
glyphname = uni1EE4;
kernLeft = U;
kernRight = U;
layers = (
{
layerId = m01;
shapes = (
{
closed = 1;
nodes = (
(94,281,ls),
(94,98,o),
(197,-12,o),
(373,-12,cs),
(548,-12,o),
(650,99,o),
(650,282,cs),
(650,540,ls),
(650,619,o),
(657,658,o),
(681,691,c),
(681,695,l),
(541,695,l),
(541,691,l),
(566,658,o),
(573,620,o),
(573,541,cs),
(573,280,ls),
(573,147,o),
(501,70,o),
(382,70,cs),
(262,70,o),
(192,149,o),
(192,281,cs),
(192,541,ls),
(192,618,o),
(200,656,o),
(224,691,c),
(224,695,l),
(62,695,l),
(62,691,l),
(86,656,o),
(94,618,o),
(94,541,cs)
);
},
{
closed = 1;
nodes = (
(308,-174,o),
(337,-204,o),
(374,-204,cs),
(409,-204,o),
(438,-174,o),
(438,-137,cs),
(438,-102,o),
(409,-73,o),
(374,-73,cs),
(337,-73,o),
(308,-102,o),
(308,-137,cs)
);
}
);
width = 744;
}
);
note = uni1EE4;
unicode = 7908;
},
{
glyphname = Ugrave;
kernLeft = U;
kernRight = U;
layers = (
{
layerId = m01;
shapes = (
{
closed = 1;
nodes = (
(366,895,l),
(257,895,l),
(257,893,l),
(370,757,l),
(431,757,l)
);
},
{
closed = 1;
nodes = (
(94,281,ls),
(94,98,o),
(197,-12,o),
(373,-12,cs),
(548,-12,o),
(650,99,o),
(650,282,cs),
(650,540,ls),
(650,619,o),
(657,658,o),
(681,691,c),
(681,695,l),
(541,695,l),
(541,691,l),
(566,658,o),
(573,620,o),
(573,541,cs),
(573,280,ls),
(573,147,o),
(501,70,o),
(382,70,cs),
(262,70,o),
(192,149,o),
(192,281,cs),
(192,541,ls),
(192,618,o),
(200,656,o),
(224,691,c),
(224,695,l),
(62,695,l),
(62,691,l),
(86,656,o),
(94,618,o),
(94,541,cs)
);
}
);
width = 744;
}
);
note = Ugrave;
unicode = 217;
},
{
glyphname = Uhungarumlaut;
kernLeft = U;
kernRight = U;
layers = (
{
layerId = m01;
shapes = (
{
closed = 1;
nodes = (
(315,757,l),
(409,893,l),
(409,895,l),
(310,895,l),
(261,757,l)
);
},
{
closed = 1;
nodes = (
(464,757,l),
(557,893,l),
(557,895,l),
(460,895,l),
(410,757,l)
);
},
{
closed = 1;
nodes = (
(94,281,ls),
(94,98,o),
(197,-12,o),
(373,-12,cs),
(548,-12,o),
(650,99,o),
(650,282,cs),
(650,540,ls),
(650,619,o),
(657,658,o),
(681,691,c),
(681,695,l),
(541,695,l),
(541,691,l),
(566,658,o),
(573,620,o),
(573,541,cs),
(573,280,ls),
(573,147,o),
(501,70,o),
(382,70,cs),
(262,70,o),
(192,149,o),
(192,281,cs),
(192,541,ls),
(192,618,o),
(200,656,o),
(224,691,c),
(224,695,l),
(62,695,l),
(62,691,l),
(86,656,o),
(94,618,o),
(94,541,cs)
);
}
);
width = 744;
}
);
note = Uhungarumlaut;
unicode = 368;
},
{
glyphname = Umacron;
kernLeft = U;
kernRight = U;
layers = (
{
layerId = m01;
shapes = (
{
closed = 1;
nodes = (
(534,783,l),
(534,843,l),
(226,843,l),
(226,783,l)
);
},
{
closed = 1;
nodes = (
(94,281,ls),
(94,98,o),
(197,-12,o),
(373,-12,cs),
(548,-12,o),
(650,99,o),
(650,282,cs),
(650,540,ls),
(650,619,o),
(657,658,o),
(681,691,c),
(681,695,l),
(541,695,l),
(541,691,l),
(566,658,o),
(573,620,o),
(573,541,cs),
(573,280,ls),
(573,147,o),
(501,70,o),
(382,70,cs),
(262,70,o),
(192,149,o),
(192,281,cs),
(192,541,ls),
(192,618,o),
(200,656,o),
(224,691,c),
(224,695,l),
(62,695,l),
(62,691,l),
(86,656,o),
(94,618,o),
(94,541,cs)
);
}
);
width = 744;
}
);
note = Umacron;
unicode = 362;
},
{
glyphname = Uogonek;
kernLeft = U;
kernRight = U;
layers = (
{
layerId = m01;
shapes = (
{
closed = 1;
nodes = (
(291,-166,o),
(334,-203,o),
(391,-203,cs),
(422,-203,o),
(447,-193,o),
(466,-173,c),
(457,-135,l),
(441,-146,o),
(425,-151,o),
(408,-151,cs),
(376,-151,o),
(357,-130,o),
(357,-98,cs),
(357,-61,o),
(389,-22,o),
(461,-2,cs),
(582,33,o),
(651,131,o),
(651,282,cs),
(651,540,ls),
(651,619,o),
(657,658,o),
(682,691,c),
(682,695,l),
(542,695,l),
(542,691,l),
(566,656,o),
(574,617,o),
(574,541,cs),
(574,280,ls),
(574,147,o),
(502,70,o),
(383,70,cs),
(263,70,o),
(192,149,o),
(192,281,cs),
(192,541,ls),
(192,618,o),
(200,656,o),
(225,691,c),
(225,695,l),
(62,695,l),
(62,691,l),
(87,658,o),
(94,620,o),
(94,541,cs),
(94,281,ls),
(94,105,o),
(190,-4,o),
(358,-9,c),
(358,-12,l),
(317,-36,o),
(291,-72,o),
(291,-113,cs)
);
}
);
width = 744;
}
);
note = Uogonek;
unicode = 370;
},
{
glyphname = Uring;
kernLeft = U;
kernRight = U;
layers = (
{
layerId = m01;
shapes = (
{
closed = 1;
nodes = (
(275,778,o),
(321,733,o),
(380,733,cs),
(437,733,o),
(483,778,o),
(483,834,cs),
(483,889,o),
(437,934,o),
(380,934,cs),
(351,934,o),
(327,924,o),
(306,904,cs),
(285,885,o),
(275,861,o),
(275,834,cs)
);
},
{
closed = 1;
nodes = (
(427,805,o),
(407,785,o),
(380,785,cs),
(352,785,o),
(332,805,o),
(332,834,cs),
(332,862,o),
(353,882,o),
(380,882,cs),
(407,882,o),
(427,862,o),
(427,834,cs)
);
},
{
closed = 1;
nodes = (
(94,281,ls),
(94,98,o),
(197,-12,o),
(373,-12,cs),
(548,-12,o),
(650,99,o),
(650,282,cs),
(650,540,ls),
(650,619,o),
(657,658,o),
(681,691,c),
(681,695,l),
(541,695,l),
(541,691,l),
(566,658,o),
(573,620,o),
(573,541,cs),
(573,280,ls),
(573,147,o),
(501,70,o),
(382,70,cs),
(262,70,o),
(192,149,o),
(192,281,cs),
(192,541,ls),
(192,618,o),
(200,656,o),
(224,691,c),
(224,695,l),
(62,695,l),
(62,691,l),
(86,656,o),
(94,618,o),
(94,541,cs)
);
}
);
width = 744;
}
);
note = Uring;
unicode = 366;
},
{
glyphname = Utilde;
kernLeft = U;
kernRight = U;
layers = (
{
layerId = m01;
shapes = (
{
closed = 1;
nodes = (
(372,786,ls),
(397,766,o),
(420,755,o),
(449,755,cs),
(501,755,o),
(542,799,o),
(545,878,c),
(491,878,l),
(484,839,o),
(473,823,o),
(449,823,cs),
(433,823,o),
(424,827,o),
(405,840,cs),
(387,854,ls),
(360,874,o),
(339,884,o),
(311,884,cs),
(259,884,o),
(218,841,o),
(215,761,c),
(270,761,l),
(274,798,o),
(287,817,o),
(310,817,cs),
(326,817,o),
(337,812,o),
(354,800,cs)
);
},
{
closed = 1;
nodes = (
(94,281,ls),
(94,98,o),
(197,-12,o),
(373,-12,cs),
(548,-12,o),
(650,99,o),
(650,282,cs),
(650,540,ls),
(650,619,o),
(657,658,o),
(681,691,c),
(681,695,l),
(541,695,l),
(541,691,l),
(566,658,o),
(573,620,o),
(573,541,cs),
(573,280,ls),
(573,147,o),
(501,70,o),
(382,70,cs),
(262,70,o),
(192,149,o),
(192,281,cs),
(192,541,ls),
(192,618,o),
(200,656,o),
(224,691,c),
(224,695,l),
(62,695,l),
(62,691,l),
(86,656,o),
(94,618,o),
(94,541,cs)
);
}
);
width = 744;
}
);
note = Utilde;
unicode = 360;
},
{
glyphname = V;
kernLeft = V;
kernRight = V;
layers = (
{
layerId = m01;
shapes = (
{
closed = 1;
nodes = (
(373,0,l),
(583,539,ls),
(599,580,o),
(612,611,o),
(623,632,cs),
(634,653,o),
(648,673,o),
(665,691,c),
(665,695,l),
(527,695,l),
(527,691,l),
(531,679,o),
(533,666,o),
(533,653,cs),
(533,624,o),
(524,586,o),
(505,538,cs),
(346,129,l),
(341,129,l),
(194,536,ls),
(177,583,o),
(168,620,o),
(168,645,cs),
(168,662,o),
(172,678,o),
(179,691,c),
(179,695,l),
(14,695,l),
(14,691,l),
(42,656,o),
(61,614,o),
(89,539,cs),
(286,0,l)
);
}
);
width = 667;
}
);
note = V;
unicode = 86;
},
{
glyphname = W;
kernLeft = W;
kernRight = W;
layers = (
{
layerId = m01;
shapes = (
{
closed = 1;
nodes = (
(227,0,l),
(321,0,l),
(486,546,l),
(491,546,l),
(642,0,l),
(733,0,l),
(887,543,ls),
(907,612,o),
(923,652,o),
(954,691,c),
(954,695,l),
(818,695,l),
(818,691,l),
(825,676,o),
(829,659,o),
(829,639,cs),
(829,619,o),
(823,587,o),
(812,544,cs),
(701,141,l),
(696,141,l),
(542,695,l),
(425,695,l),
(443,641,l),
(293,135,l),
(289,135,l),
(180,542,ls),
(169,581,o),
(164,611,o),
(164,633,cs),
(164,654,o),
(168,673,o),
(177,691,c),
(177,695,l),
(14,695,l),
(14,691,l),
(43,651,o),
(60,610,o),
(79,539,cs)
);
}
);
width = 965;
}
);
note = W;
unicode = 87;
},
{
glyphname = Wacute;
kernLeft = W;
kernRight = W;
layers = (
{
layerId = m01;
shapes = (
{
closed = 1;
nodes = (
(508,757,l),
(625,893,l),
(625,895,l),
(514,895,l),
(450,757,l)
);
},
{
closed = 1;
nodes = (
(227,0,l),
(321,0,l),
(486,546,l),
(491,546,l),
(642,0,l),
(733,0,l),
(887,543,ls),
(907,612,o),
(923,652,o),
(954,691,c),
(954,695,l),
(818,695,l),
(818,691,l),
(825,676,o),
(829,659,o),
(829,639,cs),
(829,619,o),
(823,587,o),
(812,544,cs),
(701,141,l),
(696,141,l),
(542,695,l),
(425,695,l),
(443,641,l),
(293,135,l),
(289,135,l),
(180,542,ls),
(169,581,o),
(164,611,o),
(164,633,cs),
(164,654,o),
(168,673,o),
(177,691,c),
(177,695,l),
(14,695,l),
(14,691,l),
(43,651,o),
(60,610,o),
(79,539,cs)
);
}
);
width = 965;
}
);
note = Wacute;
unicode = 7810;
},
{
glyphname = Wcircumflex;
kernLeft = W;
kernRight = W;
layers = (
{
layerId = m01;
shapes = (
{
closed = 1;
nodes = (
(418,757,l),
(500,831,l),
(579,757,l),
(653,757,l),
(541,895,l),
(460,895,l),
(346,757,l)
);
},
{
closed = 1;
nodes = (
(227,0,l),
(321,0,l),
(486,546,l),
(491,546,l),
(642,0,l),
(733,0,l),
(887,543,ls),
(907,612,o),
(923,652,o),
(954,691,c),
(954,695,l),
(818,695,l),
(818,691,l),
(825,676,o),
(829,659,o),
(829,639,cs),
(829,619,o),
(823,587,o),
(812,544,cs),
(701,141,l),
(696,141,l),
(542,695,l),
(425,695,l),
(443,641,l),
(293,135,l),
(289,135,l),
(180,542,ls),
(169,581,o),
(164,611,o),
(164,633,cs),
(164,654,o),
(168,673,o),
(177,691,c),
(177,695,l),
(14,695,l),
(14,691,l),
(43,651,o),
(60,610,o),
(79,539,cs)
);
}
);
width = 965;
}
);
note = Wcircumflex;
unicode = 372;
},
{
glyphname = Wdieresis;
kernLeft = W;
kernRight = W;
layers = (
{
layerId = m01;
shapes = (
{
closed = 1;
nodes = (
(341,792,o),
(368,764,o),
(404,764,cs),
(439,764,o),
(466,792,o),
(466,828,cs),
(466,863,o),
(437,891,o),
(404,891,cs),
(368,891,o),
(341,863,o),
(341,828,cs)
);
},
{
closed = 1;
nodes = (
(531,792,o),
(559,764,o),
(595,764,cs),
(630,764,o),
(656,792,o),
(656,828,cs),
(656,863,o),
(628,891,o),
(595,891,cs),
(559,891,o),
(531,863,o),
(531,828,cs)
);
},
{
closed = 1;
nodes = (
(227,0,l),
(321,0,l),
(486,546,l),
(491,546,l),
(642,0,l),
(733,0,l),
(887,543,ls),
(907,612,o),
(923,652,o),
(954,691,c),
(954,695,l),
(818,695,l),
(818,691,l),
(825,676,o),
(829,659,o),
(829,639,cs),
(829,619,o),
(823,587,o),
(812,544,cs),
(701,141,l),
(696,141,l),
(542,695,l),
(425,695,l),
(443,641,l),
(293,135,l),
(289,135,l),
(180,542,ls),
(169,581,o),
(164,611,o),
(164,633,cs),
(164,654,o),
(168,673,o),
(177,691,c),
(177,695,l),
(14,695,l),
(14,691,l),
(43,651,o),
(60,610,o),
(79,539,cs)
);
}
);
width = 965;
}
);
note = Wdieresis;
unicode = 7812;
},
{
glyphname = Wgrave;
kernLeft = W;
kernRight = W;
layers = (
{
layerId = m01;
shapes = (
{
closed = 1;
nodes = (
(485,895,l),
(376,895,l),
(376,893,l),
(489,757,l),
(550,757,l)
);
},
{
closed = 1;
nodes = (
(227,0,l),
(321,0,l),
(486,546,l),
(491,546,l),
(642,0,l),
(733,0,l),
(887,543,ls),
(907,612,o),
(923,652,o),
(954,691,c),
(954,695,l),
(818,695,l),
(818,691,l),
(825,676,o),
(829,659,o),
(829,639,cs),
(829,619,o),
(823,587,o),
(812,544,cs),
(701,141,l),
(696,141,l),
(542,695,l),
(425,695,l),
(443,641,l),
(293,135,l),
(289,135,l),
(180,542,ls),
(169,581,o),
(164,611,o),
(164,633,cs),
(164,654,o),
(168,673,o),
(177,691,c),
(177,695,l),
(14,695,l),
(14,691,l),
(43,651,o),
(60,610,o),
(79,539,cs)
);
}
);
width = 965;
}
);
note = Wgrave;
unicode = 7808;
},
{
glyphname = X;
kernLeft = X;
kernRight = X;
layers = (
{
layerId = m01;
shapes = (
{
closed = 1;
nodes = (
(279,355,l),
(139,161,ls),
(108,118,o),
(84,86,o),
(65,64,cs),
(47,42,o),
(27,22,o),
(5,4,c),
(5,0,l),
(153,0,l),
(153,2,ls),
(152,40,o),
(175,92,o),
(222,159,cs),
(318,293,l),
(323,293,l),
(424,152,ls),
(469,89,o),
(491,40,o),
(491,3,cs),
(491,0,l),
(667,0,l),
(667,4,l),
(648,20,o),
(629,39,o),
(612,60,cs),
(595,82,o),
(569,116,o),
(536,161,cs),
(380,376,l),
(502,543,ls),
(553,615,o),
(584,654,o),
(628,691,c),
(628,695,l),
(481,695,l),
(481,691,ls),
(482,652,o),
(465,609,o),
(421,548,cs),
(341,438,l),
(336,438,l),
(261,544,ls),
(216,607,o),
(193,656,o),
(193,692,cs),
(193,695,l),
(17,695,l),
(17,691,l),
(56,656,o),
(85,619,o),
(141,543,cs)
);
}
);
width = 662;
}
);
note = X;
unicode = 88;
},
{
glyphname = Y;
kernLeft = Y;
kernRight = Y;
layers = (
{
layerId = m01;
shapes = (
{
closed = 1;
nodes = (
(506,695,l),
(506,691,ls),
(511,650,o),
(496,609,o),
(453,541,cs),
(344,365,l),
(340,365,l),
(234,542,ls),
(201,597,o),
(185,635,o),
(185,671,cs),
(185,676,o),
(186,683,o),
(187,692,cs),
(187,695,l),
(15,695,l),
(15,691,l),
(51,656,o),
(78,616,o),
(121,544,cs),
(279,283,l),
(279,155,ls),
(279,79,o),
(271,39,o),
(247,4,c),
(247,0,l),
(409,0,l),
(409,4,l),
(385,39,o),
(377,79,o),
(377,155,cs),
(377,286,l),
(536,541,ls),
(585,617,o),
(611,655,o),
(652,691,c),
(652,695,l)
);
}
);
width = 656;
}
);
note = Y;
unicode = 89;
},
{
glyphname = Yacute;
kernLeft = Y;
kernRight = Y;
layers = (
{
layerId = m01;
shapes = (
{
closed = 1;
nodes = (
(467,895,l),
(356,895,l),
(292,757,l),
(350,757,l),
(467,893,l)
);
},
{
closed = 1;
nodes = (
(506,695,l),
(506,691,ls),
(511,650,o),
(496,609,o),
(453,541,cs),
(344,365,l),
(340,365,l),
(234,542,ls),
(201,597,o),
(185,635,o),
(185,671,cs),
(185,676,o),
(186,683,o),
(187,692,cs),
(187,695,l),
(15,695,l),
(15,691,l),
(51,656,o),
(78,616,o),
(121,544,cs),
(279,283,l),
(279,155,ls),
(279,79,o),
(271,39,o),
(247,4,c),
(247,0,l),
(409,0,l),
(409,4,l),
(385,39,o),
(377,79,o),
(377,155,cs),
(377,286,l),
(536,541,ls),
(585,617,o),
(611,655,o),
(652,691,c),
(652,695,l)
);
}
);
width = 656;
}
);
note = Yacute;
unicode = 221;
},
{
glyphname = Ycircumflex;
kernLeft = Y;
kernRight = Y;
layers = (
{
layerId = m01;
shapes = (
{
closed = 1;
nodes = (
(421,757,l),
(495,757,l),
(383,895,l),
(302,895,l),
(188,757,l),
(260,757,l),
(342,831,l)
);
},
{
closed = 1;
nodes = (
(506,695,l),
(506,691,ls),
(511,650,o),
(496,609,o),
(453,541,cs),
(344,365,l),
(340,365,l),
(234,542,ls),
(201,597,o),
(185,635,o),
(185,671,cs),
(185,676,o),
(186,683,o),
(187,692,cs),
(187,695,l),
(15,695,l),
(15,691,l),
(51,656,o),
(78,616,o),
(121,544,cs),
(279,283,l),
(279,155,ls),
(279,79,o),
(271,39,o),
(247,4,c),
(247,0,l),
(409,0,l),
(409,4,l),
(385,39,o),
(377,79,o),
(377,155,cs),
(377,286,l),
(536,541,ls),
(585,617,o),
(611,655,o),
(652,691,c),
(652,695,l)
);
}
);
width = 656;
}
);
note = Ycircumflex;
unicode = 374;
},
{
glyphname = Ydieresis;
kernLeft = Y;
kernRight = Y;
layers = (
{
layerId = m01;
shapes = (
{
closed = 1;
nodes = (
(183,792,o),
(210,764,o),
(246,764,cs),
(281,764,o),
(308,792,o),
(308,828,cs),
(308,863,o),
(279,891,o),
(246,891,cs),
(210,891,o),
(183,863,o),
(183,828,cs)
);
},
{
closed = 1;
nodes = (
(373,792,o),
(401,764,o),
(437,764,cs),
(472,764,o),
(498,792,o),
(498,828,cs),
(498,863,o),
(470,891,o),
(437,891,cs),
(401,891,o),
(373,863,o),
(373,828,cs)
);
},
{
closed = 1;
nodes = (
(506,695,l),
(506,691,ls),
(511,650,o),
(496,609,o),
(453,541,cs),
(344,365,l),
(340,365,l),
(234,542,ls),
(201,597,o),
(185,635,o),
(185,671,cs),
(185,676,o),
(186,683,o),
(187,692,cs),
(187,695,l),
(15,695,l),
(15,691,l),
(51,656,o),
(78,616,o),
(121,544,cs),
(279,283,l),
(279,155,ls),
(279,79,o),
(271,39,o),
(247,4,c),
(247,0,l),
(409,0,l),
(409,4,l),
(385,39,o),
(377,79,o),
(377,155,cs),
(377,286,l),
(536,541,ls),
(585,617,o),
(611,655,o),
(652,691,c),
(652,695,l)
);
}
);
width = 656;
}
);
note = Ydieresis;
unicode = 376;
},
{
glyphname = Ygrave;
kernLeft = Y;
kernRight = Y;
layers = (
{
layerId = m01;
shapes = (
{
closed = 1;
nodes = (
(326,895,l),
(217,895,l),
(217,893,l),
(330,757,l),
(391,757,l)
);
},
{
closed = 1;
nodes = (
(506,695,l),
(506,691,ls),
(511,650,o),
(496,609,o),
(453,541,cs),
(344,365,l),
(340,365,l),
(234,542,ls),
(201,597,o),
(185,635,o),
(185,671,cs),
(185,676,o),
(186,683,o),
(187,692,cs),
(187,695,l),
(15,695,l),
(15,691,l),
(51,656,o),
(78,616,o),
(121,544,cs),
(279,283,l),
(279,155,ls),
(279,79,o),
(271,39,o),
(247,4,c),
(247,0,l),
(409,0,l),
(409,4,l),
(385,39,o),
(377,79,o),
(377,155,cs),
(377,286,l),
(536,541,ls),
(585,617,o),
(611,655,o),
(652,691,c),
(652,695,l)
);
}
);
width = 656;
}
);
note = Ygrave;
unicode = 7922;
},
{
glyphname = uni0232;
kernLeft = Y;
kernRight = Y;
layers = (
{
layerId = m01;
shapes = (
{
closed = 1;
nodes = (
(187,843,l),
(187,783,l),
(495,783,l),
(495,843,l)
);
},
{
closed = 1;
nodes = (
(506,695,l),
(506,691,ls),
(511,650,o),
(496,609,o),
(453,541,cs),
(344,365,l),
(340,365,l),
(234,542,ls),
(201,597,o),
(185,635,o),
(185,671,cs),
(185,676,o),
(186,683,o),
(187,692,cs),
(187,695,l),
(15,695,l),
(15,691,l),
(51,656,o),
(78,616,o),
(121,544,cs),
(279,283,l),
(279,155,ls),
(279,79,o),
(271,39,o),
(247,4,c),
(247,0,l),
(409,0,l),
(409,4,l),
(385,39,o),
(377,79,o),
(377,155,cs),
(377,286,l),
(536,541,ls),
(585,617,o),
(611,655,o),
(652,691,c),
(652,695,l)
);
}
);
width = 656;
}
);
note = uni0232;
unicode = 562;
},
{
glyphname = Z;
kernLeft = Z;
kernRight = Z;
layers = (
{
layerId = m01;
shapes = (
{
closed = 1;
nodes = (
(36,0,l),
(553,0,l),
(553,134,l),
(548,134,l),
(523,85,o),
(478,69,o),
(391,69,cs),
(155,69,l),
(155,73,l),
(551,628,l),
(551,695,l),
(50,695,l),
(50,569,l),
(55,569,l),
(79,610,o),
(124,626,o),
(205,626,cs),
(432,626,l),
(432,623,l),
(36,67,l)
);
}
);
width = 594;
}
);
note = Z;
unicode = 90;
},
{
glyphname = Zacute;
kernLeft = Z;
kernRight = Z;
layers = (
{
layerId = m01;
shapes = (
{
closed = 1;
nodes = (
(310,757,l),
(427,893,l),
(427,895,l),
(316,895,l),
(252,757,l)
);
},
{
closed = 1;
nodes = (
(36,0,l),
(553,0,l),
(553,134,l),
(548,134,l),
(523,85,o),
(478,69,o),
(391,69,cs),
(155,69,l),
(155,73,l),
(551,628,l),
(551,695,l),
(50,695,l),
(50,569,l),
(55,569,l),
(79,610,o),
(124,626,o),
(205,626,cs),
(432,626,l),
(432,623,l),
(36,67,l)
);
}
);
width = 594;
}
);
note = Zacute;
unicode = 377;
},
{
glyphname = Zcaron;
kernLeft = Z;
kernRight = Z;
layers = (
{
layerId = m01;
shapes = (
{
closed = 1;
nodes = (
(381,894,l),
(299,820,l),
(219,894,l),
(145,894,l),
(258,756,l),
(339,756,l),
(452,894,l)
);
},
{
closed = 1;
nodes = (
(36,0,l),
(553,0,l),
(553,134,l),
(548,134,l),
(523,85,o),
(478,69,o),
(391,69,cs),
(155,69,l),
(155,73,l),
(551,628,l),
(551,695,l),
(50,695,l),
(50,569,l),
(55,569,l),
(79,610,o),
(124,626,o),
(205,626,cs),
(432,626,l),
(432,623,l),
(36,67,l)
);
}
);
width = 594;
}
);
note = Zcaron;
unicode = 381;
},
{
glyphname = Zdotaccent;
kernLeft = Z;
kernRight = Z;
layers = (
{
layerId = m01;
shapes = (
{
closed = 1;
nodes = (
(238,791,o),
(267,761,o),
(304,761,cs),
(339,761,o),
(368,791,o),
(368,828,cs),
(368,863,o),
(339,892,o),
(304,892,cs),
(267,892,o),
(238,863,o),
(238,828,cs)
);
},
{
closed = 1;
nodes = (
(36,0,l),
(553,0,l),
(553,134,l),
(548,134,l),
(523,85,o),
(478,69,o),
(391,69,cs),
(155,69,l),
(155,73,l),
(551,628,l),
(551,695,l),
(50,695,l),
(50,569,l),
(55,569,l),
(79,610,o),
(124,626,o),
(205,626,cs),
(432,626,l),
(432,623,l),
(36,67,l)
);
}
);
width = 594;
}
);
note = Zdotaccent;
unicode = 379;
},
{
glyphname = a;
kernLeft = a;
layers = (
{
layerId = m01;
shapes = (
{
closed = 1;
nodes = (
(474,59,l),
(463,54,o),
(452,52,o),
(443,52,cs),
(420,52,o),
(408,66,o),
(408,94,cs),
(408,307,ls),
(408,427,o),
(337,486,o),
(232,486,cs),
(168,486,o),
(105,460,o),
(57,419,c),
(67,368,l),
(116,399,o),
(163,414,o),
(208,414,cs),
(273,414,o),
(317,381,o),
(317,310,cs),
(317,279,l),
(217,253,ls),
(104,224,o),
(44,184,o),
(44,108,cs),
(44,39,o),
(100,-12,o),
(172,-12,cs),
(231,-12,o),
(279,16,o),
(314,71,c),
(318,71,l),
(318,69,ls),
(321,21,o),
(358,-11,o),
(405,-11,cs),
(434,-11,o),
(459,-3,o),
(481,13,c)
);
},
{
closed = 1;
nodes = (
(317,186,ls),
(317,108,o),
(257,58,o),
(204,58,cs),
(168,58,o),
(140,82,o),
(140,119,cs),
(140,159,o),
(170,179,o),
(242,202,cs),
(317,226,l)
);
}
);
width = 495;
}
);
note = a;
unicode = 97;
},
{
glyphname = a.salt;
kernLeft = a.salt;
kernRight = a.salt;
layers = (
{
layerId = m01;
shapes = (
{
closed = 1;
nodes = (
(42,82,o),
(139,-12,o),
(245,-12,cs),
(304,-12,o),
(357,16,o),
(393,71,c),
(397,71,l),
(397,-3,l),
(399,-3,l),
(511,11,l),
(511,16,l),
(492,41,o),
(489,70,o),
(489,135,cs),
(489,474,l),
(428,474,l),
(407,418,l),
(402,418,l),
(374,458,o),
(322,486,o),
(262,486,cs),
(141,486,o),
(42,382,o),
(42,232,cs)
);
},
{
closed = 1;
nodes = (
(397,208,ls),
(397,122,o),
(340,60,o),
(272,60,cs),
(191,60,o),
(138,132,o),
(138,241,cs),
(138,350,o),
(194,424,o),
(275,424,cs),
(347,424,o),
(397,363,o),
(397,266,cs)
);
}
);
width = 570;
}
);
note = a.salt;
},
{
glyphname = a.ss02;
kernLeft = a;
kernRight = a.ss02;
layers = (
{
layerId = m01;
shapes = (
{
closed = 1;
nodes = (
(408,307,ls),
(408,427,o),
(338,486,o),
(231,486,cs),
(167,486,o),
(105,460,o),
(57,419,c),
(67,368,l),
(118,399,o),
(165,414,o),
(208,414,cs),
(275,414,o),
(317,381,o),
(317,310,cs),
(317,279,l),
(217,253,ls),
(104,224,o),
(44,184,o),
(44,109,cs),
(44,37,o),
(100,-12,o),
(172,-12,cs),
(231,-12,o),
(278,16,o),
(313,71,c),
(317,71,l),
(317,-3,l),
(319,-3,l),
(429,11,l),
(429,16,l),
(412,41,o),
(408,65,o),
(408,126,cs)
);
},
{
closed = 1;
nodes = (
(317,185,ls),
(317,108,o),
(257,58,o),
(204,58,cs),
(168,58,o),
(140,81,o),
(140,120,cs),
(140,160,o),
(170,179,o),
(242,202,cs),
(317,226,l)
);
}
);
width = 484;
}
);
note = a.ss02;
},
{
glyphname = aacute;
kernLeft = a;
layers = (
{
layerId = m01;
shapes = (
{
closed = 1;
nodes = (
(363,694,l),
(252,694,l),
(188,556,l),
(246,556,l),
(363,693,l)
);
},
{
closed = 1;
nodes = (
(474,59,l),
(463,54,o),
(452,52,o),
(443,52,cs),
(420,52,o),
(408,66,o),
(408,94,cs),
(408,307,ls),
(408,427,o),
(337,486,o),
(232,486,cs),
(168,486,o),
(105,460,o),
(57,419,c),
(67,368,l),
(116,399,o),
(163,414,o),
(208,414,cs),
(273,414,o),
(317,381,o),
(317,310,cs),
(317,279,l),
(217,253,ls),
(104,224,o),
(44,184,o),
(44,108,cs),
(44,39,o),
(100,-12,o),
(172,-12,cs),
(231,-12,o),
(279,16,o),
(314,71,c),
(318,71,l),
(318,69,ls),
(321,21,o),
(358,-11,o),
(405,-11,cs),
(434,-11,o),
(459,-3,o),
(481,13,c)
);
},
{
closed = 1;
nodes = (
(317,186,ls),
(317,108,o),
(257,58,o),
(204,58,cs),
(168,58,o),
(140,82,o),
(140,119,cs),
(140,159,o),
(170,179,o),
(242,202,cs),
(317,226,l)
);
}
);
width = 495;
}
);
note = aacute;
unicode = 225;
},
{
glyphname = aacute.salt;
kernLeft = a.salt;
kernRight = a.salt;
layers = (
{
layerId = m01;
shapes = (
{
closed = 1;
nodes = (
(292,556,l),
(409,693,l),
(409,694,l),
(298,694,l),
(234,556,l)
);
},
{
closed = 1;
nodes = (
(42,82,o),
(139,-12,o),
(245,-12,cs),
(304,-12,o),
(357,16,o),
(393,71,c),
(397,71,l),
(397,-3,l),
(399,-3,l),
(511,11,l),
(511,16,l),
(492,41,o),
(489,70,o),
(489,135,cs),
(489,474,l),
(428,474,l),
(407,418,l),
(402,418,l),
(374,458,o),
(322,486,o),
(262,486,cs),
(141,486,o),
(42,382,o),
(42,232,cs)
);
},
{
closed = 1;
nodes = (
(397,208,ls),
(397,122,o),
(340,60,o),
(272,60,cs),
(191,60,o),
(138,132,o),
(138,241,cs),
(138,350,o),
(194,424,o),
(275,424,cs),
(347,424,o),
(397,363,o),
(397,266,cs)
);
}
);
width = 570;
}
);
note = aacute.salt;
},
{
glyphname = aacute.ss02;
kernLeft = a;
kernRight = a.ss02;
layers = (
{
layerId = m01;
shapes = (
{
closed = 1;
nodes = (
(363,694,l),
(252,694,l),
(188,556,l),
(246,556,l),
(363,693,l)
);
},
{
closed = 1;
nodes = (
(408,307,ls),
(408,427,o),
(338,486,o),
(231,486,cs),
(167,486,o),
(105,460,o),
(57,419,c),
(67,368,l),
(118,399,o),
(165,414,o),
(208,414,cs),
(275,414,o),
(317,381,o),
(317,310,cs),
(317,279,l),
(217,253,ls),
(104,224,o),
(44,184,o),
(44,109,cs),
(44,37,o),
(100,-12,o),
(172,-12,cs),
(231,-12,o),
(278,16,o),
(313,71,c),
(317,71,l),
(317,-3,l),
(319,-3,l),
(429,11,l),
(429,16,l),
(412,41,o),
(408,65,o),
(408,126,cs)
);
},
{
closed = 1;
nodes = (
(317,185,ls),
(317,108,o),
(257,58,o),
(204,58,cs),
(168,58,o),
(140,81,o),
(140,120,cs),
(140,160,o),
(170,179,o),
(242,202,cs),
(317,226,l)
);
}
);
width = 484;
}
);
note = aacute.ss02;
},
{
glyphname = abreve;
kernLeft = a;
layers = (
{
layerId = m01;
shapes = (
{
closed = 1;
nodes = (
(104,694,l),
(107,610,o),
(157,557,o),
(233,557,cs),
(309,557,o),
(360,610,o),
(363,694,c),
(306,694,l),
(302,647,o),
(277,621,o),
(233,621,cs),
(190,621,o),
(165,647,o),
(160,694,c)
);
},
{
closed = 1;
nodes = (
(474,59,l),
(463,54,o),
(452,52,o),
(443,52,cs),
(420,52,o),
(408,66,o),
(408,94,cs),
(408,307,ls),
(408,427,o),
(337,486,o),
(232,486,cs),
(168,486,o),
(105,460,o),
(57,419,c),
(67,368,l),
(116,399,o),
(163,414,o),
(208,414,cs),
(273,414,o),
(317,381,o),
(317,310,cs),
(317,279,l),
(217,253,ls),
(104,224,o),
(44,184,o),
(44,108,cs),
(44,39,o),
(100,-12,o),
(172,-12,cs),
(231,-12,o),
(279,16,o),
(314,71,c),
(318,71,l),
(318,69,ls),
(321,21,o),
(358,-11,o),
(405,-11,cs),
(434,-11,o),
(459,-3,o),
(481,13,c)
);
},
{
closed = 1;
nodes = (
(317,186,ls),
(317,108,o),
(257,58,o),
(204,58,cs),
(168,58,o),
(140,82,o),
(140,119,cs),
(140,159,o),
(170,179,o),
(242,202,cs),
(317,226,l)
);
}
);
width = 495;
}
);
note = abreve;
unicode = 259;
},
{
glyphname = abreve.salt;
kernLeft = a.salt;
kernRight = a.salt;
layers = (
{
layerId = m01;
shapes = (
{
closed = 1;
nodes = (
(150,694,l),
(153,610,o),
(203,557,o),
(279,557,cs),
(355,557,o),
(406,610,o),
(409,694,c),
(352,694,l),
(348,647,o),
(323,621,o),
(279,621,cs),
(236,621,o),
(211,647,o),
(206,694,c)
);
},
{
closed = 1;
nodes = (
(42,82,o),
(139,-12,o),
(245,-12,cs),
(304,-12,o),
(357,16,o),
(393,71,c),
(397,71,l),
(397,-3,l),
(399,-3,l),
(511,11,l),
(511,16,l),
(492,41,o),
(489,70,o),
(489,135,cs),
(489,474,l),
(428,474,l),
(407,418,l),
(402,418,l),
(374,458,o),
(322,486,o),
(262,486,cs),
(141,486,o),
(42,382,o),
(42,232,cs)
);
},
{
closed = 1;
nodes = (
(397,208,ls),
(397,122,o),
(340,60,o),
(272,60,cs),
(191,60,o),
(138,132,o),
(138,241,cs),
(138,350,o),
(194,424,o),
(275,424,cs),
(347,424,o),
(397,363,o),
(397,266,cs)
);
}
);
width = 570;
}
);
note = abreve.salt;
},
{
glyphname = abreve.ss02;
kernLeft = a;
kernRight = a.ss02;
layers = (
{
layerId = m01;
shapes = (
{
closed = 1;
nodes = (
(104,694,l),
(107,610,o),
(157,557,o),
(233,557,cs),
(309,557,o),
(360,610,o),
(363,694,c),
(306,694,l),
(302,647,o),
(277,621,o),
(233,621,cs),
(190,621,o),
(165,647,o),
(160,694,c)
);
},
{
closed = 1;
nodes = (
(408,307,ls),
(408,427,o),
(338,486,o),
(231,486,cs),
(167,486,o),
(105,460,o),
(57,419,c),
(67,368,l),
(118,399,o),
(165,414,o),
(208,414,cs),
(275,414,o),
(317,381,o),
(317,310,cs),
(317,279,l),
(217,253,ls),
(104,224,o),
(44,184,o),
(44,109,cs),
(44,37,o),
(100,-12,o),
(172,-12,cs),
(231,-12,o),
(278,16,o),
(313,71,c),
(317,71,l),
(317,-3,l),
(319,-3,l),
(429,11,l),
(429,16,l),
(412,41,o),
(408,65,o),
(408,126,cs)
);
},
{
closed = 1;
nodes = (
(317,185,ls),
(317,108,o),
(257,58,o),
(204,58,cs),
(168,58,o),
(140,81,o),
(140,120,cs),
(140,160,o),
(170,179,o),
(242,202,cs),
(317,226,l)
);
}
);
width = 484;
}
);
note = abreve.ss02;
},
{
glyphname = _154;
kernLeft = a.salt;
kernRight = a.salt;
layers = (
{
layerId = m01;
shapes = (
{
closed = 1;
nodes = (
(362,694,l),
(280,620,l),
(200,694,l),
(126,694,l),
(239,556,l),
(320,556,l),
(433,694,l)
);
},
{
closed = 1;
nodes = (
(42,82,o),
(139,-12,o),
(245,-12,cs),
(304,-12,o),
(357,16,o),
(393,71,c),
(397,71,l),
(397,-3,l),
(399,-3,l),
(511,11,l),
(511,16,l),
(492,41,o),
(489,70,o),
(489,135,cs),
(489,474,l),
(428,474,l),
(407,418,l),
(402,418,l),
(374,458,o),
(322,486,o),
(262,486,cs),
(141,486,o),
(42,382,o),
(42,232,cs)
);
},
{
closed = 1;
nodes = (
(397,208,ls),
(397,122,o),
(340,60,o),
(272,60,cs),
(191,60,o),
(138,132,o),
(138,241,cs),
(138,350,o),
(194,424,o),
(275,424,cs),
(347,424,o),
(397,363,o),
(397,266,cs)
);
}
);
width = 570;
}
);
note = _154;
},
{
glyphname = acircumflex;
kernLeft = a;
layers = (
{
layerId = m01;
shapes = (
{
closed = 1;
nodes = (
(313,556,l),
(387,556,l),
(275,694,l),
(193,694,l),
(80,556,l),
(151,556,l),
(233,630,l)
);
},
{
closed = 1;
nodes = (
(474,59,l),
(463,54,o),
(452,52,o),
(443,52,cs),
(420,52,o),
(408,66,o),
(408,94,cs),
(408,307,ls),
(408,427,o),
(337,486,o),
(232,486,cs),
(168,486,o),
(105,460,o),
(57,419,c),
(67,368,l),
(116,399,o),
(163,414,o),
(208,414,cs),
(273,414,o),
(317,381,o),
(317,310,cs),
(317,279,l),
(217,253,ls),
(104,224,o),
(44,184,o),
(44,108,cs),
(44,39,o),
(100,-12,o),
(172,-12,cs),
(231,-12,o),
(279,16,o),
(314,71,c),
(318,71,l),
(318,69,ls),
(321,21,o),
(358,-11,o),
(405,-11,cs),
(434,-11,o),
(459,-3,o),
(481,13,c)
);
},
{
closed = 1;
nodes = (
(317,186,ls),
(317,108,o),
(257,58,o),
(204,58,cs),
(168,58,o),
(140,82,o),
(140,119,cs),
(140,159,o),
(170,179,o),
(242,202,cs),
(317,226,l)
);
}
);
width = 495;
}
);
note = acircumflex;
unicode = 226;
},
{
glyphname = acircumflex.salt;
kernLeft = a.salt;
kernRight = a.salt;
layers = (
{
layerId = m01;
shapes = (
{
closed = 1;
nodes = (
(197,556,l),
(279,630,l),
(359,556,l),
(433,556,l),
(321,694,l),
(239,694,l),
(126,556,l)
);
},
{
closed = 1;
nodes = (
(42,82,o),
(139,-12,o),
(245,-12,cs),
(304,-12,o),
(357,16,o),
(393,71,c),
(397,71,l),
(397,-3,l),
(399,-3,l),
(511,11,l),
(511,16,l),
(492,41,o),
(489,70,o),
(489,135,cs),
(489,474,l),
(428,474,l),
(407,418,l),
(402,418,l),
(374,458,o),
(322,486,o),
(262,486,cs),
(141,486,o),
(42,382,o),
(42,232,cs)
);
},
{
closed = 1;
nodes = (
(397,208,ls),
(397,122,o),
(340,60,o),
(272,60,cs),
(191,60,o),
(138,132,o),
(138,241,cs),
(138,350,o),
(194,424,o),
(275,424,cs),
(347,424,o),
(397,363,o),
(397,266,cs)
);
}
);
width = 570;
}
);
note = acircumflex.salt;
},
{
glyphname = acircumflex.ss02;
kernLeft = a;
kernRight = a.ss02;
layers = (
{
layerId = m01;
shapes = (
{
closed = 1;
nodes = (
(313,556,l),
(387,556,l),
(275,694,l),
(193,694,l),
(80,556,l),
(151,556,l),
(233,630,l)
);
},
{
closed = 1;
nodes = (
(408,307,ls),
(408,427,o),
(338,486,o),
(231,486,cs),
(167,486,o),
(105,460,o),
(57,419,c),
(67,368,l),
(118,399,o),
(165,414,o),
(208,414,cs),
(275,414,o),
(317,381,o),
(317,310,cs),
(317,279,l),
(217,253,ls),
(104,224,o),
(44,184,o),
(44,109,cs),
(44,37,o),
(100,-12,o),
(172,-12,cs),
(231,-12,o),
(278,16,o),
(313,71,c),
(317,71,l),
(317,-3,l),
(319,-3,l),
(429,11,l),
(429,16,l),
(412,41,o),
(408,65,o),
(408,126,cs)
);
},
{
closed = 1;
nodes = (
(317,185,ls),
(317,108,o),
(257,58,o),
(204,58,cs),
(168,58,o),
(140,81,o),
(140,120,cs),
(140,160,o),
(170,179,o),
(242,202,cs),
(317,226,l)
);
}
);
width = 484;
}
);
note = acircumflex.ss02;
},
{
glyphname = adieresis;
kernLeft = a;
layers = (
{
layerId = m01;
shapes = (
{
closed = 1;
nodes = (
(75,591,o),
(102,563,o),
(138,563,cs),
(173,563,o),
(200,591,o),
(200,627,cs),
(200,662,o),
(173,689,o),
(138,689,cs),
(102,689,o),
(75,662,o),
(75,627,cs)
);
},
{
closed = 1;
nodes = (
(266,591,o),
(293,563,o),
(329,563,cs),
(364,563,o),
(391,591,o),
(391,627,cs),
(391,660,o),
(362,689,o),
(329,689,cs),
(293,689,o),
(266,662,o),
(266,627,cs)
);
},
{
closed = 1;
nodes = (
(474,59,l),
(463,54,o),
(452,52,o),
(443,52,cs),
(420,52,o),
(408,66,o),
(408,94,cs),
(408,307,ls),
(408,427,o),
(337,486,o),
(232,486,cs),
(168,486,o),
(105,460,o),
(57,419,c),
(67,368,l),
(116,399,o),
(163,414,o),
(208,414,cs),
(273,414,o),
(317,381,o),
(317,310,cs),
(317,279,l),
(217,253,ls),
(104,224,o),
(44,184,o),
(44,108,cs),
(44,39,o),
(100,-12,o),
(172,-12,cs),
(231,-12,o),
(279,16,o),
(314,71,c),
(318,71,l),
(318,69,ls),
(321,21,o),
(358,-11,o),
(405,-11,cs),
(434,-11,o),
(459,-3,o),
(481,13,c)
);
},
{
closed = 1;
nodes = (
(317,186,ls),
(317,108,o),
(257,58,o),
(204,58,cs),
(168,58,o),
(140,82,o),
(140,119,cs),
(140,159,o),
(170,179,o),
(242,202,cs),
(317,226,l)
);
}
);
width = 495;
}
);
note = adieresis;
unicode = 228;
},
{
glyphname = adieresis.salt;
kernLeft = a.salt;
kernRight = a.salt;
layers = (
{
layerId = m01;
shapes = (
{
closed = 1;
nodes = (
(121,591,o),
(148,563,o),
(184,563,cs),
(219,563,o),
(246,591,o),
(246,627,cs),
(246,662,o),
(219,689,o),
(184,689,cs),
(148,689,o),
(121,662,o),
(121,627,cs)
);
},
{
closed = 1;
nodes = (
(312,591,o),
(339,563,o),
(375,563,cs),
(410,563,o),
(437,591,o),
(437,627,cs),
(437,660,o),
(408,689,o),
(375,689,cs),
(339,689,o),
(312,662,o),
(312,627,cs)
);
},
{
closed = 1;
nodes = (
(42,82,o),
(139,-12,o),
(245,-12,cs),
(304,-12,o),
(357,16,o),
(393,71,c),
(397,71,l),
(397,-3,l),
(399,-3,l),
(511,11,l),
(511,16,l),
(492,41,o),
(489,70,o),
(489,135,cs),
(489,474,l),
(428,474,l),
(407,418,l),
(402,418,l),
(374,458,o),
(322,486,o),
(262,486,cs),
(141,486,o),
(42,382,o),
(42,232,cs)
);
},
{
closed = 1;
nodes = (
(397,208,ls),
(397,122,o),
(340,60,o),
(272,60,cs),
(191,60,o),
(138,132,o),
(138,241,cs),
(138,350,o),
(194,424,o),
(275,424,cs),
(347,424,o),
(397,363,o),
(397,266,cs)
);
}
);
width = 570;
}
);
note = adieresis.salt;
},
{
glyphname = adieresis.ss02;
kernLeft = a;
kernRight = a.ss02;
layers = (
{
layerId = m01;
shapes = (
{
closed = 1;
nodes = (
(75,591,o),
(102,563,o),
(138,563,cs),
(173,563,o),
(200,591,o),
(200,627,cs),
(200,662,o),
(173,689,o),
(138,689,cs),
(102,689,o),
(75,662,o),
(75,627,cs)
);
},
{
closed = 1;
nodes = (
(266,591,o),
(293,563,o),
(329,563,cs),
(364,563,o),
(391,591,o),
(391,627,cs),
(391,660,o),
(362,689,o),
(329,689,cs),
(293,689,o),
(266,662,o),
(266,627,cs)
);
},
{
closed = 1;
nodes = (
(408,307,ls),
(408,427,o),
(338,486,o),
(231,486,cs),
(167,486,o),
(105,460,o),
(57,419,c),
(67,368,l),
(118,399,o),
(165,414,o),
(208,414,cs),
(275,414,o),
(317,381,o),
(317,310,cs),
(317,279,l),
(217,253,ls),
(104,224,o),
(44,184,o),
(44,109,cs),
(44,37,o),
(100,-12,o),
(172,-12,cs),
(231,-12,o),
(278,16,o),
(313,71,c),
(317,71,l),
(317,-3,l),
(319,-3,l),
(429,11,l),
(429,16,l),
(412,41,o),
(408,65,o),
(408,126,cs)
);
},
{
closed = 1;
nodes = (
(317,185,ls),
(317,108,o),
(257,58,o),
(204,58,cs),
(168,58,o),
(140,81,o),
(140,120,cs),
(140,160,o),
(170,179,o),
(242,202,cs),
(317,226,l)
);
}
);
width = 484;
}
);
note = adieresis.ss02;
},
{
glyphname = uni0227;
kernLeft = a;
layers = (
{
layerId = m01;
shapes = (
{
closed = 1;
nodes = (
(168,590,o),
(197,561,o),
(234,561,cs),
(269,561,o),
(298,590,o),
(298,627,cs),
(298,662,o),
(269,692,o),
(234,692,cs),
(198,692,o),
(168,663,o),
(168,627,cs)
);
},
{
closed = 1;
nodes = (
(474,59,l),
(463,54,o),
(452,52,o),
(443,52,cs),
(420,52,o),
(408,66,o),
(408,94,cs),
(408,307,ls),
(408,427,o),
(337,486,o),
(232,486,cs),
(168,486,o),
(105,460,o),
(57,419,c),
(67,368,l),
(116,399,o),
(163,414,o),
(208,414,cs),
(273,414,o),
(317,381,o),
(317,310,cs),
(317,279,l),
(217,253,ls),
(104,224,o),
(44,184,o),
(44,108,cs),
(44,39,o),
(100,-12,o),
(172,-12,cs),
(231,-12,o),
(279,16,o),
(314,71,c),
(318,71,l),
(318,69,ls),
(321,21,o),
(358,-11,o),
(405,-11,cs),
(434,-11,o),
(459,-3,o),
(481,13,c)
);
},
{
closed = 1;
nodes = (
(317,186,ls),
(317,108,o),
(257,58,o),
(204,58,cs),
(168,58,o),
(140,82,o),
(140,119,cs),
(140,159,o),
(170,179,o),
(242,202,cs),
(317,226,l)
);
}
);
width = 495;
}
);
note = uni0227;
unicode = 551;
},
{
glyphname = uni0227.salt;
kernLeft = a.salt;
kernRight = a.salt;
layers = (
{
layerId = m01;
shapes = (
{
closed = 1;
nodes = (
(214,590,o),
(243,561,o),
(280,561,cs),
(315,561,o),
(344,590,o),
(344,627,cs),
(344,662,o),
(315,692,o),
(280,692,cs),
(244,692,o),
(214,663,o),
(214,627,cs)
);
},
{
closed = 1;
nodes = (
(42,82,o),
(139,-12,o),
(245,-12,cs),
(304,-12,o),
(357,16,o),
(393,71,c),
(397,71,l),
(397,-3,l),
(399,-3,l),
(511,11,l),
(511,16,l),
(492,41,o),
(489,70,o),
(489,135,cs),
(489,474,l),
(428,474,l),
(407,418,l),
(402,418,l),
(374,458,o),
(322,486,o),
(262,486,cs),
(141,486,o),
(42,382,o),
(42,232,cs)
);
},
{
closed = 1;
nodes = (
(397,208,ls),
(397,122,o),
(340,60,o),
(272,60,cs),
(191,60,o),
(138,132,o),
(138,241,cs),
(138,350,o),
(194,424,o),
(275,424,cs),
(347,424,o),
(397,363,o),
(397,266,cs)
);
}
);
width = 570;
}
);
note = uni0227.salt;
},
{
glyphname = uni0227.ss02;
kernLeft = a;
kernRight = a.ss02;
layers = (
{
layerId = m01;
shapes = (
{
closed = 1;
nodes = (
(168,590,o),
(197,561,o),
(234,561,cs),
(269,561,o),
(298,590,o),
(298,627,cs),
(298,662,o),
(269,692,o),
(234,692,cs),
(198,692,o),
(168,663,o),
(168,627,cs)
);
},
{
closed = 1;
nodes = (
(408,307,ls),
(408,427,o),
(338,486,o),
(231,486,cs),
(167,486,o),
(105,460,o),
(57,419,c),
(67,368,l),
(118,399,o),
(165,414,o),
(208,414,cs),
(275,414,o),
(317,381,o),
(317,310,cs),
(317,279,l),
(217,253,ls),
(104,224,o),
(44,184,o),
(44,109,cs),
(44,37,o),
(100,-12,o),
(172,-12,cs),
(231,-12,o),
(278,16,o),
(313,71,c),
(317,71,l),
(317,-3,l),
(319,-3,l),
(429,11,l),
(429,16,l),
(412,41,o),
(408,65,o),
(408,126,cs)
);
},
{
closed = 1;
nodes = (
(317,185,ls),
(317,108,o),
(257,58,o),
(204,58,cs),
(168,58,o),
(140,81,o),
(140,120,cs),
(140,160,o),
(170,179,o),
(242,202,cs),
(317,226,l)
);
}
);
width = 484;
}
);
note = uni0227.ss02;
},
{
glyphname = agrave;
kernLeft = a;
layers = (
{
layerId = m01;
shapes = (
{
closed = 1;
nodes = (
(214,694,l),
(105,694,l),
(105,693,l),
(217,556,l),
(279,556,l)
);
},
{
closed = 1;
nodes = (
(474,59,l),
(463,54,o),
(452,52,o),
(443,52,cs),
(420,52,o),
(408,66,o),
(408,94,cs),
(408,307,ls),
(408,427,o),
(337,486,o),
(232,486,cs),
(168,486,o),
(105,460,o),
(57,419,c),
(67,368,l),
(116,399,o),
(163,414,o),
(208,414,cs),
(273,414,o),
(317,381,o),
(317,310,cs),
(317,279,l),
(217,253,ls),
(104,224,o),
(44,184,o),
(44,108,cs),
(44,39,o),
(100,-12,o),
(172,-12,cs),
(231,-12,o),
(279,16,o),
(314,71,c),
(318,71,l),
(318,69,ls),
(321,21,o),
(358,-11,o),
(405,-11,cs),
(434,-11,o),
(459,-3,o),
(481,13,c)
);
},
{
closed = 1;
nodes = (
(317,186,ls),
(317,108,o),
(257,58,o),
(204,58,cs),
(168,58,o),
(140,82,o),
(140,119,cs),
(140,159,o),
(170,179,o),
(242,202,cs),
(317,226,l)
);
}
);
width = 495;
}
);
note = agrave;
unicode = 224;
},
{
glyphname = agrave.salt;
kernLeft = a.salt;
kernRight = a.salt;
layers = (
{
layerId = m01;
shapes = (
{
closed = 1;
nodes = (
(260,694,l),
(151,694,l),
(151,693,l),
(263,556,l),
(325,556,l)
);
},
{
closed = 1;
nodes = (
(42,82,o),
(139,-12,o),
(245,-12,cs),
(304,-12,o),
(357,16,o),
(393,71,c),
(397,71,l),
(397,-3,l),
(399,-3,l),
(511,11,l),
(511,16,l),
(492,41,o),
(489,70,o),
(489,135,cs),
(489,474,l),
(428,474,l),
(407,418,l),
(402,418,l),
(374,458,o),
(322,486,o),
(262,486,cs),
(141,486,o),
(42,382,o),
(42,232,cs)
);
},
{
closed = 1;
nodes = (
(397,208,ls),
(397,122,o),
(340,60,o),
(272,60,cs),
(191,60,o),
(138,132,o),
(138,241,cs),
(138,350,o),
(194,424,o),
(275,424,cs),
(347,424,o),
(397,363,o),
(397,266,cs)
);
}
);
width = 570;
}
);
note = agrave.salt;
},
{
glyphname = agrave.ss02;
kernLeft = a;
kernRight = a.ss02;
layers = (
{
layerId = m01;
shapes = (
{
closed = 1;
nodes = (
(214,694,l),
(105,694,l),
(105,693,l),
(217,556,l),
(279,556,l)
);
},
{
closed = 1;
nodes = (
(408,307,ls),
(408,427,o),
(338,486,o),
(231,486,cs),
(167,486,o),
(105,460,o),
(57,419,c),
(67,368,l),
(118,399,o),
(165,414,o),
(208,414,cs),
(275,414,o),
(317,381,o),
(317,310,cs),
(317,279,l),
(217,253,ls),
(104,224,o),
(44,184,o),
(44,109,cs),
(44,37,o),
(100,-12,o),
(172,-12,cs),
(231,-12,o),
(278,16,o),
(313,71,c),
(317,71,l),
(317,-3,l),
(319,-3,l),
(429,11,l),
(429,16,l),
(412,41,o),
(408,65,o),
(408,126,cs)
);
},
{
closed = 1;
nodes = (
(317,185,ls),
(317,108,o),
(257,58,o),
(204,58,cs),
(168,58,o),
(140,81,o),
(140,120,cs),
(140,160,o),
(170,179,o),
(242,202,cs),
(317,226,l)
);
}
);
width = 484;
}
);
note = agrave.ss02;
},
{
glyphname = amacron;
kernLeft = a;
layers = (
{
layerId = m01;
shapes = (
{
closed = 1;
nodes = (
(82,640,l),
(82,579,l),
(389,579,l),
(389,640,l)
);
},
{
closed = 1;
nodes = (
(474,59,l),
(463,54,o),
(452,52,o),
(443,52,cs),
(420,52,o),
(408,66,o),
(408,94,cs),
(408,307,ls),
(408,427,o),
(337,486,o),
(232,486,cs),
(168,486,o),
(105,460,o),
(57,419,c),
(67,368,l),
(116,399,o),
(163,414,o),
(208,414,cs),
(273,414,o),
(317,381,o),
(317,310,cs),
(317,279,l),
(217,253,ls),
(104,224,o),
(44,184,o),
(44,108,cs),
(44,39,o),
(100,-12,o),
(172,-12,cs),
(231,-12,o),
(279,16,o),
(314,71,c),
(318,71,l),
(318,69,ls),
(321,21,o),
(358,-11,o),
(405,-11,cs),
(434,-11,o),
(459,-3,o),
(481,13,c)
);
},
{
closed = 1;
nodes = (
(317,186,ls),
(317,108,o),
(257,58,o),
(204,58,cs),
(168,58,o),
(140,82,o),
(140,119,cs),
(140,159,o),
(170,179,o),
(242,202,cs),
(317,226,l)
);
}
);
width = 495;
}
);
note = amacron;
unicode = 257;
},
{
glyphname = amacron.salt;
kernLeft = a.salt;
kernRight = a.salt;
layers = (
{
layerId = m01;
shapes = (
{
closed = 1;
nodes = (
(435,579,l),
(435,640,l),
(128,640,l),
(128,579,l)
);
},
{
closed = 1;
nodes = (
(42,82,o),
(139,-12,o),
(245,-12,cs),
(304,-12,o),
(357,16,o),
(393,71,c),
(397,71,l),
(397,-3,l),
(399,-3,l),
(511,11,l),
(511,16,l),
(492,41,o),
(489,70,o),
(489,135,cs),
(489,474,l),
(428,474,l),
(407,418,l),
(402,418,l),
(374,458,o),
(322,486,o),
(262,486,cs),
(141,486,o),
(42,382,o),
(42,232,cs)
);
},
{
closed = 1;
nodes = (
(397,208,ls),
(397,122,o),
(340,60,o),
(272,60,cs),
(191,60,o),
(138,132,o),
(138,241,cs),
(138,350,o),
(194,424,o),
(275,424,cs),
(347,424,o),
(397,363,o),
(397,266,cs)
);
}
);
width = 570;
}
);
note = amacron.salt;
},
{
glyphname = amacron.ss02;
kernLeft = a;
kernRight = a.ss02;
layers = (
{
layerId = m01;
shapes = (
{
closed = 1;
nodes = (
(82,640,l),
(82,579,l),
(389,579,l),
(389,640,l)
);
},
{
closed = 1;
nodes = (
(408,307,ls),
(408,427,o),
(338,486,o),
(231,486,cs),
(167,486,o),
(105,460,o),
(57,419,c),
(67,368,l),
(118,399,o),
(165,414,o),
(208,414,cs),
(275,414,o),
(317,381,o),
(317,310,cs),
(317,279,l),
(217,253,ls),
(104,224,o),
(44,184,o),
(44,109,cs),
(44,37,o),
(100,-12,o),
(172,-12,cs),
(231,-12,o),
(278,16,o),
(313,71,c),
(317,71,l),
(317,-3,l),
(319,-3,l),
(429,11,l),
(429,16,l),
(412,41,o),
(408,65,o),
(408,126,cs)
);
},
{
closed = 1;
nodes = (
(317,185,ls),
(317,108,o),
(257,58,o),
(204,58,cs),
(168,58,o),
(140,81,o),
(140,120,cs),
(140,160,o),
(170,179,o),
(242,202,cs),
(317,226,l)
);
}
);
width = 484;
}
);
note = amacron.ss02;
},
{
glyphname = aogonek;
kernLeft = a;
layers = (
{
layerId = m01;
shapes = (
{
closed = 1;
nodes = (
(460,-135,l),
(443,-146,o),
(426,-151,o),
(411,-151,cs),
(380,-151,o),
(360,-129,o),
(360,-98,cs),
(360,-61,o),
(393,-28,o),
(459,0,cs),
(468,4,o),
(475,8,o),
(481,13,c),
(474,59,l),
(463,54,o),
(452,52,o),
(443,52,cs),
(420,52,o),
(408,66,o),
(408,94,cs),
(408,307,ls),
(408,427,o),
(337,486,o),
(232,486,cs),
(168,486,o),
(105,460,o),
(57,419,c),
(67,368,l),
(116,399,o),
(163,414,o),
(208,414,cs),
(273,414,o),
(317,381,o),
(317,310,cs),
(317,279,l),
(217,253,ls),
(104,224,o),
(44,184,o),
(44,108,cs),
(44,39,o),
(100,-12,o),
(172,-12,cs),
(231,-12,o),
(279,16,o),
(314,71,c),
(318,71,l),
(318,69,ls),
(319,33,o),
(341,5,o),
(373,-6,c),
(328,-30,o),
(295,-68,o),
(295,-113,cs),
(295,-166,o),
(336,-203,o),
(395,-203,cs),
(424,-203,o),
(449,-193,o),
(469,-173,c)
);
},
{
closed = 1;
nodes = (
(317,186,ls),
(317,108,o),
(257,58,o),
(204,58,cs),
(168,58,o),
(140,82,o),
(140,119,cs),
(140,159,o),
(170,179,o),
(242,202,cs),
(317,226,l)
);
}
);
width = 495;
}
);
note = aogonek;
unicode = 261;
},
{
glyphname = aogonek.salt;
kernLeft = a.salt;
kernRight = a.salt;
layers = (
{
layerId = m01;
shapes = (
{
closed = 1;
nodes = (
(510,11,l),
(510,16,l),
(491,41,o),
(489,69,o),
(489,137,cs),
(489,474,l),
(428,474,l),
(406,418,l),
(401,418,l),
(370,459,o),
(321,486,o),
(262,486,cs),
(142,486,o),
(41,382,o),
(41,232,cs),
(41,82,o),
(138,-12,o),
(245,-12,cs),
(304,-12,o),
(357,18,o),
(392,71,c),
(396,71,l),
(396,0,l),
(347,-25,o),
(312,-64,o),
(312,-112,cs),
(312,-165,o),
(354,-203,o),
(413,-203,cs),
(443,-203,o),
(468,-193,o),
(487,-173,c),
(479,-135,l),
(461,-146,o),
(444,-151,o),
(429,-151,cs),
(400,-151,o),
(379,-130,o),
(379,-98,cs),
(379,-54,o),
(417,-13,o),
(486,4,cs)
);
},
{
closed = 1;
nodes = (
(396,206,ls),
(396,123,o),
(341,60,o),
(272,60,cs),
(191,60,o),
(137,132,o),
(137,241,cs),
(137,350,o),
(194,424,o),
(275,424,cs),
(347,424,o),
(396,363,o),
(396,266,cs)
);
}
);
width = 570;
}
);
note = aogonek.salt;
},
{
glyphname = aogonek.ss02;
kernLeft = a;
kernRight = a.ss02;
layers = (
{
layerId = m01;
shapes = (
{
closed = 1;
nodes = (
(429,11,l),
(429,24,l),
(412,49,o),
(408,76,o),
(408,139,cs),
(408,307,ls),
(408,427,o),
(337,486,o),
(229,486,cs),
(168,486,o),
(105,459,o),
(57,419,c),
(67,368,l),
(115,399,o),
(161,414,o),
(206,414,cs),
(274,414,o),
(317,382,o),
(317,310,cs),
(317,279,l),
(216,253,ls),
(104,224,o),
(44,185,o),
(44,110,cs),
(44,38,o),
(100,-12,o),
(172,-12,cs),
(233,-12,o),
(280,16,o),
(313,71,c),
(317,71,l),
(317,1,l),
(268,-23,o),
(232,-64,o),
(232,-112,cs),
(232,-165,o),
(273,-203,o),
(332,-203,cs),
(360,-203,o),
(385,-193,o),
(407,-173,c),
(397,-135,l),
(380,-146,o),
(364,-151,o),
(348,-151,cs),
(317,-151,o),
(297,-130,o),
(297,-98,cs),
(297,-55,o),
(331,-19,o),
(404,4,cs)
);
},
{
closed = 1;
nodes = (
(317,169,l),
(305,102,o),
(256,58,o),
(204,58,cs),
(167,58,o),
(140,80,o),
(140,120,cs),
(140,159,o),
(172,180,o),
(240,201,cs),
(317,226,l)
);
}
);
width = 484;
}
);
note = aogonek.ss02;
},
{
glyphname = aring;
kernLeft = a;
layers = (
{
layerId = m01;
shapes = (
{
closed = 1;
nodes = (
(129,576,o),
(177,530,o),
(234,530,cs),
(291,530,o),
(337,576,o),
(337,632,cs),
(337,687,o),
(291,732,o),
(234,732,cs),
(205,732,o),
(181,722,o),
(160,702,cs),
(139,683,o),
(129,659,o),
(129,632,cs)
);
},
{
closed = 1;
nodes = (
(186,660,o),
(207,680,o),
(234,680,cs),
(261,680,o),
(281,660,o),
(281,632,cs),
(281,603,o),
(261,583,o),
(234,583,cs),
(206,583,o),
(186,603,o),
(186,632,cs)
);
},
{
closed = 1;
nodes = (
(474,59,l),
(463,54,o),
(452,52,o),
(443,52,cs),
(420,52,o),
(408,66,o),
(408,94,cs),
(408,307,ls),
(408,427,o),
(337,486,o),
(232,486,cs),
(168,486,o),
(105,460,o),
(57,419,c),
(67,368,l),
(116,399,o),
(163,414,o),
(208,414,cs),
(273,414,o),
(317,381,o),
(317,310,cs),
(317,279,l),
(217,253,ls),
(104,224,o),
(44,184,o),
(44,108,cs),
(44,39,o),
(100,-12,o),
(172,-12,cs),
(231,-12,o),
(279,16,o),
(314,71,c),
(318,71,l),
(318,69,ls),
(321,21,o),
(358,-11,o),
(405,-11,cs),
(434,-11,o),
(459,-3,o),
(481,13,c)
);
},
{
closed = 1;
nodes = (
(317,186,ls),
(317,108,o),
(257,58,o),
(204,58,cs),
(168,58,o),
(140,82,o),
(140,119,cs),
(140,159,o),
(170,179,o),
(242,202,cs),
(317,226,l)
);
}
);
width = 495;
}
);
note = aring;
unicode = 229;
},
{
glyphname = aring.salt;
kernLeft = a.salt;
kernRight = a.salt;
layers = (
{
layerId = m01;
shapes = (
{
closed = 1;
nodes = (
(175,576,o),
(223,530,o),
(280,530,cs),
(337,530,o),
(383,576,o),
(383,632,cs),
(383,687,o),
(337,732,o),
(280,732,cs),
(251,732,o),
(227,722,o),
(206,702,cs),
(185,683,o),
(175,659,o),
(175,632,cs)
);
},
{
closed = 1;
nodes = (
(327,603,o),
(307,583,o),
(280,583,cs),
(252,583,o),
(232,603,o),
(232,632,cs),
(232,660,o),
(253,680,o),
(280,680,cs),
(307,680,o),
(327,660,o),
(327,632,cs)
);
},
{
closed = 1;
nodes = (
(42,82,o),
(139,-12,o),
(245,-12,cs),
(304,-12,o),
(357,16,o),
(393,71,c),
(397,71,l),
(397,-3,l),
(399,-3,l),
(511,11,l),
(511,16,l),
(492,41,o),
(489,70,o),
(489,135,cs),
(489,474,l),
(428,474,l),
(407,418,l),
(402,418,l),
(374,458,o),
(322,486,o),
(262,486,cs),
(141,486,o),
(42,382,o),
(42,232,cs)
);
},
{
closed = 1;
nodes = (
(397,208,ls),
(397,122,o),
(340,60,o),
(272,60,cs),
(191,60,o),
(138,132,o),
(138,241,cs),
(138,350,o),
(194,424,o),
(275,424,cs),
(347,424,o),
(397,363,o),
(397,266,cs)
);
}
);
width = 570;
}
);
note = aring.salt;
},
{
glyphname = aring.ss02;
kernLeft = a;
kernRight = a.ss02;
layers = (
{
layerId = m01;
shapes = (
{
closed = 1;
nodes = (
(129,576,o),
(177,530,o),
(234,530,cs),
(291,530,o),
(337,576,o),
(337,632,cs),
(337,687,o),
(291,732,o),
(234,732,cs),
(205,732,o),
(181,722,o),
(160,702,cs),
(139,683,o),
(129,659,o),
(129,632,cs)
);
},
{
closed = 1;
nodes = (
(186,660,o),
(207,680,o),
(234,680,cs),
(261,680,o),
(281,660,o),
(281,632,cs),
(281,603,o),
(261,583,o),
(234,583,cs),
(206,583,o),
(186,603,o),
(186,632,cs)
);
},
{
closed = 1;
nodes = (
(408,307,ls),
(408,427,o),
(338,486,o),
(231,486,cs),
(167,486,o),
(105,460,o),
(57,419,c),
(67,368,l),
(118,399,o),
(165,414,o),
(208,414,cs),
(275,414,o),
(317,381,o),
(317,310,cs),
(317,279,l),
(217,253,ls),
(104,224,o),
(44,184,o),
(44,109,cs),
(44,37,o),
(100,-12,o),
(172,-12,cs),
(231,-12,o),
(278,16,o),
(313,71,c),
(317,71,l),
(317,-3,l),
(319,-3,l),
(429,11,l),
(429,16,l),
(412,41,o),
(408,65,o),
(408,126,cs)
);
},
{
closed = 1;
nodes = (
(317,185,ls),
(317,108,o),
(257,58,o),
(204,58,cs),
(168,58,o),
(140,81,o),
(140,120,cs),
(140,160,o),
(170,179,o),
(242,202,cs),
(317,226,l)
);
}
);
width = 484;
}
);
note = aring.ss02;
},
{
glyphname = atilde;
kernLeft = a;
layers = (
{
layerId = m01;
shapes = (
{
closed = 1;
nodes = (
(124,560,l),
(129,599,o),
(141,616,o),
(164,616,cs),
(180,616,o),
(191,611,o),
(208,598,cs),
(226,585,ls),
(251,565,o),
(274,554,o),
(303,554,cs),
(355,554,o),
(396,598,o),
(399,677,c),
(345,677,l),
(338,638,o),
(327,621,o),
(303,621,cs),
(287,621,o),
(278,624,o),
(259,639,cs),
(241,652,ls),
(216,672,o),
(194,682,o),
(165,682,cs),
(113,682,o),
(73,640,o),
(69,560,c)
);
},
{
closed = 1;
nodes = (
(474,59,l),
(463,54,o),
(452,52,o),
(443,52,cs),
(420,52,o),
(408,66,o),
(408,94,cs),
(408,307,ls),
(408,427,o),
(337,486,o),
(232,486,cs),
(168,486,o),
(105,460,o),
(57,419,c),
(67,368,l),
(116,399,o),
(163,414,o),
(208,414,cs),
(273,414,o),
(317,381,o),
(317,310,cs),
(317,279,l),
(217,253,ls),
(104,224,o),
(44,184,o),
(44,108,cs),
(44,39,o),
(100,-12,o),
(172,-12,cs),
(231,-12,o),
(279,16,o),
(314,71,c),
(318,71,l),
(318,69,ls),
(321,21,o),
(358,-11,o),
(405,-11,cs),
(434,-11,o),
(459,-3,o),
(481,13,c)
);
},
{
closed = 1;
nodes = (
(317,186,ls),
(317,108,o),
(257,58,o),
(204,58,cs),
(168,58,o),
(140,82,o),
(140,119,cs),
(140,159,o),
(170,179,o),
(242,202,cs),
(317,226,l)
);
}
);
width = 495;
}
);
note = atilde;
unicode = 227;
},
{
glyphname = atilde.salt;
kernLeft = a.salt;
kernRight = a.salt;
layers = (
{
layerId = m01;
shapes = (
{
closed = 1;
nodes = (
(272,585,ls),
(297,565,o),
(320,554,o),
(349,554,cs),
(401,554,o),
(442,598,o),
(445,677,c),
(391,677,l),
(384,638,o),
(373,621,o),
(349,621,cs),
(333,621,o),
(324,624,o),
(305,639,cs),
(287,652,ls),
(262,672,o),
(240,682,o),
(211,682,cs),
(159,682,o),
(119,640,o),
(115,560,c),
(170,560,l),
(175,599,o),
(187,616,o),
(210,616,cs),
(226,616,o),
(237,611,o),
(254,598,cs)
);
},
{
closed = 1;
nodes = (
(42,82,o),
(139,-12,o),
(245,-12,cs),
(304,-12,o),
(357,16,o),
(393,71,c),
(397,71,l),
(397,-3,l),
(399,-3,l),
(511,11,l),
(511,16,l),
(492,41,o),
(489,70,o),
(489,135,cs),
(489,474,l),
(428,474,l),
(407,418,l),
(402,418,l),
(374,458,o),
(322,486,o),
(262,486,cs),
(141,486,o),
(42,382,o),
(42,232,cs)
);
},
{
closed = 1;
nodes = (
(397,208,ls),
(397,122,o),
(340,60,o),
(272,60,cs),
(191,60,o),
(138,132,o),
(138,241,cs),
(138,350,o),
(194,424,o),
(275,424,cs),
(347,424,o),
(397,363,o),
(397,266,cs)
);
}
);
width = 570;
}
);
note = atilde.salt;
},
{
glyphname = atilde.ss02;
kernLeft = a;
kernRight = a.ss02;
layers = (
{
layerId = m01;
shapes = (
{
closed = 1;
nodes = (
(124,560,l),
(129,599,o),
(141,616,o),
(164,616,cs),
(180,616,o),
(191,611,o),
(208,598,cs),
(226,585,ls),
(251,565,o),
(274,554,o),
(303,554,cs),
(355,554,o),
(396,598,o),
(399,677,c),
(345,677,l),
(338,638,o),
(327,621,o),
(303,621,cs),
(287,621,o),
(278,624,o),
(259,639,cs),
(241,652,ls),
(216,672,o),
(194,682,o),
(165,682,cs),
(113,682,o),
(73,640,o),
(69,560,c)
);
},
{
closed = 1;
nodes = (
(408,307,ls),
(408,427,o),
(338,486,o),
(231,486,cs),
(167,486,o),
(105,460,o),
(57,419,c),
(67,368,l),
(118,399,o),
(165,414,o),
(208,414,cs),
(275,414,o),
(317,381,o),
(317,310,cs),
(317,279,l),
(217,253,ls),
(104,224,o),
(44,184,o),
(44,109,cs),
(44,37,o),
(100,-12,o),
(172,-12,cs),
(231,-12,o),
(278,16,o),
(313,71,c),
(317,71,l),
(317,-3,l),
(319,-3,l),
(429,11,l),
(429,16,l),
(412,41,o),
(408,65,o),
(408,126,cs)
);
},
{
closed = 1;
nodes = (
(317,185,ls),
(317,108,o),
(257,58,o),
(204,58,cs),
(168,58,o),
(140,81,o),
(140,120,cs),
(140,160,o),
(170,179,o),
(242,202,cs),
(317,226,l)
);
}
);
width = 484;
}
);
note = atilde.ss02;
},
{
glyphname = ae;
kernLeft = a;
kernRight = ae;
layers = (
{
layerId = m01;
shapes = (
{
closed = 1;
nodes = (
(723,111,l),
(678,80,o),
(635,66,o),
(583,66,cs),
(483,66,o),
(416,131,o),
(411,250,c),
(728,250,l),
(728,288,ls),
(728,413,o),
(652,486,o),
(540,486,cs),
(476,486,o),
(422,460,o),
(382,415,c),
(377,415,l),
(349,462,o),
(300,486,o),
(230,486,cs),
(169,486,o),
(105,459,o),
(57,419,c),
(67,368,l),
(116,399,o),
(162,414,o),
(207,414,cs),
(274,414,o),
(317,381,o),
(317,310,cs),
(317,279,l),
(215,252,ls),
(104,224,o),
(44,182,o),
(44,110,cs),
(44,37,o),
(99,-12,o),
(176,-12,cs),
(252,-12,o),
(314,28,o),
(350,99,c),
(356,99,l),
(397,28,o),
(472,-12,o),
(559,-12,cs),
(628,-12,o),
(687,13,o),
(735,62,c)
);
},
{
closed = 1;
nodes = (
(414,309,l),
(426,382,o),
(469,425,o),
(534,425,cs),
(594,425,o),
(635,381,o),
(636,309,c)
);
},
{
closed = 1;
nodes = (
(317,188,ls),
(317,105,o),
(255,58,o),
(204,58,cs),
(167,58,o),
(140,81,o),
(140,120,cs),
(140,159,o),
(172,180,o),
(239,201,cs),
(317,226,l)
);
}
);
width = 775;
}
);
note = ae;
unicode = 230;
},
{
glyphname = aeacute;
kernLeft = a;
kernRight = ae;
layers = (
{
layerId = m01;
shapes = (
{
closed = 1;
nodes = (
(511,694,l),
(400,694,l),
(336,556,l),
(394,556,l),
(511,693,l)
);
},
{
closed = 1;
nodes = (
(723,111,l),
(678,80,o),
(635,66,o),
(583,66,cs),
(483,66,o),
(416,131,o),
(411,250,c),
(728,250,l),
(728,288,ls),
(728,413,o),
(652,486,o),
(540,486,cs),
(476,486,o),
(422,460,o),
(382,415,c),
(377,415,l),
(349,462,o),
(300,486,o),
(230,486,cs),
(169,486,o),
(105,459,o),
(57,419,c),
(67,368,l),
(116,399,o),
(162,414,o),
(207,414,cs),
(274,414,o),
(317,381,o),
(317,310,cs),
(317,279,l),
(215,252,ls),
(104,224,o),
(44,182,o),
(44,110,cs),
(44,37,o),
(99,-12,o),
(176,-12,cs),
(252,-12,o),
(314,28,o),
(350,99,c),
(356,99,l),
(397,28,o),
(472,-12,o),
(559,-12,cs),
(628,-12,o),
(687,13,o),
(735,62,c)
);
},
{
closed = 1;
nodes = (
(414,309,l),
(426,382,o),
(469,425,o),
(534,425,cs),
(594,425,o),
(635,381,o),
(636,309,c)
);
},
{
closed = 1;
nodes = (
(317,188,ls),
(317,105,o),
(255,58,o),
(204,58,cs),
(167,58,o),
(140,81,o),
(140,120,cs),
(140,159,o),
(172,180,o),
(239,201,cs),
(317,226,l)
);
}
);
width = 775;
}
);
note = aeacute;
unicode = 509;
},
{
glyphname = uni01E3;
kernLeft = a;
kernRight = ae;
layers = (
{
layerId = m01;
shapes = (
{
closed = 1;
nodes = (
(231,640,l),
(231,579,l),
(538,579,l),
(538,640,l)
);
},
{
closed = 1;
nodes = (
(723,111,l),
(678,80,o),
(635,66,o),
(583,66,cs),
(483,66,o),
(416,131,o),
(411,250,c),
(728,250,l),
(728,288,ls),
(728,413,o),
(652,486,o),
(540,486,cs),
(476,486,o),
(422,460,o),
(382,415,c),
(377,415,l),
(349,462,o),
(300,486,o),
(230,486,cs),
(169,486,o),
(105,459,o),
(57,419,c),
(67,368,l),
(116,399,o),
(162,414,o),
(207,414,cs),
(274,414,o),
(317,381,o),
(317,310,cs),
(317,279,l),
(215,252,ls),
(104,224,o),
(44,182,o),
(44,110,cs),
(44,37,o),
(99,-12,o),
(176,-12,cs),
(252,-12,o),
(314,28,o),
(350,99,c),
(356,99,l),
(397,28,o),
(472,-12,o),
(559,-12,cs),
(628,-12,o),
(687,13,o),
(735,62,c)
);
},
{
closed = 1;
nodes = (
(414,309,l),
(426,382,o),
(469,425,o),
(534,425,cs),
(594,425,o),
(635,381,o),
(636,309,c)
);
},
{
closed = 1;
nodes = (
(317,188,ls),
(317,105,o),
(255,58,o),
(204,58,cs),
(167,58,o),
(140,81,o),
(140,120,cs),
(140,159,o),
(172,180,o),
(239,201,cs),
(317,226,l)
);
}
);
width = 775;
}
);
note = uni01E3;
unicode = 483;
},
{
glyphname = b;
kernLeft = b;
kernRight = b;
layers = (
{
layerId = m01;
shapes = (
{
closed = 1;
nodes = (
(163,57,l),
(195,13,o),
(249,-12,o),
(306,-12,cs),
(426,-12,o),
(527,90,o),
(527,244,cs),
(527,391,o),
(435,486,o),
(323,486,cs),
(260,486,o),
(210,458,o),
(174,403,c),
(170,403,l),
(170,713,l),
(167,713,l),
(52,701,l),
(52,695,l),
(71,670,o),
(77,642,o),
(77,585,cs),
(77,0,l),
(138,0,l),
(159,57,l)
);
},
{
closed = 1;
nodes = (
(432,126,o),
(377,50,o),
(293,50,cs),
(216,50,o),
(170,111,o),
(170,211,cs),
(170,266,ls),
(170,308,o),
(182,343,o),
(205,371,cs),
(229,400,o),
(260,414,o),
(297,414,cs),
(380,414,o),
(432,342,o),
(432,235,cs)
);
}
);
width = 569;
}
);
note = b;
unicode = 98;
},
{
glyphname = c;
kernLeft = c;
kernRight = c;
layers = (
{
layerId = m01;
shapes = (
{
closed = 1;
nodes = (
(41,94,o),
(140,-12,o),
(284,-12,cs),
(345,-12,o),
(399,11,o),
(446,57,c),
(434,105,l),
(393,79,o),
(351,66,o),
(307,66,cs),
(206,66,o),
(137,135,o),
(137,247,cs),
(137,351,o),
(200,422,o),
(296,422,cs),
(343,422,o),
(387,399,o),
(412,363,c),
(418,363,l),
(418,456,l),
(380,476,o),
(337,486,o),
(288,486,cs),
(144,486,o),
(41,378,o),
(41,235,cs)
);
}
);
width = 472;
}
);
note = c;
unicode = 99;
},
{
glyphname = cacute;
kernLeft = c;
kernRight = c;
layers = (
{
layerId = m01;
shapes = (
{
closed = 1;
nodes = (
(282,556,l),
(399,693,l),
(399,694,l),
(288,694,l),
(224,556,l)
);
},
{
closed = 1;
nodes = (
(41,94,o),
(140,-12,o),
(284,-12,cs),
(345,-12,o),
(399,11,o),
(446,57,c),
(434,105,l),
(393,79,o),
(351,66,o),
(307,66,cs),
(206,66,o),
(137,135,o),
(137,247,cs),
(137,351,o),
(200,422,o),
(296,422,cs),
(343,422,o),
(387,399,o),
(412,363,c),
(418,363,l),
(418,456,l),
(380,476,o),
(337,486,o),
(288,486,cs),
(144,486,o),
(41,378,o),
(41,235,cs)
);
}
);
width = 472;
}
);
note = cacute;
unicode = 263;
},
{
glyphname = ccaron;
kernLeft = c;
kernRight = c;
layers = (
{
layerId = m01;
shapes = (
{
closed = 1;
nodes = (
(352,694,l),
(270,620,l),
(190,694,l),
(116,694,l),
(229,556,l),
(310,556,l),
(423,694,l)
);
},
{
closed = 1;
nodes = (
(41,94,o),
(140,-12,o),
(284,-12,cs),
(345,-12,o),
(399,11,o),
(446,57,c),
(434,105,l),
(393,79,o),
(351,66,o),
(307,66,cs),
(206,66,o),
(137,135,o),
(137,247,cs),
(137,351,o),
(200,422,o),
(296,422,cs),
(343,422,o),
(387,399,o),
(412,363,c),
(418,363,l),
(418,456,l),
(380,476,o),
(337,486,o),
(288,486,cs),
(144,486,o),
(41,378,o),
(41,235,cs)
);
}
);
width = 472;
}
);
note = ccaron;
unicode = 269;
},
{
glyphname = ccedilla;
kernLeft = c;
kernRight = c;
layers = (
{
layerId = m01;
shapes = (
{
closed = 1;
nodes = (
(361,-73,o),
(328,-48,o),
(287,-48,cs),
(280,-48,o),
(273,-49,o),
(268,-50,c),
(266,-49,l),
(280,-12,l),
(284,-12,ls),
(345,-12,o),
(399,11,o),
(446,57,c),
(435,105,l),
(394,79,o),
(351,66,o),
(307,66,cs),
(206,66,o),
(137,135,o),
(137,247,cs),
(137,351,o),
(200,422,o),
(296,422,cs),
(343,422,o),
(386,399,o),
(413,363,c),
(418,363,l),
(418,456,l),
(382,475,o),
(334,486,o),
(289,486,cs),
(144,486,o),
(41,378,o),
(41,235,cs),
(41,171,o),
(59,117,o),
(96,72,cs),
(133,27,o),
(181,0,o),
(241,-9,c),
(209,-92,l),
(211,-93,l),
(223,-86,o),
(236,-83,o),
(251,-83,cs),
(276,-83,o),
(295,-96,o),
(295,-117,cs),
(295,-140,o),
(275,-155,o),
(240,-155,cs),
(215,-155,o),
(190,-146,o),
(165,-127,c),
(157,-163,l),
(188,-191,o),
(218,-204,o),
(255,-204,cs),
(316,-204,o),
(361,-166,o),
(361,-117,cs)
);
}
);
width = 472;
}
);
note = ccedilla;
unicode = 231;
},
{
glyphname = ccircumflex;
kernLeft = c;
kernRight = c;
layers = (
{
layerId = m01;
shapes = (
{
closed = 1;
nodes = (
(188,556,l),
(270,630,l),
(350,556,l),
(424,556,l),
(312,694,l),
(230,694,l),
(117,556,l)
);
},
{
closed = 1;
nodes = (
(41,94,o),
(140,-12,o),
(284,-12,cs),
(345,-12,o),
(399,11,o),
(446,57,c),
(434,105,l),
(393,79,o),
(351,66,o),
(307,66,cs),
(206,66,o),
(137,135,o),
(137,247,cs),
(137,351,o),
(200,422,o),
(296,422,cs),
(343,422,o),
(387,399,o),
(412,363,c),
(418,363,l),
(418,456,l),
(380,476,o),
(337,486,o),
(288,486,cs),
(144,486,o),
(41,378,o),
(41,235,cs)
);
}
);
width = 472;
}
);
note = ccircumflex;
unicode = 265;
},
{
glyphname = cdotaccent;
kernLeft = c;
kernRight = c;
layers = (
{
layerId = m01;
shapes = (
{
closed = 1;
nodes = (
(205,590,o),
(234,561,o),
(271,561,cs),
(306,561,o),
(335,590,o),
(335,627,cs),
(335,662,o),
(306,692,o),
(271,692,cs),
(235,692,o),
(205,663,o),
(205,627,cs)
);
},
{
closed = 1;
nodes = (
(41,94,o),
(140,-12,o),
(284,-12,cs),
(345,-12,o),
(399,11,o),
(446,57,c),
(434,105,l),
(393,79,o),
(351,66,o),
(307,66,cs),
(206,66,o),
(137,135,o),
(137,247,cs),
(137,351,o),
(200,422,o),
(296,422,cs),
(343,422,o),
(387,399,o),
(412,363,c),
(418,363,l),
(418,456,l),
(380,476,o),
(337,486,o),
(288,486,cs),
(144,486,o),
(41,378,o),
(41,235,cs)
);
}
);
width = 472;
}
);
note = cdotaccent;
unicode = 267;
},
{
glyphname = d;
kernLeft = a.salt;
kernRight = d;
layers = (
{
layerId = m01;
shapes = (
{
closed = 1;
nodes = (
(43,82,o),
(135,-12,o),
(247,-12,cs),
(308,-12,o),
(361,16,o),
(396,71,c),
(400,71,l),
(400,-3,l),
(403,-3,l),
(515,11,l),
(515,16,l),
(496,41,o),
(493,66,o),
(493,126,cs),
(493,713,l),
(490,713,l),
(375,701,l),
(375,695,l),
(395,668,o),
(400,644,o),
(400,585,cs),
(400,426,l),
(396,426,l),
(365,463,o),
(319,486,o),
(264,486,cs),
(141,486,o),
(43,381,o),
(43,231,cs)
);
},
{
closed = 1;
nodes = (
(400,206,ls),
(400,165,o),
(388,130,o),
(364,102,cs),
(340,74,o),
(310,60,o),
(274,60,cs),
(193,60,o),
(138,129,o),
(138,241,cs),
(138,350,o),
(194,424,o),
(278,424,cs),
(354,424,o),
(400,362,o),
(400,265,cs)
);
}
);
width = 573;
}
);
note = d;
unicode = 100;
},
{
glyphname = eth;
kernLeft = eth;
kernRight = eth;
layers = (
{
layerId = m01;
shapes = (
{
closed = 1;
nodes = (
(493,647,l),
(471,698,l),
(366,652,l),
(326,682,o),
(278,705,o),
(223,722,c),
(173,687,l),
(223,669,o),
(265,648,o),
(299,623,c),
(167,565,l),
(189,514,l),
(347,583,l),
(401,529,o),
(432,460,o),
(439,376,c),
(434,376,l),
(398,448,o),
(340,486,o),
(268,486,cs),
(143,486,o),
(41,382,o),
(41,240,cs),
(41,95,o),
(142,-12,o),
(271,-12,cs),
(427,-15,o),
(528,141,o),
(526,319,cs),
(526,438,o),
(488,535,o),
(413,612,c)
);
},
{
closed = 1;
nodes = (
(418,252,ls),
(418,128,o),
(359,50,o),
(275,50,cs),
(196,50,o),
(137,129,o),
(137,234,cs),
(137,345,o),
(198,417,o),
(281,417,cs),
(358,417,o),
(418,352,o),
(418,259,cs)
);
}
);
width = 577;
}
);
note = eth;
unicode = 240;
},
{
glyphname = dcaron;
kernLeft = a.salt;
kernRight = d;
layers = (
{
layerId = m01;
shapes = (
{
closed = 1;
nodes = (
(649,694,o),
(626,719,o),
(593,719,cs),
(562,719,o),
(541,695,o),
(541,666,cs),
(541,635,o),
(565,615,o),
(596,615,cs),
(598,615,l),
(540,517,l),
(584,517,l),
(630,600,ls),
(643,622,o),
(649,641,o),
(649,658,cs)
);
},
{
closed = 1;
nodes = (
(493,713,l),
(490,713,l),
(375,701,l),
(375,695,l),
(395,668,o),
(400,644,o),
(400,585,cs),
(400,426,l),
(396,426,l),
(365,463,o),
(319,486,o),
(264,486,cs),
(141,486,o),
(43,381,o),
(43,231,cs),
(43,82,o),
(135,-12,o),
(247,-12,cs),
(308,-12,o),
(361,16,o),
(396,71,c),
(400,71,l),
(400,-3,l),
(403,-3,l),
(515,11,l),
(515,16,l),
(496,41,o),
(493,66,o),
(493,126,cs)
);
},
{
closed = 1;
nodes = (
(400,206,ls),
(400,165,o),
(388,130,o),
(364,102,cs),
(340,74,o),
(310,60,o),
(274,60,cs),
(193,60,o),
(138,129,o),
(138,241,cs),
(138,350,o),
(194,424,o),
(278,424,cs),
(354,424,o),
(400,362,o),
(400,265,cs)
);
}
);
width = 573;
}
);
note = dcaron;
unicode = 271;
},
{
glyphname = dcaron.ss06;
kernLeft = a.salt;
kernRight = d;
layers = (
{
layerId = m01;
shapes = (
{
closed = 1;
nodes = (
(43,82,o),
(135,-12,o),
(247,-12,cs),
(308,-12,o),
(361,16,o),
(396,71,c),
(400,71,l),
(400,-3,l),
(403,-3,l),
(515,11,l),
(515,16,l),
(496,41,o),
(493,66,o),
(493,126,cs),
(493,713,l),
(490,713,l),
(375,701,l),
(375,695,l),
(395,668,o),
(400,644,o),
(400,585,cs),
(400,426,l),
(396,426,l),
(365,463,o),
(319,486,o),
(264,486,cs),
(141,486,o),
(43,381,o),
(43,231,cs)
);
},
{
closed = 1;
nodes = (
(573,520,l),
(663,708,l),
(663,710,l),
(572,710,l),
(536,520,l)
);
},
{
closed = 1;
nodes = (
(400,206,ls),
(400,165,o),
(388,130,o),
(364,102,cs),
(340,74,o),
(310,60,o),
(274,60,cs),
(193,60,o),
(138,129,o),
(138,241,cs),
(138,350,o),
(194,424,o),
(278,424,cs),
(354,424,o),
(400,362,o),
(400,265,cs)
);
}
);
width = 573;
}
);
note = dcaron.ss06;
},
{
glyphname = dcroat;
kernLeft = a.salt;
kernRight = d;
layers = (
{
layerId = m01;
shapes = (
{
closed = 1;
nodes = (
(558,534,l),
(558,592,l),
(493,592,l),
(493,713,l),
(490,713,l),
(375,701,l),
(375,695,l),
(394,670,o),
(400,644,o),
(400,592,c),
(264,592,l),
(264,534,l),
(400,534,l),
(400,426,l),
(396,426,l),
(365,463,o),
(319,486,o),
(264,486,cs),
(141,486,o),
(43,381,o),
(43,231,cs),
(43,82,o),
(135,-12,o),
(247,-12,cs),
(308,-12,o),
(361,16,o),
(396,71,c),
(400,71,l),
(400,-3,l),
(403,-3,l),
(515,11,l),
(515,16,l),
(496,41,o),
(493,66,o),
(493,126,cs),
(493,534,l)
);
},
{
closed = 1;
nodes = (
(400,206,ls),
(400,165,o),
(388,130,o),
(364,102,cs),
(340,74,o),
(310,60,o),
(274,60,cs),
(193,60,o),
(138,129,o),
(138,241,cs),
(138,350,o),
(194,424,o),
(278,424,cs),
(354,424,o),
(400,362,o),
(400,265,cs)
);
}
);
width = 573;
}
);
note = dcroat;
unicode = 273;
},
{
glyphname = e;
kernLeft = c;
kernRight = ae;
layers = (
{
layerId = m01;
shapes = (
{
closed = 1;
nodes = (
(446,111,l),
(401,80,o),
(359,66,o),
(307,66,cs),
(204,66,o),
(137,133,o),
(133,250,c),
(451,250,l),
(451,288,ls),
(451,413,o),
(374,486,o),
(262,486,cs),
(135,486,o),
(41,381,o),
(41,240,cs),
(41,88,o),
(146,-12,o),
(283,-12,cs),
(351,-12,o),
(409,13,o),
(457,62,c)
);
},
{
closed = 1;
nodes = (
(137,309,l),
(149,382,o),
(191,425,o),
(256,425,cs),
(316,425,o),
(357,381,o),
(358,309,c)
);
}
);
width = 498;
}
);
note = e;
unicode = 101;
},
{
glyphname = eacute;
kernLeft = c;
kernRight = ae;
layers = (
{
layerId = m01;
shapes = (
{
closed = 1;
nodes = (
(388,694,l),
(277,694,l),
(213,556,l),
(271,556,l),
(388,693,l)
);
},
{
closed = 1;
nodes = (
(446,111,l),
(401,80,o),
(359,66,o),
(307,66,cs),
(204,66,o),
(137,133,o),
(133,250,c),
(451,250,l),
(451,288,ls),
(451,413,o),
(374,486,o),
(262,486,cs),
(135,486,o),
(41,381,o),
(41,240,cs),
(41,88,o),
(146,-12,o),
(283,-12,cs),
(351,-12,o),
(409,13,o),
(457,62,c)
);
},
{
closed = 1;
nodes = (
(137,309,l),
(149,382,o),
(191,425,o),
(256,425,cs),
(316,425,o),
(357,381,o),
(358,309,c)
);
}
);
width = 498;
}
);
note = eacute;
unicode = 233;
},
{
glyphname = ebreve;
kernLeft = c;
kernRight = ae;
layers = (
{
layerId = m01;
shapes = (
{
closed = 1;
nodes = (
(130,694,l),
(133,610,o),
(183,557,o),
(259,557,cs),
(335,557,o),
(386,610,o),
(389,694,c),
(332,694,l),
(328,647,o),
(303,621,o),
(259,621,cs),
(216,621,o),
(191,647,o),
(186,694,c)
);
},
{
closed = 1;
nodes = (
(446,111,l),
(401,80,o),
(359,66,o),
(307,66,cs),
(204,66,o),
(137,133,o),
(133,250,c),
(451,250,l),
(451,288,ls),
(451,413,o),
(374,486,o),
(262,486,cs),
(135,486,o),
(41,381,o),
(41,240,cs),
(41,88,o),
(146,-12,o),
(283,-12,cs),
(351,-12,o),
(409,13,o),
(457,62,c)
);
},
{
closed = 1;
nodes = (
(137,309,l),
(149,382,o),
(191,425,o),
(256,425,cs),
(316,425,o),
(357,381,o),
(358,309,c)
);
}
);
width = 498;
}
);
note = ebreve;
unicode = 277;
},
{
glyphname = ecaron;
kernLeft = c;
kernRight = ae;
layers = (
{
layerId = m01;
shapes = (
{
closed = 1;
nodes = (
(412,694,l),
(341,694,l),
(259,620,l),
(179,694,l),
(105,694,l),
(218,556,l),
(299,556,l)
);
},
{
closed = 1;
nodes = (
(446,111,l),
(401,80,o),
(359,66,o),
(307,66,cs),
(204,66,o),
(137,133,o),
(133,250,c),
(451,250,l),
(451,288,ls),
(451,413,o),
(374,486,o),
(262,486,cs),
(135,486,o),
(41,381,o),
(41,240,cs),
(41,88,o),
(146,-12,o),
(283,-12,cs),
(351,-12,o),
(409,13,o),
(457,62,c)
);
},
{
closed = 1;
nodes = (
(137,309,l),
(149,382,o),
(191,425,o),
(256,425,cs),
(316,425,o),
(357,381,o),
(358,309,c)
);
}
);
width = 498;
}
);
note = ecaron;
unicode = 283;
},
{
glyphname = ecircumflex;
kernLeft = c;
kernRight = ae;
layers = (
{
layerId = m01;
shapes = (
{
closed = 1;
nodes = (
(338,556,l),
(412,556,l),
(300,694,l),
(218,694,l),
(105,556,l),
(176,556,l),
(258,630,l)
);
},
{
closed = 1;
nodes = (
(446,111,l),
(401,80,o),
(359,66,o),
(307,66,cs),
(204,66,o),
(137,133,o),
(133,250,c),
(451,250,l),
(451,288,ls),
(451,413,o),
(374,486,o),
(262,486,cs),
(135,486,o),
(41,381,o),
(41,240,cs),
(41,88,o),
(146,-12,o),
(283,-12,cs),
(351,-12,o),
(409,13,o),
(457,62,c)
);
},
{
closed = 1;
nodes = (
(137,309,l),
(149,382,o),
(191,425,o),
(256,425,cs),
(316,425,o),
(357,381,o),
(358,309,c)
);
}
);
width = 498;
}
);
note = ecircumflex;
unicode = 234;
},
{
glyphname = edieresis;
kernLeft = c;
kernRight = ae;
layers = (
{
layerId = m01;
shapes = (
{
closed = 1;
nodes = (
(100,591,o),
(127,563,o),
(163,563,cs),
(198,563,o),
(225,591,o),
(225,627,cs),
(225,662,o),
(198,689,o),
(163,689,cs),
(127,689,o),
(100,662,o),
(100,627,cs)
);
},
{
closed = 1;
nodes = (
(291,591,o),
(318,563,o),
(354,563,cs),
(389,563,o),
(416,591,o),
(416,627,cs),
(416,660,o),
(387,689,o),
(354,689,cs),
(318,689,o),
(291,662,o),
(291,627,cs)
);
},
{
closed = 1;
nodes = (
(446,111,l),
(401,80,o),
(359,66,o),
(307,66,cs),
(204,66,o),
(137,133,o),
(133,250,c),
(451,250,l),
(451,288,ls),
(451,413,o),
(374,486,o),
(262,486,cs),
(135,486,o),
(41,381,o),
(41,240,cs),
(41,88,o),
(146,-12,o),
(283,-12,cs),
(351,-12,o),
(409,13,o),
(457,62,c)
);
},
{
closed = 1;
nodes = (
(137,309,l),
(149,382,o),
(191,425,o),
(256,425,cs),
(316,425,o),
(357,381,o),
(358,309,c)
);
}
);
width = 498;
}
);
note = edieresis;
unicode = 235;
},
{
glyphname = edotaccent;
kernLeft = c;
kernRight = ae;
layers = (
{
layerId = m01;
shapes = (
{
closed = 1;
nodes = (
(194,590,o),
(223,561,o),
(260,561,cs),
(295,561,o),
(324,590,o),
(324,627,cs),
(324,662,o),
(295,692,o),
(260,692,cs),
(224,692,o),
(194,663,o),
(194,627,cs)
);
},
{
closed = 1;
nodes = (
(446,111,l),
(401,80,o),
(359,66,o),
(307,66,cs),
(204,66,o),
(137,133,o),
(133,250,c),
(451,250,l),
(451,288,ls),
(451,413,o),
(374,486,o),
(262,486,cs),
(135,486,o),
(41,381,o),
(41,240,cs),
(41,88,o),
(146,-12,o),
(283,-12,cs),
(351,-12,o),
(409,13,o),
(457,62,c)
);
},
{
closed = 1;
nodes = (
(137,309,l),
(149,382,o),
(191,425,o),
(256,425,cs),
(316,425,o),
(357,381,o),
(358,309,c)
);
}
);
width = 498;
}
);
note = edotaccent;
unicode = 279;
},
{
glyphname = egrave;
kernLeft = c;
kernRight = ae;
layers = (
{
layerId = m01;
shapes = (
{
closed = 1;
nodes = (
(240,694,l),
(131,694,l),
(131,693,l),
(243,556,l),
(305,556,l)
);
},
{
closed = 1;
nodes = (
(446,111,l),
(401,80,o),
(359,66,o),
(307,66,cs),
(204,66,o),
(137,133,o),
(133,250,c),
(451,250,l),
(451,288,ls),
(451,413,o),
(374,486,o),
(262,486,cs),
(135,486,o),
(41,381,o),
(41,240,cs),
(41,88,o),
(146,-12,o),
(283,-12,cs),
(351,-12,o),
(409,13,o),
(457,62,c)
);
},
{
closed = 1;
nodes = (
(137,309,l),
(149,382,o),
(191,425,o),
(256,425,cs),
(316,425,o),
(357,381,o),
(358,309,c)
);
}
);
width = 498;
}
);
note = egrave;
unicode = 232;
},
{
glyphname = emacron;
kernLeft = c;
kernRight = ae;
layers = (
{
layerId = m01;
shapes = (
{
closed = 1;
nodes = (
(107,640,l),
(107,579,l),
(414,579,l),
(414,640,l)
);
},
{
closed = 1;
nodes = (
(446,111,l),
(401,80,o),
(359,66,o),
(307,66,cs),
(204,66,o),
(137,133,o),
(133,250,c),
(451,250,l),
(451,288,ls),
(451,413,o),
(374,486,o),
(262,486,cs),
(135,486,o),
(41,381,o),
(41,240,cs),
(41,88,o),
(146,-12,o),
(283,-12,cs),
(351,-12,o),
(409,13,o),
(457,62,c)
);
},
{
closed = 1;
nodes = (
(137,309,l),
(149,382,o),
(191,425,o),
(256,425,cs),
(316,425,o),
(357,381,o),
(358,309,c)
);
}
);
width = 498;
}
);
note = emacron;
unicode = 275;
},
{
glyphname = eogonek;
kernLeft = c;
kernRight = ae;
layers = (
{
layerId = m01;
shapes = (
{
closed = 1;
nodes = (
(243,-62,o),
(275,-24,o),
(338,-7,cs),
(390,8,o),
(424,26,o),
(457,62,c),
(446,111,l),
(401,80,o),
(358,66,o),
(307,66,cs),
(206,66,o),
(138,131,o),
(133,250,c),
(451,250,l),
(451,288,ls),
(451,413,o),
(375,486,o),
(263,486,cs),
(137,486,o),
(41,381,o),
(41,240,cs),
(41,101,o),
(128,7,o),
(248,-7,c),
(248,-10,l),
(201,-39,o),
(177,-73,o),
(177,-113,cs),
(177,-166,o),
(220,-203,o),
(277,-203,cs),
(307,-203,o),
(332,-193,o),
(352,-173,c),
(343,-135,l),
(326,-146,o),
(309,-151,o),
(293,-151,cs),
(264,-151,o),
(243,-130,o),
(243,-98,cs)
);
},
{
closed = 1;
nodes = (
(137,309,l),
(148,382,o),
(190,425,o),
(257,425,cs),
(317,425,o),
(357,381,o),
(358,309,c)
);
}
);
width = 498;
}
);
note = eogonek;
unicode = 281;
},
{
glyphname = f;
kernLeft = f;
kernRight = f;
layers = (
{
layerId = m01;
shapes = (
{
closed = 1;
nodes = (
(95,0,l),
(236,0,l),
(236,4,l),
(215,31,o),
(210,57,o),
(210,120,cs),
(210,408,l),
(335,408,l),
(335,474,l),
(210,474,l),
(210,558,ls),
(210,625,o),
(246,657,o),
(302,657,cs),
(333,657,o),
(363,643,o),
(378,623,c),
(384,623,l),
(384,709,l),
(357,718,o),
(329,722,o),
(300,722,cs),
(192,722,o),
(118,652,o),
(118,536,cs),
(118,474,l),
(17,474,l),
(17,408,l),
(118,408,l),
(118,120,ls),
(118,57,o),
(114,31,o),
(95,4,c)
);
}
);
width = 366;
}
);
note = f;
unicode = 102;
},
{
glyphname = g;
kernLeft = g;
kernRight = g;
layers = (
{
layerId = m01;
shapes = (
{
closed = 1;
nodes = (
(510,412,l),
(510,494,l),
(508,494,l),
(322,475,l),
(300,482,o),
(277,486,o),
(253,486,cs),
(142,486,o),
(64,420,o),
(64,323,cs),
(64,274,o),
(86,230,o),
(123,201,c),
(123,198,l),
(74,173,o),
(48,135,o),
(48,94,cs),
(48,62,o),
(65,33,o),
(97,16,c),
(97,13,l),
(48,-15,o),
(24,-48,o),
(24,-87,cs),
(24,-158,o),
(101,-214,o),
(240,-214,cs),
(392,-214,o),
(505,-144,o),
(505,-41,cs),
(505,36,o),
(441,79,o),
(333,79,cs),
(185,79,ls),
(145,79,o),
(126,95,o),
(126,119,cs),
(126,143,o),
(142,161,o),
(173,174,c),
(199,165,o),
(226,161,o),
(253,161,cs),
(362,161,o),
(439,230,o),
(439,323,cs),
(439,359,o),
(424,390,o),
(401,409,c),
(401,413,l)
);
},
{
closed = 1;
nodes = (
(350,259,o),
(311,219,o),
(252,219,cs),
(196,219,o),
(156,259,o),
(156,323,cs),
(156,388,o),
(196,429,o),
(252,429,cs),
(309,429,o),
(350,388,o),
(350,323,cs)
);
},
{
closed = 1;
nodes = (
(324,0,ls),
(384,0,o),
(413,-19,o),
(413,-60,cs),
(413,-89,o),
(396,-112,o),
(363,-129,cs),
(330,-146,o),
(290,-155,o),
(243,-155,cs),
(156,-155,o),
(108,-122,o),
(108,-71,cs),
(108,-42,o),
(130,-16,o),
(165,0,c)
);
}
);
width = 535;
}
);
note = g;
unicode = 103;
},
{
glyphname = g.ss03;
kernLeft = g.ss03;
kernRight = g.ss03;
layers = (
{
layerId = m01;
shapes = (
{
closed = 1;
nodes = (
(61,-143,l),
(110,-182,o),
(173,-207,o),
(245,-207,cs),
(382,-207,o),
(489,-124,o),
(489,42,cs),
(489,474,l),
(428,474,l),
(407,418,l),
(402,418,l),
(370,462,o),
(316,486,o),
(263,486,cs),
(142,486,o),
(43,383,o),
(43,240,cs),
(43,101,o),
(131,9,o),
(242,9,cs),
(306,9,o),
(360,40,o),
(392,93,c),
(396,93,l),
(396,40,ls),
(396,-79,o),
(328,-134,o),
(224,-134,cs),
(170,-134,o),
(119,-119,o),
(72,-88,c)
);
},
{
closed = 1;
nodes = (
(396,226,ls),
(396,184,o),
(384,149,o),
(360,122,cs),
(336,95,o),
(307,81,o),
(272,81,cs),
(192,81,o),
(138,152,o),
(138,249,cs),
(138,352,o),
(196,424,o),
(275,424,cs),
(348,424,o),
(396,364,o),
(396,271,cs)
);
}
);
width = 565;
}
);
note = g.ss03;
},
{
glyphname = g.ss04;
kernLeft = g;
kernRight = g;
layers = (
{
layerId = m01;
shapes = (
{
closed = 1;
nodes = (
(510,408,l),
(510,474,l),
(330,474,l),
(307,482,o),
(281,486,o),
(253,486,cs),
(142,486,o),
(64,420,o),
(64,323,cs),
(64,274,o),
(86,230,o),
(123,201,c),
(123,198,l),
(74,173,o),
(48,135,o),
(48,94,cs),
(48,62,o),
(65,33,o),
(97,16,c),
(97,13,l),
(48,-15,o),
(24,-48,o),
(24,-87,cs),
(24,-158,o),
(101,-214,o),
(240,-214,cs),
(392,-214,o),
(505,-144,o),
(505,-41,cs),
(505,36,o),
(441,79,o),
(333,79,cs),
(185,79,ls),
(145,79,o),
(126,95,o),
(126,119,cs),
(126,143,o),
(142,161,o),
(173,174,c),
(199,165,o),
(226,161,o),
(253,161,cs),
(362,161,o),
(439,230,o),
(439,323,cs),
(439,359,o),
(426,388,o),
(403,405,c),
(403,409,l)
);
},
{
closed = 1;
nodes = (
(350,259,o),
(311,219,o),
(252,219,cs),
(196,219,o),
(156,259,o),
(156,323,cs),
(156,388,o),
(196,429,o),
(252,429,cs),
(309,429,o),
(350,388,o),
(350,323,cs)
);
},
{
closed = 1;
nodes = (
(324,0,ls),
(384,0,o),
(413,-19,o),
(413,-60,cs),
(413,-89,o),
(396,-112,o),
(363,-129,cs),
(330,-146,o),
(290,-155,o),
(243,-155,cs),
(156,-155,o),
(108,-122,o),
(108,-71,cs),
(108,-42,o),
(130,-16,o),
(165,0,c)
);
}
);
width = 535;
}
);
note = g.ss04;
},
{
glyphname = gbreve;
kernLeft = g;
kernRight = g;
layers = (
{
layerId = m01;
shapes = (
{
closed = 1;
nodes = (
(132,694,l),
(135,610,o),
(185,557,o),
(261,557,cs),
(337,557,o),
(388,610,o),
(391,694,c),
(334,694,l),
(330,647,o),
(305,621,o),
(261,621,cs),
(218,621,o),
(193,647,o),
(188,694,c)
);
},
{
closed = 1;
nodes = (
(510,412,l),
(510,494,l),
(508,494,l),
(322,475,l),
(300,482,o),
(277,486,o),
(253,486,cs),
(142,486,o),
(64,420,o),
(64,323,cs),
(64,274,o),
(86,230,o),
(123,201,c),
(123,198,l),
(74,173,o),
(48,135,o),
(48,94,cs),
(48,62,o),
(65,33,o),
(97,16,c),
(97,13,l),
(48,-15,o),
(24,-48,o),
(24,-87,cs),
(24,-158,o),
(101,-214,o),
(240,-214,cs),
(392,-214,o),
(505,-144,o),
(505,-41,cs),
(505,36,o),
(441,79,o),
(333,79,cs),
(185,79,ls),
(145,79,o),
(126,95,o),
(126,119,cs),
(126,143,o),
(142,161,o),
(173,174,c),
(199,165,o),
(226,161,o),
(253,161,cs),
(362,161,o),
(439,230,o),
(439,323,cs),
(439,359,o),
(424,390,o),
(401,409,c),
(401,413,l)
);
},
{
closed = 1;
nodes = (
(350,259,o),
(311,219,o),
(252,219,cs),
(196,219,o),
(156,259,o),
(156,323,cs),
(156,388,o),
(196,429,o),
(252,429,cs),
(309,429,o),
(350,388,o),
(350,323,cs)
);
},
{
closed = 1;
nodes = (
(324,0,ls),
(384,0,o),
(413,-19,o),
(413,-60,cs),
(413,-89,o),
(396,-112,o),
(363,-129,cs),
(330,-146,o),
(290,-155,o),
(243,-155,cs),
(156,-155,o),
(108,-122,o),
(108,-71,cs),
(108,-42,o),
(130,-16,o),
(165,0,c)
);
}
);
width = 535;
}
);
note = gbreve;
unicode = 287;
},
{
glyphname = gbreve.ss03;
kernLeft = g.ss03;
kernRight = g.ss03;
layers = (
{
layerId = m01;
shapes = (
{
closed = 1;
nodes = (
(154,694,l),
(157,610,o),
(207,557,o),
(283,557,cs),
(359,557,o),
(410,610,o),
(413,694,c),
(356,694,l),
(352,647,o),
(327,621,o),
(283,621,cs),
(240,621,o),
(215,647,o),
(210,694,c)
);
},
{
closed = 1;
nodes = (
(61,-143,l),
(110,-182,o),
(173,-207,o),
(245,-207,cs),
(382,-207,o),
(489,-124,o),
(489,42,cs),
(489,474,l),
(428,474,l),
(407,418,l),
(402,418,l),
(370,462,o),
(316,486,o),
(263,486,cs),
(142,486,o),
(43,383,o),
(43,240,cs),
(43,101,o),
(131,9,o),
(242,9,cs),
(306,9,o),
(360,40,o),
(392,93,c),
(396,93,l),
(396,40,ls),
(396,-79,o),
(328,-134,o),
(224,-134,cs),
(170,-134,o),
(119,-119,o),
(72,-88,c)
);
},
{
closed = 1;
nodes = (
(396,226,ls),
(396,184,o),
(384,149,o),
(360,122,cs),
(336,95,o),
(307,81,o),
(272,81,cs),
(192,81,o),
(138,152,o),
(138,249,cs),
(138,352,o),
(196,424,o),
(275,424,cs),
(348,424,o),
(396,364,o),
(396,271,cs)
);
}
);
width = 565;
}
);
note = gbreve.ss03;
},
{
glyphname = gbreve.ss04;
kernLeft = g;
kernRight = g;
layers = (
{
layerId = m01;
shapes = (
{
closed = 1;
nodes = (
(132,694,l),
(135,610,o),
(185,557,o),
(261,557,cs),
(337,557,o),
(388,610,o),
(391,694,c),
(334,694,l),
(330,647,o),
(305,621,o),
(261,621,cs),
(218,621,o),
(193,647,o),
(188,694,c)
);
},
{
closed = 1;
nodes = (
(510,408,l),
(510,474,l),
(330,474,l),
(307,482,o),
(281,486,o),
(253,486,cs),
(142,486,o),
(64,420,o),
(64,323,cs),
(64,274,o),
(86,230,o),
(123,201,c),
(123,198,l),
(74,173,o),
(48,135,o),
(48,94,cs),
(48,62,o),
(65,33,o),
(97,16,c),
(97,13,l),
(48,-15,o),
(24,-48,o),
(24,-87,cs),
(24,-158,o),
(101,-214,o),
(240,-214,cs),
(392,-214,o),
(505,-144,o),
(505,-41,cs),
(505,36,o),
(441,79,o),
(333,79,cs),
(185,79,ls),
(145,79,o),
(126,95,o),
(126,119,cs),
(126,143,o),
(142,161,o),
(173,174,c),
(199,165,o),
(226,161,o),
(253,161,cs),
(362,161,o),
(439,230,o),
(439,323,cs),
(439,359,o),
(426,388,o),
(403,405,c),
(403,409,l)
);
},
{
closed = 1;
nodes = (
(350,259,o),
(311,219,o),
(252,219,cs),
(196,219,o),
(156,259,o),
(156,323,cs),
(156,388,o),
(196,429,o),
(252,429,cs),
(309,429,o),
(350,388,o),
(350,323,cs)
);
},
{
closed = 1;
nodes = (
(324,0,ls),
(384,0,o),
(413,-19,o),
(413,-60,cs),
(413,-89,o),
(396,-112,o),
(363,-129,cs),
(330,-146,o),
(290,-155,o),
(243,-155,cs),
(156,-155,o),
(108,-122,o),
(108,-71,cs),
(108,-42,o),
(130,-16,o),
(165,0,c)
);
}
);
width = 535;
}
);
note = gbreve.ss04;
},
{
glyphname = gcircumflex;
kernLeft = g;
kernRight = g;
layers = (
{
layerId = m01;
shapes = (
{
closed = 1;
nodes = (
(340,556,l),
(414,556,l),
(301,694,l),
(220,694,l),
(107,556,l),
(178,556,l),
(260,630,l)
);
},
{
closed = 1;
nodes = (
(510,412,l),
(510,494,l),
(508,494,l),
(322,475,l),
(300,482,o),
(277,486,o),
(253,486,cs),
(142,486,o),
(64,420,o),
(64,323,cs),
(64,274,o),
(86,230,o),
(123,201,c),
(123,198,l),
(74,173,o),
(48,135,o),
(48,94,cs),
(48,62,o),
(65,33,o),
(97,16,c),
(97,13,l),
(48,-15,o),
(24,-48,o),
(24,-87,cs),
(24,-158,o),
(101,-214,o),
(240,-214,cs),
(392,-214,o),
(505,-144,o),
(505,-41,cs),
(505,36,o),
(441,79,o),
(333,79,cs),
(185,79,ls),
(145,79,o),
(126,95,o),
(126,119,cs),
(126,143,o),
(142,161,o),
(173,174,c),
(199,165,o),
(226,161,o),
(253,161,cs),
(362,161,o),
(439,230,o),
(439,323,cs),
(439,359,o),
(424,390,o),
(401,409,c),
(401,413,l)
);
},
{
closed = 1;
nodes = (
(350,259,o),
(311,219,o),
(252,219,cs),
(196,219,o),
(156,259,o),
(156,323,cs),
(156,388,o),
(196,429,o),
(252,429,cs),
(309,429,o),
(350,388,o),
(350,323,cs)
);
},
{
closed = 1;
nodes = (
(324,0,ls),
(384,0,o),
(413,-19,o),
(413,-60,cs),
(413,-89,o),
(396,-112,o),
(363,-129,cs),
(330,-146,o),
(290,-155,o),
(243,-155,cs),
(156,-155,o),
(108,-122,o),
(108,-71,cs),
(108,-42,o),
(130,-16,o),
(165,0,c)
);
}
);
width = 535;
}
);
note = gcircumflex;
unicode = 285;
},
{
glyphname = gcircumflex.ss03;
kernLeft = g.ss03;
kernRight = g.ss03;
layers = (
{
layerId = m01;
shapes = (
{
closed = 1;
nodes = (
(201,556,l),
(283,630,l),
(363,556,l),
(437,556,l),
(325,694,l),
(243,694,l),
(130,556,l)
);
},
{
closed = 1;
nodes = (
(61,-143,l),
(110,-182,o),
(173,-207,o),
(245,-207,cs),
(382,-207,o),
(489,-124,o),
(489,42,cs),
(489,474,l),
(428,474,l),
(407,418,l),
(402,418,l),
(370,462,o),
(316,486,o),
(263,486,cs),
(142,486,o),
(43,383,o),
(43,240,cs),
(43,101,o),
(131,9,o),
(242,9,cs),
(306,9,o),
(360,40,o),
(392,93,c),
(396,93,l),
(396,40,ls),
(396,-79,o),
(328,-134,o),
(224,-134,cs),
(170,-134,o),
(119,-119,o),
(72,-88,c)
);
},
{
closed = 1;
nodes = (
(396,226,ls),
(396,184,o),
(384,149,o),
(360,122,cs),
(336,95,o),
(307,81,o),
(272,81,cs),
(192,81,o),
(138,152,o),
(138,249,cs),
(138,352,o),
(196,424,o),
(275,424,cs),
(348,424,o),
(396,364,o),
(396,271,cs)
);
}
);
width = 565;
}
);
note = gcircumflex.ss03;
},
{
glyphname = gcircumflex.ss04;
kernLeft = g;
kernRight = g;
layers = (
{
layerId = m01;
shapes = (
{
closed = 1;
nodes = (
(340,556,l),
(414,556,l),
(302,694,l),
(220,694,l),
(107,556,l),
(178,556,l),
(260,630,l)
);
},
{
closed = 1;
nodes = (
(510,408,l),
(510,474,l),
(330,474,l),
(307,482,o),
(281,486,o),
(253,486,cs),
(142,486,o),
(64,420,o),
(64,323,cs),
(64,274,o),
(86,230,o),
(123,201,c),
(123,198,l),
(74,173,o),
(48,135,o),
(48,94,cs),
(48,62,o),
(65,33,o),
(97,16,c),
(97,13,l),
(48,-15,o),
(24,-48,o),
(24,-87,cs),
(24,-158,o),
(101,-214,o),
(240,-214,cs),
(392,-214,o),
(505,-144,o),
(505,-41,cs),
(505,36,o),
(441,79,o),
(333,79,cs),
(185,79,ls),
(145,79,o),
(126,95,o),
(126,119,cs),
(126,143,o),
(142,161,o),
(173,174,c),
(199,165,o),
(226,161,o),
(253,161,cs),
(362,161,o),
(439,230,o),
(439,323,cs),
(439,359,o),
(426,388,o),
(403,405,c),
(403,409,l)
);
},
{
closed = 1;
nodes = (
(350,259,o),
(311,219,o),
(252,219,cs),
(196,219,o),
(156,259,o),
(156,323,cs),
(156,388,o),
(196,429,o),
(252,429,cs),
(309,429,o),
(350,388,o),
(350,323,cs)
);
},
{
closed = 1;
nodes = (
(324,0,ls),
(384,0,o),
(413,-19,o),
(413,-60,cs),
(413,-89,o),
(396,-112,o),
(363,-129,cs),
(330,-146,o),
(290,-155,o),
(243,-155,cs),
(156,-155,o),
(108,-122,o),
(108,-71,cs),
(108,-42,o),
(130,-16,o),
(165,0,c)
);
}
);
width = 535;
}
);
note = gcircumflex.ss04;
},
{
glyphname = uni0123;
kernLeft = g;
kernRight = g;
layers = (
{
layerId = m01;
shapes = (
{
closed = 1;
nodes = (
(203,554,o),
(227,527,o),
(262,527,cs),
(295,527,o),
(318,551,o),
(318,582,cs),
(318,614,o),
(292,636,o),
(259,636,cs),
(258,636,l),
(319,739,l),
(272,739,l),
(224,652,ls),
(210,629,o),
(203,608,o),
(203,591,cs)
);
},
{
closed = 1;
nodes = (
(510,412,l),
(510,494,l),
(508,494,l),
(322,475,l),
(300,482,o),
(277,486,o),
(253,486,cs),
(142,486,o),
(64,420,o),
(64,323,cs),
(64,274,o),
(86,230,o),
(123,201,c),
(123,198,l),
(74,173,o),
(48,135,o),
(48,94,cs),
(48,62,o),
(65,33,o),
(97,16,c),
(97,13,l),
(48,-15,o),
(24,-48,o),
(24,-87,cs),
(24,-158,o),
(101,-214,o),
(240,-214,cs),
(392,-214,o),
(505,-144,o),
(505,-41,cs),
(505,36,o),
(441,79,o),
(333,79,cs),
(185,79,ls),
(145,79,o),
(126,95,o),
(126,119,cs),
(126,143,o),
(142,161,o),
(173,174,c),
(199,165,o),
(226,161,o),
(253,161,cs),
(362,161,o),
(439,230,o),
(439,323,cs),
(439,359,o),
(424,390,o),
(401,409,c),
(401,413,l)
);
},
{
closed = 1;
nodes = (
(350,259,o),
(311,219,o),
(252,219,cs),
(196,219,o),
(156,259,o),
(156,323,cs),
(156,388,o),
(196,429,o),
(252,429,cs),
(309,429,o),
(350,388,o),
(350,323,cs)
);
},
{
closed = 1;
nodes = (
(324,0,ls),
(384,0,o),
(413,-19,o),
(413,-60,cs),
(413,-89,o),
(396,-112,o),
(363,-129,cs),
(330,-146,o),
(290,-155,o),
(243,-155,cs),
(156,-155,o),
(108,-122,o),
(108,-71,cs),
(108,-42,o),
(130,-16,o),
(165,0,c)
);
}
);
width = 535;
}
);
note = uni0123;
unicode = 291;
},
{
glyphname = uni0123.ss03;
kernLeft = g.ss03;
kernRight = g.ss03;
layers = (
{
layerId = m01;
shapes = (
{
closed = 1;
nodes = (
(226,554,o),
(250,527,o),
(285,527,cs),
(318,527,o),
(341,551,o),
(341,582,cs),
(341,614,o),
(315,636,o),
(282,636,cs),
(281,636,l),
(342,739,l),
(295,739,l),
(247,652,ls),
(233,629,o),
(226,608,o),
(226,591,cs)
);
},
{
closed = 1;
nodes = (
(428,474,l),
(407,418,l),
(402,418,l),
(370,462,o),
(316,486,o),
(263,486,cs),
(142,486,o),
(43,383,o),
(43,240,cs),
(43,101,o),
(131,9,o),
(242,9,cs),
(306,9,o),
(360,40,o),
(392,93,c),
(396,93,l),
(396,40,ls),
(396,-79,o),
(328,-134,o),
(224,-134,cs),
(170,-134,o),
(119,-119,o),
(72,-88,c),
(61,-143,l),
(110,-182,o),
(173,-207,o),
(245,-207,cs),
(382,-207,o),
(489,-124,o),
(489,42,cs),
(489,474,l)
);
},
{
closed = 1;
nodes = (
(396,226,ls),
(396,184,o),
(384,149,o),
(360,122,cs),
(336,95,o),
(307,81,o),
(272,81,cs),
(192,81,o),
(138,152,o),
(138,249,cs),
(138,352,o),
(196,424,o),
(275,424,cs),
(348,424,o),
(396,364,o),
(396,271,cs)
);
}
);
width = 565;
}
);
note = uni0123.ss03;
},
{
glyphname = uni0123.ss03_ss06;
kernLeft = g.ss03;
kernRight = g.ss03;
layers = (
{
layerId = m01;
shapes = (
{
closed = 1;
nodes = (
(326,743,l),
(232,545,l),
(232,543,l),
(327,543,l),
(366,743,l)
);
},
{
closed = 1;
nodes = (
(61,-143,l),
(110,-182,o),
(173,-207,o),
(245,-207,cs),
(382,-207,o),
(489,-124,o),
(489,42,cs),
(489,474,l),
(428,474,l),
(407,418,l),
(402,418,l),
(370,462,o),
(316,486,o),
(263,486,cs),
(142,486,o),
(43,383,o),
(43,240,cs),
(43,101,o),
(131,9,o),
(242,9,cs),
(306,9,o),
(360,40,o),
(392,93,c),
(396,93,l),
(396,40,ls),
(396,-79,o),
(328,-134,o),
(224,-134,cs),
(170,-134,o),
(119,-119,o),
(72,-88,c)
);
},
{
closed = 1;
nodes = (
(396,226,ls),
(396,184,o),
(384,149,o),
(360,122,cs),
(336,95,o),
(307,81,o),
(272,81,cs),
(192,81,o),
(138,152,o),
(138,249,cs),
(138,352,o),
(196,424,o),
(275,424,cs),
(348,424,o),
(396,364,o),
(396,271,cs)
);
}
);
width = 565;
}
);
note = uni0123.ss03_ss06;
},
{
glyphname = uni0123.ss04;
kernLeft = g;
kernRight = g;
layers = (
{
layerId = m01;
shapes = (
{
closed = 1;
nodes = (
(203,554,o),
(227,527,o),
(262,527,cs),
(295,527,o),
(318,551,o),
(318,582,cs),
(318,614,o),
(292,636,o),
(259,636,cs),
(258,636,l),
(319,739,l),
(272,739,l),
(224,652,ls),
(210,629,o),
(203,608,o),
(203,591,cs)
);
},
{
closed = 1;
nodes = (
(510,408,l),
(510,474,l),
(330,474,l),
(307,482,o),
(281,486,o),
(253,486,cs),
(142,486,o),
(64,420,o),
(64,323,cs),
(64,274,o),
(86,230,o),
(123,201,c),
(123,198,l),
(74,173,o),
(48,135,o),
(48,94,cs),
(48,62,o),
(65,33,o),
(97,16,c),
(97,13,l),
(48,-15,o),
(24,-48,o),
(24,-87,cs),
(24,-158,o),
(101,-214,o),
(240,-214,cs),
(392,-214,o),
(505,-144,o),
(505,-41,cs),
(505,36,o),
(441,79,o),
(333,79,cs),
(185,79,ls),
(145,79,o),
(126,95,o),
(126,119,cs),
(126,143,o),
(142,161,o),
(173,174,c),
(199,165,o),
(226,161,o),
(253,161,cs),
(362,161,o),
(439,230,o),
(439,323,cs),
(439,359,o),
(426,388,o),
(403,405,c),
(403,409,l)
);
},
{
closed = 1;
nodes = (
(350,259,o),
(311,219,o),
(252,219,cs),
(196,219,o),
(156,259,o),
(156,323,cs),
(156,388,o),
(196,429,o),
(252,429,cs),
(309,429,o),
(350,388,o),
(350,323,cs)
);
},
{
closed = 1;
nodes = (
(324,0,ls),
(384,0,o),
(413,-19,o),
(413,-60,cs),
(413,-89,o),
(396,-112,o),
(363,-129,cs),
(330,-146,o),
(290,-155,o),
(243,-155,cs),
(156,-155,o),
(108,-122,o),
(108,-71,cs),
(108,-42,o),
(130,-16,o),
(165,0,c)
);
}
);
width = 535;
}
);
note = uni0123.ss04;
},
{
glyphname = uni0123.ss06;
kernLeft = g;
kernRight = g;
layers = (
{
layerId = m01;
shapes = (
{
closed = 1;
nodes = (
(303,743,l),
(209,545,l),
(209,543,l),
(304,543,l),
(343,743,l)
);
},
{
closed = 1;
nodes = (
(510,412,l),
(510,494,l),
(508,494,l),
(322,475,l),
(300,482,o),
(277,486,o),
(253,486,cs),
(142,486,o),
(64,420,o),
(64,323,cs),
(64,274,o),
(86,230,o),
(123,201,c),
(123,198,l),
(74,173,o),
(48,135,o),
(48,94,cs),
(48,62,o),
(65,33,o),
(97,16,c),
(97,13,l),
(48,-15,o),
(24,-48,o),
(24,-87,cs),
(24,-158,o),
(101,-214,o),
(240,-214,cs),
(392,-214,o),
(505,-144,o),
(505,-41,cs),
(505,36,o),
(441,79,o),
(333,79,cs),
(185,79,ls),
(145,79,o),
(126,95,o),
(126,119,cs),
(126,143,o),
(142,161,o),
(173,174,c),
(199,165,o),
(226,161,o),
(253,161,cs),
(362,161,o),
(439,230,o),
(439,323,cs),
(439,359,o),
(424,390,o),
(401,409,c),
(401,413,l)
);
},
{
closed = 1;
nodes = (
(350,259,o),
(311,219,o),
(252,219,cs),
(196,219,o),
(156,259,o),
(156,323,cs),
(156,388,o),
(196,429,o),
(252,429,cs),
(309,429,o),
(350,388,o),
(350,323,cs)
);
},
{
closed = 1;
nodes = (
(324,0,ls),
(384,0,o),
(413,-19,o),
(413,-60,cs),
(413,-89,o),
(396,-112,o),
(363,-129,cs),
(330,-146,o),
(290,-155,o),
(243,-155,cs),
(156,-155,o),
(108,-122,o),
(108,-71,cs),
(108,-42,o),
(130,-16,o),
(165,0,c)
);
}
);
width = 535;
}
);
note = uni0123.ss06;
},
{
glyphname = gdotaccent;
kernLeft = g;
kernRight = g;
layers = (
{
layerId = m01;
shapes = (
{
closed = 1;
nodes = (
(196,590,o),
(225,561,o),
(262,561,cs),
(297,561,o),
(326,590,o),
(326,627,cs),
(326,662,o),
(297,692,o),
(262,692,cs),
(226,692,o),
(196,663,o),
(196,627,cs)
);
},
{
closed = 1;
nodes = (
(510,412,l),
(510,494,l),
(508,494,l),
(322,475,l),
(300,482,o),
(277,486,o),
(253,486,cs),
(142,486,o),
(64,420,o),
(64,323,cs),
(64,274,o),
(86,230,o),
(123,201,c),
(123,198,l),
(74,173,o),
(48,135,o),
(48,94,cs),
(48,62,o),
(65,33,o),
(97,16,c),
(97,13,l),
(48,-15,o),
(24,-48,o),
(24,-87,cs),
(24,-158,o),
(101,-214,o),
(240,-214,cs),
(392,-214,o),
(505,-144,o),
(505,-41,cs),
(505,36,o),
(441,79,o),
(333,79,cs),
(185,79,ls),
(145,79,o),
(126,95,o),
(126,119,cs),
(126,143,o),
(142,161,o),
(173,174,c),
(199,165,o),
(226,161,o),
(253,161,cs),
(362,161,o),
(439,230,o),
(439,323,cs),
(439,359,o),
(424,390,o),
(401,409,c),
(401,413,l)
);
},
{
closed = 1;
nodes = (
(350,259,o),
(311,219,o),
(252,219,cs),
(196,219,o),
(156,259,o),
(156,323,cs),
(156,388,o),
(196,429,o),
(252,429,cs),
(309,429,o),
(350,388,o),
(350,323,cs)
);
},
{
closed = 1;
nodes = (
(324,0,ls),
(384,0,o),
(413,-19,o),
(413,-60,cs),
(413,-89,o),
(396,-112,o),
(363,-129,cs),
(330,-146,o),
(290,-155,o),
(243,-155,cs),
(156,-155,o),
(108,-122,o),
(108,-71,cs),
(108,-42,o),
(130,-16,o),
(165,0,c)
);
}
);
width = 535;
}
);
note = gdotaccent;
unicode = 289;
},
{
glyphname = gdotaccent.ss03;
kernLeft = g.ss03;
kernRight = g.ss03;
layers = (
{
layerId = m01;
shapes = (
{
closed = 1;
nodes = (
(218,590,o),
(247,561,o),
(284,561,cs),
(319,561,o),
(348,590,o),
(348,627,cs),
(348,662,o),
(319,692,o),
(284,692,cs),
(248,692,o),
(218,663,o),
(218,627,cs)
);
},
{
closed = 1;
nodes = (
(61,-143,l),
(110,-182,o),
(173,-207,o),
(245,-207,cs),
(382,-207,o),
(489,-124,o),
(489,42,cs),
(489,474,l),
(428,474,l),
(407,418,l),
(402,418,l),
(370,462,o),
(316,486,o),
(263,486,cs),
(142,486,o),
(43,383,o),
(43,240,cs),
(43,101,o),
(131,9,o),
(242,9,cs),
(306,9,o),
(360,40,o),
(392,93,c),
(396,93,l),
(396,40,ls),
(396,-79,o),
(328,-134,o),
(224,-134,cs),
(170,-134,o),
(119,-119,o),
(72,-88,c)
);
},
{
closed = 1;
nodes = (
(396,226,ls),
(396,184,o),
(384,149,o),
(360,122,cs),
(336,95,o),
(307,81,o),
(272,81,cs),
(192,81,o),
(138,152,o),
(138,249,cs),
(138,352,o),
(196,424,o),
(275,424,cs),
(348,424,o),
(396,364,o),
(396,271,cs)
);
}
);
width = 565;
}
);
note = gdotaccent.ss03;
},
{
glyphname = gdotaccent.ss04;
kernLeft = g;
kernRight = g;
layers = (
{
layerId = m01;
shapes = (
{
closed = 1;
nodes = (
(196,590,o),
(225,561,o),
(262,561,cs),
(297,561,o),
(326,590,o),
(326,627,cs),
(326,662,o),
(297,692,o),
(262,692,cs),
(226,692,o),
(196,663,o),
(196,627,cs)
);
},
{
closed = 1;
nodes = (
(510,408,l),
(510,474,l),
(330,474,l),
(307,482,o),
(281,486,o),
(253,486,cs),
(142,486,o),
(64,420,o),
(64,323,cs),
(64,274,o),
(86,230,o),
(123,201,c),
(123,198,l),
(74,173,o),
(48,135,o),
(48,94,cs),
(48,62,o),
(65,33,o),
(97,16,c),
(97,13,l),
(48,-15,o),
(24,-48,o),
(24,-87,cs),
(24,-158,o),
(101,-214,o),
(240,-214,cs),
(392,-214,o),
(505,-144,o),
(505,-41,cs),
(505,36,o),
(441,79,o),
(333,79,cs),
(185,79,ls),
(145,79,o),
(126,95,o),
(126,119,cs),
(126,143,o),
(142,161,o),
(173,174,c),
(199,165,o),
(226,161,o),
(253,161,cs),
(362,161,o),
(439,230,o),
(439,323,cs),
(439,359,o),
(426,388,o),
(403,405,c),
(403,409,l)
);
},
{
closed = 1;
nodes = (
(350,259,o),
(311,219,o),
(252,219,cs),
(196,219,o),
(156,259,o),
(156,323,cs),
(156,388,o),
(196,429,o),
(252,429,cs),
(309,429,o),
(350,388,o),
(350,323,cs)
);
},
{
closed = 1;
nodes = (
(324,0,ls),
(384,0,o),
(413,-19,o),
(413,-60,cs),
(413,-89,o),
(396,-112,o),
(363,-129,cs),
(330,-146,o),
(290,-155,o),
(243,-155,cs),
(156,-155,o),
(108,-122,o),
(108,-71,cs),
(108,-42,o),
(130,-16,o),
(165,0,c)
);
}
);
width = 535;
}
);
note = gdotaccent.ss04;
},
{
glyphname = h;
kernLeft = h;
kernRight = h;
layers = (
{
layerId = m01;
shapes = (
{
closed = 1;
nodes = (
(82,118,ls),
(82,55,o),
(78,31,o),
(61,4,c),
(61,0,l),
(196,0,l),
(196,4,l),
(179,31,o),
(174,59,o),
(174,118,cs),
(174,276,ls),
(174,356,o),
(230,413,o),
(293,413,cs),
(350,413,o),
(383,374,o),
(383,303,cs),
(383,118,ls),
(383,58,o),
(379,31,o),
(363,4,c),
(363,0,l),
(498,0,l),
(498,4,l),
(479,31,o),
(476,57,o),
(476,118,cs),
(476,305,ls),
(476,421,o),
(412,486,o),
(321,486,cs),
(262,486,o),
(215,459,o),
(179,404,c),
(174,404,l),
(174,713,l),
(171,713,l),
(57,701,l),
(57,696,l),
(76,669,o),
(82,638,o),
(82,581,cs)
);
}
);
width = 551;
}
);
note = h;
unicode = 104;
},
{
glyphname = hbar;
kernLeft = h;
kernRight = h;
layers = (
{
layerId = m01;
shapes = (
{
closed = 1;
nodes = (
(476,305,ls),
(476,421,o),
(412,486,o),
(321,486,cs),
(262,486,o),
(215,459,o),
(179,404,c),
(174,404,l),
(174,534,l),
(307,534,l),
(307,592,l),
(174,592,l),
(174,713,l),
(171,713,l),
(57,701,l),
(57,696,l),
(74,672,o),
(81,643,o),
(82,592,c),
(13,592,l),
(13,534,l),
(82,534,l),
(82,118,ls),
(82,55,o),
(78,31,o),
(61,4,c),
(61,0,l),
(196,0,l),
(196,4,l),
(179,31,o),
(174,59,o),
(174,118,cs),
(174,276,ls),
(174,356,o),
(230,413,o),
(293,413,cs),
(350,413,o),
(383,374,o),
(383,303,cs),
(383,118,ls),
(383,58,o),
(379,31,o),
(363,4,c),
(363,0,l),
(498,0,l),
(498,4,l),
(479,31,o),
(476,57,o),
(476,118,cs)
);
}
);
width = 551;
}
);
note = hbar;
unicode = 295;
},
{
glyphname = hcircumflex;
kernLeft = h;
kernRight = h;
layers = (
{
layerId = m01;
shapes = (
{
closed = 1;
nodes = (
(209,757,l),
(291,831,l),
(370,757,l),
(444,757,l),
(332,895,l),
(251,895,l),
(137,757,l)
);
},
{
closed = 1;
nodes = (
(82,118,ls),
(82,55,o),
(78,31,o),
(61,4,c),
(61,0,l),
(196,0,l),
(196,4,l),
(179,31,o),
(174,59,o),
(174,118,cs),
(174,276,ls),
(174,356,o),
(230,413,o),
(293,413,cs),
(350,413,o),
(383,374,o),
(383,303,cs),
(383,118,ls),
(383,58,o),
(379,31,o),
(363,4,c),
(363,0,l),
(498,0,l),
(498,4,l),
(479,31,o),
(476,57,o),
(476,118,cs),
(476,305,ls),
(476,421,o),
(412,486,o),
(321,486,cs),
(262,486,o),
(215,459,o),
(179,404,c),
(174,404,l),
(174,713,l),
(171,713,l),
(57,701,l),
(57,696,l),
(76,669,o),
(82,638,o),
(82,581,cs)
);
}
);
width = 551;
}
);
note = hcircumflex;
unicode = 293;
},
{
glyphname = i;
kernLeft = i;
kernRight = i;
layers = (
{
layerId = m01;
shapes = (
{
closed = 1;
nodes = (
(65,590,o),
(94,561,o),
(131,561,cs),
(166,561,o),
(194,590,o),
(194,627,cs),
(194,662,o),
(164,692,o),
(131,692,cs),
(94,692,o),
(65,663,o),
(65,627,cs)
);
},
{
closed = 1;
nodes = (
(177,477,l),
(174,477,l),
(60,465,l),
(60,459,l),
(79,434,o),
(85,406,o),
(85,354,cs),
(85,117,ls),
(85,54,o),
(81,31,o),
(64,4,c),
(64,0,l),
(199,0,l),
(199,4,l),
(180,31,o),
(177,56,o),
(177,117,cs)
);
}
);
width = 259;
}
);
note = i;
unicode = 105;
},
{
glyphname = dotlessi;
kernLeft = i;
kernRight = i;
layers = (
{
layerId = m01;
shapes = (
{
closed = 1;
nodes = (
(177,477,l),
(174,477,l),
(60,465,l),
(60,459,l),
(79,434,o),
(85,406,o),
(85,354,cs),
(85,117,ls),
(85,54,o),
(81,31,o),
(64,4,c),
(64,0,l),
(199,0,l),
(199,4,l),
(180,31,o),
(177,56,o),
(177,117,cs)
);
}
);
width = 259;
}
);
note = dotlessi;
unicode = 305;
},
{
glyphname = iacute;
kernLeft = i;
kernRight = i;
layers = (
{
layerId = m01;
shapes = (
{
closed = 1;
nodes = (
(141,556,l),
(258,693,l),
(258,694,l),
(147,694,l),
(83,556,l)
);
},
{
closed = 1;
nodes = (
(176,477,l),
(173,477,l),
(59,465,l),
(59,459,l),
(78,434,o),
(84,406,o),
(84,354,cs),
(84,117,ls),
(84,54,o),
(80,31,o),
(63,4,c),
(63,0,l),
(198,0,l),
(198,4,l),
(179,31,o),
(176,56,o),
(176,117,cs)
);
}
);
width = 259;
}
);
note = iacute;
unicode = 237;
},
{
glyphname = ibreve;
kernLeft = i;
kernRight = i;
layers = (
{
layerId = m01;
shapes = (
{
closed = 1;
nodes = (
(1,694,l),
(4,610,o),
(54,557,o),
(130,557,cs),
(206,557,o),
(257,610,o),
(260,694,c),
(203,694,l),
(199,647,o),
(174,621,o),
(130,621,cs),
(87,621,o),
(62,647,o),
(57,694,c)
);
},
{
closed = 1;
nodes = (
(177,477,l),
(174,477,l),
(60,465,l),
(60,459,l),
(79,434,o),
(85,406,o),
(85,354,cs),
(85,117,ls),
(85,54,o),
(81,31,o),
(64,4,c),
(64,0,l),
(199,0,l),
(199,4,l),
(180,31,o),
(177,56,o),
(177,117,cs)
);
}
);
width = 259;
}
);
note = ibreve;
unicode = 301;
},
{
glyphname = icircumflex;
kernLeft = i;
kernRight = i;
layers = (
{
layerId = m01;
shapes = (
{
closed = 1;
nodes = (
(48,556,l),
(130,630,l),
(210,556,l),
(284,556,l),
(172,694,l),
(90,694,l),
(-23,556,l)
);
},
{
closed = 1;
nodes = (
(177,477,l),
(174,477,l),
(60,465,l),
(60,459,l),
(79,434,o),
(85,406,o),
(85,354,cs),
(85,117,ls),
(85,54,o),
(81,31,o),
(64,4,c),
(64,0,l),
(199,0,l),
(199,4,l),
(180,31,o),
(177,56,o),
(177,117,cs)
);
}
);
width = 259;
}
);
note = icircumflex;
unicode = 238;
},
{
glyphname = idieresis;
kernLeft = i;
kernRight = i;
layers = (
{
layerId = m01;
shapes = (
{
closed = 1;
nodes = (
(-28,591,o),
(-1,563,o),
(35,563,cs),
(70,563,o),
(97,591,o),
(97,627,cs),
(97,662,o),
(70,689,o),
(35,689,cs),
(-1,689,o),
(-28,662,o),
(-28,627,cs)
);
},
{
closed = 1;
nodes = (
(163,591,o),
(190,563,o),
(226,563,cs),
(261,563,o),
(288,591,o),
(288,627,cs),
(288,660,o),
(259,689,o),
(226,689,cs),
(190,689,o),
(163,662,o),
(163,627,cs)
);
},
{
closed = 1;
nodes = (
(177,477,l),
(174,477,l),
(60,465,l),
(60,459,l),
(79,434,o),
(85,406,o),
(85,354,cs),
(85,117,ls),
(85,54,o),
(81,31,o),
(64,4,c),
(64,0,l),
(199,0,l),
(199,4,l),
(180,31,o),
(177,56,o),
(177,117,cs)
);
}
);
width = 259;
}
);
note = idieresis;
unicode = 239;
},
{
glyphname = i.locl;
kernLeft = i;
kernRight = i;
layers = (
{
layerId = m01;
shapes = (
{
closed = 1;
nodes = (
(65,590,o),
(94,561,o),
(131,561,cs),
(166,561,o),
(195,590,o),
(195,627,cs),
(195,662,o),
(166,692,o),
(131,692,cs),
(95,692,o),
(65,663,o),
(65,627,cs)
);
},
{
closed = 1;
nodes = (
(177,477,l),
(174,477,l),
(60,465,l),
(60,459,l),
(79,434,o),
(85,406,o),
(85,354,cs),
(85,117,ls),
(85,54,o),
(81,31,o),
(64,4,c),
(64,0,l),
(199,0,l),
(199,4,l),
(180,31,o),
(177,56,o),
(177,117,cs)
);
}
);
width = 259;
}
);
note = i.locl;
},
{
glyphname = uni1ECB;
kernLeft = i;
kernRight = i;
layers = (
{
layerId = m01;
shapes = (
{
closed = 1;
nodes = (
(65,590,o),
(94,561,o),
(131,561,cs),
(166,561,o),
(194,590,o),
(194,627,cs),
(194,662,o),
(164,692,o),
(131,692,cs),
(94,692,o),
(65,663,o),
(65,627,cs)
);
},
{
closed = 1;
nodes = (
(177,477,l),
(174,477,l),
(60,465,l),
(60,459,l),
(79,434,o),
(85,406,o),
(85,354,cs),
(85,117,ls),
(85,54,o),
(81,31,o),
(64,4,c),
(64,0,l),
(199,0,l),
(199,4,l),
(180,31,o),
(177,56,o),
(177,117,cs)
);
},
{
closed = 1;
nodes = (
(64,-174,o),
(93,-204,o),
(130,-204,cs),
(165,-204,o),
(194,-174,o),
(194,-137,cs),
(194,-102,o),
(165,-73,o),
(130,-73,cs),
(93,-73,o),
(64,-102,o),
(64,-137,cs)
);
}
);
width = 259;
}
);
note = uni1ECB;
unicode = 7883;
},
{
glyphname = igrave;
kernLeft = i;
kernRight = i;
layers = (
{
layerId = m01;
shapes = (
{
closed = 1;
nodes = (
(112,694,l),
(2,694,l),
(2,693,l),
(115,556,l),
(177,556,l)
);
},
{
closed = 1;
nodes = (
(177,477,l),
(174,477,l),
(60,465,l),
(60,459,l),
(79,434,o),
(85,406,o),
(85,354,cs),
(85,117,ls),
(85,54,o),
(81,31,o),
(64,4,c),
(64,0,l),
(199,0,l),
(199,4,l),
(180,31,o),
(177,56,o),
(177,117,cs)
);
}
);
width = 259;
}
);
note = igrave;
unicode = 236;
},
{
glyphname = ij;
kernLeft = i;
kernRight = ij;
layers = (
{
layerId = m01;
shapes = (
{
closed = 1;
nodes = (
(65,590,o),
(94,561,o),
(131,561,cs),
(166,561,o),
(194,590,o),
(194,627,cs),
(194,662,o),
(164,692,o),
(131,692,cs),
(94,692,o),
(65,663,o),
(65,627,cs)
);
},
{
closed = 1;
nodes = (
(177,477,l),
(174,477,l),
(60,465,l),
(60,459,l),
(79,434,o),
(85,406,o),
(85,354,cs),
(85,117,ls),
(85,54,o),
(81,31,o),
(64,4,c),
(64,0,l),
(199,0,l),
(199,4,l),
(180,31,o),
(177,56,o),
(177,117,cs)
);
},
{
closed = 1;
nodes = (
(321,590,o),
(350,561,o),
(387,561,cs),
(422,561,o),
(451,590,o),
(451,627,cs),
(451,662,o),
(422,692,o),
(387,692,cs),
(351,692,o),
(321,663,o),
(321,627,cs)
);
},
{
closed = 1;
nodes = (
(195,-194,l),
(218,-207,o),
(246,-214,o),
(279,-214,cs),
(321,-214,o),
(357,-200,o),
(387,-172,cs),
(418,-144,o),
(433,-101,o),
(433,-43,cs),
(433,477,l),
(430,477,l),
(316,465,l),
(316,459,l),
(335,434,o),
(341,406,o),
(341,354,cs),
(341,-52,ls),
(341,-120,o),
(311,-151,o),
(254,-151,cs),
(235,-151,o),
(218,-148,o),
(201,-141,c)
);
}
);
width = 511;
}
);
note = ij;
unicode = 307;
},
{
glyphname = imacron;
kernLeft = i;
kernRight = i;
layers = (
{
layerId = m01;
shapes = (
{
closed = 1;
nodes = (
(285,579,l),
(285,640,l),
(-22,640,l),
(-22,579,l)
);
},
{
closed = 1;
nodes = (
(177,477,l),
(174,477,l),
(60,465,l),
(60,459,l),
(79,434,o),
(85,406,o),
(85,354,cs),
(85,117,ls),
(85,54,o),
(81,31,o),
(64,4,c),
(64,0,l),
(199,0,l),
(199,4,l),
(180,31,o),
(177,56,o),
(177,117,cs)
);
}
);
width = 259;
}
);
note = imacron;
unicode = 299;
},
{
glyphname = iogonek;
kernLeft = i;
kernRight = i;
layers = (
{
layerId = m01;
shapes = (
{
closed = 1;
nodes = (
(65,590,o),
(94,561,o),
(131,561,cs),
(166,561,o),
(195,590,o),
(195,627,cs),
(195,662,o),
(166,692,o),
(131,692,cs),
(95,692,o),
(65,663,o),
(65,627,cs)
);
},
{
closed = 1;
nodes = (
(199,0,l),
(199,4,l),
(180,31,o),
(177,56,o),
(177,117,cs),
(177,477,l),
(174,477,l),
(60,465,l),
(60,459,l),
(79,434,o),
(85,406,o),
(85,354,cs),
(85,117,ls),
(85,54,o),
(81,31,o),
(64,4,c),
(64,0,l),
(105,0,l),
(54,-25,o),
(17,-64,o),
(17,-113,cs),
(17,-166,o),
(58,-203,o),
(117,-203,cs),
(146,-203,o),
(171,-193,o),
(191,-173,c),
(182,-135,l),
(165,-146,o),
(148,-151,o),
(133,-151,cs),
(102,-151,o),
(82,-129,o),
(82,-98,cs),
(82,-61,o),
(115,-28,o),
(181,0,c)
);
}
);
width = 259;
}
);
note = iogonek;
unicode = 303;
},
{
glyphname = itilde;
kernLeft = i;
kernRight = i;
layers = (
{
layerId = m01;
shapes = (
{
closed = 1;
nodes = (
(123,585,ls),
(148,565,o),
(171,554,o),
(200,554,cs),
(252,554,o),
(293,598,o),
(296,677,c),
(242,677,l),
(235,638,o),
(224,621,o),
(200,621,cs),
(184,621,o),
(175,624,o),
(156,639,cs),
(138,652,ls),
(113,672,o),
(91,682,o),
(62,682,cs),
(10,682,o),
(-30,640,o),
(-34,560,c),
(21,560,l),
(26,599,o),
(38,616,o),
(61,616,cs),
(77,616,o),
(88,611,o),
(105,598,cs)
);
},
{
closed = 1;
nodes = (
(177,477,l),
(174,477,l),
(60,465,l),
(60,459,l),
(79,434,o),
(85,406,o),
(85,354,cs),
(85,117,ls),
(85,54,o),
(81,31,o),
(64,4,c),
(64,0,l),
(199,0,l),
(199,4,l),
(180,31,o),
(177,56,o),
(177,117,cs)
);
}
);
width = 259;
}
);
note = itilde;
unicode = 297;
},
{
glyphname = j;
kernLeft = j;
kernRight = ij;
layers = (
{
layerId = m01;
shapes = (
{
closed = 1;
nodes = (
(62,590,o),
(91,561,o),
(128,561,cs),
(163,561,o),
(192,590,o),
(192,627,cs),
(192,662,o),
(163,692,o),
(128,692,cs),
(92,692,o),
(62,663,o),
(62,627,cs)
);
},
{
closed = 1;
nodes = (
(-64,-194,l),
(-41,-207,o),
(-13,-214,o),
(20,-214,cs),
(62,-214,o),
(98,-200,o),
(128,-172,cs),
(159,-144,o),
(174,-101,o),
(174,-43,cs),
(174,477,l),
(171,477,l),
(57,465,l),
(57,459,l),
(76,434,o),
(82,406,o),
(82,354,cs),
(82,-52,ls),
(82,-120,o),
(52,-151,o),
(-5,-151,cs),
(-24,-151,o),
(-41,-148,o),
(-58,-141,c)
);
}
);
width = 252;
}
);
note = j;
unicode = 106;
},
{
glyphname = uni0237;
kernLeft = j;
kernRight = ij;
layers = (
{
layerId = m01;
shapes = (
{
closed = 1;
nodes = (
(-64,-194,l),
(-41,-207,o),
(-13,-214,o),
(20,-214,cs),
(62,-214,o),
(98,-200,o),
(128,-172,cs),
(159,-144,o),
(174,-101,o),
(174,-43,cs),
(174,477,l),
(171,477,l),
(57,465,l),
(57,459,l),
(76,434,o),
(82,406,o),
(82,354,cs),
(82,-52,ls),
(82,-120,o),
(52,-151,o),
(-5,-151,cs),
(-24,-151,o),
(-41,-148,o),
(-58,-141,c)
);
}
);
width = 252;
}
);
note = uni0237;
unicode = 567;
},
{
glyphname = jcircumflex;
kernLeft = j;
kernRight = ij;
layers = (
{
layerId = m01;
shapes = (
{
closed = 1;
nodes = (
(45,556,l),
(127,630,l),
(207,556,l),
(281,556,l),
(169,694,l),
(87,694,l),
(-26,556,l)
);
},
{
closed = 1;
nodes = (
(-64,-194,l),
(-41,-207,o),
(-13,-214,o),
(20,-214,cs),
(62,-214,o),
(98,-200,o),
(128,-172,cs),
(159,-144,o),
(174,-101,o),
(174,-43,cs),
(174,477,l),
(171,477,l),
(57,465,l),
(57,459,l),
(76,434,o),
(82,406,o),
(82,354,cs),
(82,-52,ls),
(82,-120,o),
(52,-151,o),
(-5,-151,cs),
(-24,-151,o),
(-41,-148,o),
(-58,-141,c)
);
}
);
width = 252;
}
);
note = jcircumflex;
unicode = 309;
},
{
glyphname = k;
kernLeft = h;
kernRight = k;
layers = (
{
layerId = m01;
shapes = (
{
closed = 1;
nodes = (
(297,286,l),
(382,366,ls),
(414,395,o),
(438,417,o),
(455,430,cs),
(472,444,o),
(491,457,o),
(512,470,c),
(512,474,l),
(364,474,l),
(364,470,ls),
(364,443,o),
(352,424,o),
(313,387,cs),
(178,257,l),
(174,257,l),
(174,713,l),
(171,713,l),
(57,701,l),
(57,695,l),
(77,667,o),
(82,647,o),
(82,591,cs),
(82,118,ls),
(82,57,o),
(79,31,o),
(60,4,c),
(60,0,l),
(195,0,l),
(195,4,l),
(178,31,o),
(174,57,o),
(174,118,cs),
(174,172,l),
(230,224,l),
(406,0,l),
(528,0,l),
(528,1,l)
);
}
);
width = 529;
}
);
note = k;
unicode = 107;
},
{
glyphname = uni0137;
kernLeft = h;
kernRight = k;
layers = (
{
layerId = m01;
shapes = (
{
closed = 1;
nodes = (
(297,286,l),
(382,366,ls),
(414,395,o),
(438,417,o),
(455,430,cs),
(472,444,o),
(491,457,o),
(512,470,c),
(512,474,l),
(364,474,l),
(364,470,ls),
(364,443,o),
(352,424,o),
(313,387,cs),
(178,257,l),
(174,257,l),
(174,713,l),
(171,713,l),
(57,701,l),
(57,695,l),
(77,667,o),
(82,647,o),
(82,591,cs),
(82,118,ls),
(82,57,o),
(79,31,o),
(60,4,c),
(60,0,l),
(195,0,l),
(195,4,l),
(178,31,o),
(174,57,o),
(174,118,cs),
(174,172,l),
(230,224,l),
(406,0,l),
(528,0,l),
(528,1,l)
);
},
{
closed = 1;
nodes = (
(337,-71,o),
(313,-44,o),
(277,-44,cs),
(245,-44,o),
(222,-68,o),
(222,-100,cs),
(222,-131,o),
(248,-153,o),
(280,-153,cs),
(282,-153,l),
(221,-257,l),
(268,-257,l),
(316,-169,ls),
(329,-144,o),
(337,-128,o),
(337,-108,cs)
);
}
);
width = 529;
}
);
note = uni0137;
unicode = 311;
},
{
glyphname = uni0137.ss06;
kernLeft = h;
kernRight = k;
layers = (
{
layerId = m01;
shapes = (
{
closed = 1;
nodes = (
(297,286,l),
(382,366,ls),
(414,395,o),
(438,417,o),
(455,430,cs),
(472,444,o),
(491,457,o),
(512,470,c),
(512,474,l),
(364,474,l),
(364,470,ls),
(364,443,o),
(352,424,o),
(313,387,cs),
(178,257,l),
(174,257,l),
(174,713,l),
(171,713,l),
(57,701,l),
(57,695,l),
(77,667,o),
(82,647,o),
(82,591,cs),
(82,118,ls),
(82,57,o),
(79,31,o),
(60,4,c),
(60,0,l),
(195,0,l),
(195,4,l),
(178,31,o),
(174,57,o),
(174,118,cs),
(174,172,l),
(230,224,l),
(406,0,l),
(528,0,l),
(528,1,l)
);
},
{
closed = 1;
nodes = (
(236,-257,l),
(331,-59,l),
(331,-57,l),
(236,-57,l),
(197,-257,l)
);
}
);
width = 529;
}
);
note = uni0137.ss06;
},
{
glyphname = l;
kernLeft = h;
kernRight = d;
layers = (
{
layerId = m01;
shapes = (
{
closed = 1;
nodes = (
(60,0,l),
(195,0,l),
(195,4,l),
(178,31,o),
(174,57,o),
(174,118,cs),
(174,713,l),
(171,713,l),
(57,701,l),
(57,695,l),
(77,667,o),
(82,649,o),
(82,590,cs),
(82,118,ls),
(82,57,o),
(79,31,o),
(60,4,c)
);
}
);
width = 255;
}
);
note = l;
unicode = 108;
},
{
glyphname = lacute;
kernLeft = h;
kernRight = d;
layers = (
{
layerId = m01;
shapes = (
{
closed = 1;
nodes = (
(137,757,l),
(254,893,l),
(254,895,l),
(143,895,l),
(79,757,l)
);
},
{
closed = 1;
nodes = (
(60,0,l),
(195,0,l),
(195,4,l),
(178,31,o),
(174,57,o),
(174,118,cs),
(174,713,l),
(171,713,l),
(57,701,l),
(57,695,l),
(77,667,o),
(82,649,o),
(82,590,cs),
(82,118,ls),
(82,57,o),
(79,31,o),
(60,4,c)
);
}
);
width = 255;
}
);
note = lacute;
unicode = 314;
},
{
glyphname = lcaron;
kernLeft = h;
kernRight = d;
layers = (
{
layerId = m01;
shapes = (
{
closed = 1;
nodes = (
(330,694,o),
(307,719,o),
(274,719,cs),
(243,719,o),
(222,695,o),
(222,666,cs),
(222,635,o),
(246,615,o),
(277,615,cs),
(279,615,l),
(221,517,l),
(265,517,l),
(311,600,ls),
(324,622,o),
(330,641,o),
(330,658,cs)
);
},
{
closed = 1;
nodes = (
(174,713,l),
(171,713,l),
(57,701,l),
(57,695,l),
(77,667,o),
(82,649,o),
(82,590,cs),
(82,118,ls),
(82,57,o),
(79,31,o),
(60,4,c),
(60,0,l),
(195,0,l),
(195,4,l),
(178,31,o),
(174,57,o),
(174,118,cs)
);
}
);
width = 255;
}
);
note = lcaron;
unicode = 318;
},
{
glyphname = lcaron.ss06;
kernLeft = h;
kernRight = d;
layers = (
{
layerId = m01;
shapes = (
{
closed = 1;
nodes = (
(60,0,l),
(195,0,l),
(195,4,l),
(178,31,o),
(174,57,o),
(174,118,cs),
(174,713,l),
(171,713,l),
(57,701,l),
(57,695,l),
(77,667,o),
(82,649,o),
(82,590,cs),
(82,118,ls),
(82,57,o),
(79,31,o),
(60,4,c)
);
},
{
closed = 1;
nodes = (
(254,520,l),
(344,708,l),
(344,710,l),
(254,710,l),
(217,520,l)
);
}
);
width = 255;
}
);
note = lcaron.ss06;
},
{
glyphname = uni013C;
kernLeft = h;
kernRight = d;
layers = (
{
layerId = m01;
shapes = (
{
closed = 1;
nodes = (
(174,713,l),
(171,713,l),
(57,701,l),
(57,695,l),
(77,667,o),
(82,649,o),
(82,590,cs),
(82,118,ls),
(82,57,o),
(79,31,o),
(60,4,c),
(60,0,l),
(195,0,l),
(195,4,l),
(178,31,o),
(174,57,o),
(174,118,cs)
);
},
{
closed = 1;
nodes = (
(185,-71,o),
(161,-44,o),
(126,-44,cs),
(94,-44,o),
(70,-68,o),
(70,-100,cs),
(70,-131,o),
(97,-153,o),
(129,-153,cs),
(131,-153,l),
(69,-257,l),
(116,-257,l),
(164,-169,ls),
(178,-146,o),
(185,-125,o),
(185,-108,cs)
);
}
);
width = 255;
}
);
note = uni013C;
unicode = 316;
},
{
glyphname = uni013C.ss06;
kernLeft = h;
kernRight = d;
layers = (
{
layerId = m01;
shapes = (
{
closed = 1;
nodes = (
(60,0,l),
(195,0,l),
(195,4,l),
(178,31,o),
(174,57,o),
(174,118,cs),
(174,713,l),
(171,713,l),
(57,701,l),
(57,695,l),
(77,667,o),
(82,649,o),
(82,590,cs),
(82,118,ls),
(82,57,o),
(79,31,o),
(60,4,c)
);
},
{
closed = 1;
nodes = (
(84,-257,l),
(179,-59,l),
(179,-57,l),
(84,-57,l),
(45,-257,l)
);
}
);
width = 255;
}
);
note = uni013C.ss06;
},
{
glyphname = ldot;
kernLeft = h;
layers = (
{
layerId = m01;
shapes = (
{
closed = 1;
nodes = (
(60,0,l),
(195,0,l),
(195,4,l),
(178,31,o),
(174,57,o),
(174,118,cs),
(174,713,l),
(171,713,l),
(57,701,l),
(57,695,l),
(77,667,o),
(82,649,o),
(82,590,cs),
(82,118,ls),
(82,57,o),
(79,31,o),
(60,4,c)
);
},
{
closed = 1;
nodes = (
(223,326,o),
(255,295,o),
(292,295,cs),
(329,295,o),
(360,326,o),
(360,363,cs),
(360,400,o),
(329,431,o),
(292,431,cs),
(253,431,o),
(223,400,o),
(223,363,cs)
);
}
);
width = 328;
}
);
note = ldot;
unicode = 320;
},
{
glyphname = lslash;
kernLeft = lslash;
kernRight = lslash;
layers = (
{
layerId = m01;
shapes = (
{
closed = 1;
nodes = (
(295,398,l),
(295,468,l),
(212,421,l),
(212,713,l),
(209,713,l),
(95,701,l),
(95,695,l),
(115,667,o),
(120,649,o),
(120,590,cs),
(120,369,l),
(34,320,l),
(34,251,l),
(120,299,l),
(120,118,ls),
(120,57,o),
(117,31,o),
(98,4,c),
(98,0,l),
(233,0,l),
(233,4,l),
(216,31,o),
(212,57,o),
(212,118,cs),
(212,351,l)
);
}
);
width = 324;
}
);
note = lslash;
unicode = 322;
},
{
glyphname = m;
kernLeft = m;
kernRight = h;
layers = (
{
layerId = m01;
shapes = (
{
closed = 1;
nodes = (
(85,117,ls),
(85,56,o),
(82,31,o),
(63,4,c),
(63,0,l),
(198,0,l),
(198,4,l),
(181,32,o),
(177,57,o),
(177,117,cs),
(177,278,ls),
(177,357,o),
(232,413,o),
(292,413,cs),
(348,413,o),
(376,376,o),
(376,307,cs),
(376,116,ls),
(376,57,o),
(371,31,o),
(355,4,c),
(355,0,l),
(491,0,l),
(491,4,l),
(472,31,o),
(469,56,o),
(469,116,cs),
(469,277,ls),
(469,358,o),
(522,413,o),
(581,413,cs),
(633,413,o),
(665,377,o),
(665,306,cs),
(665,118,ls),
(665,57,o),
(661,31,o),
(644,4,c),
(644,0,l),
(779,0,l),
(779,4,l),
(760,31,o),
(757,57,o),
(757,118,cs),
(757,312,ls),
(757,421,o),
(695,486,o),
(608,486,cs),
(547,486,o),
(495,452,o),
(460,391,c),
(456,391,l),
(433,452,o),
(384,486,o),
(324,486,cs),
(264,486,o),
(215,458,o),
(182,403,c),
(177,403,l),
(177,477,l),
(174,477,l),
(60,465,l),
(60,459,l),
(79,432,o),
(85,406,o),
(85,349,cs)
);
}
);
width = 833;
}
);
note = m;
unicode = 109;
},
